<?xml version="1.0" standalone="no"?><!DOCTYPE svg PUBLIC "-//W3C//DTD SVG 1.1//EN" "http://www.w3.org/Graphics/SVG/1.1/DTD/svg11.dtd" ><svg xmlns="http://www.w3.org/2000/svg"><metadata></metadata><defs><font id="iWaWa" horiz-adv-x="1024"><font-face font-family="iWaWa" font-weight="400" font-stretch="normal" units-per-em="1000" panose-1="4 11 5 0 0 0 0 0 0 0" ascent="860" descent="-204" x-height="0" bbox="-79 -140 976 798" underline-thickness="50" underline-position="-110" unicode-range="U+0022-ff0c" /><missing-glyph horiz-adv-x="1024"  /><glyph glyph-name="quotedbl" unicode="&quot;" d="M263 755 L249 490 L192 490 L177 755 L263 755 ZM116 755 L102 490 L45 490 L30 755 L116 755 Z" /><glyph glyph-name="percent" unicode="%" d="M664 151 Q665 86 625 44 Q587 4 522 4 Q457 4 419 47 Q382 87 382 151 Q382 215 419 255 Q457 298 522 298 Q660 300 664 151 ZM673 602 L69 -2 L21 49 L621 650 L673 602 ZM312 495 Q313 425 274 387 Q235 348 172 347 Q108 347 67 390 Q30 429 30 495 Q30 557 68 598 Q108 641 172 641 Q237 642 275 601 Q311 561 312 495 ZM596 151 Q598 190 579 218 Q559 244 522 244 Q450 245 450 151 Q450 63 522 59 Q565 57 582 93 Q594 115 596 151 ZM244 495 Q246 535 228 560 Q208 586 172 587 Q98 588 98 495 Q98 403 172 401 Q202 400 218 419 Q242 443 244 495 Z" /><glyph glyph-name="quotesingle" unicode="&#39;" d="M239 710 L63 515 L21 546 L175 768 L239 710 Z" /><glyph glyph-name="parenleft" unicode="(" d="M264 -39 L210 -85 Q22 86 22 324 Q22 562 210 733 L264 690 Q96 530 96 324 Q96 120 264 -39 Z" /><glyph glyph-name="parenright" unicode=")" d="M262 324 Q262 86 74 -85 L20 -39 Q187 120 187 324 Q187 530 20 690 L74 733 Q262 562 262 324 Z" /><glyph glyph-name="plus" unicode="+" d="M611 288 L352 288 L352 27 L279 27 L279 288 L22 288 L22 360 L279 360 L279 612 L352 612 L352 360 L611 360 L611 288 Z" /><glyph glyph-name="comma" unicode="," d="M160 79 Q160 -5 118 -83 Q85 -83 70 -70 Q77 -28 83 17 Q42 31 22 57 Q28 102 66 142 Q82 142 113 131 Q142 119 157 110 Q160 95 160 79 Z" /><glyph glyph-name="hyphen" unicode="-" d="M251 287 L22 287 L22 359 L251 359 L251 287 Z" /><glyph glyph-name="period" unicode="." d="M170 98 Q170 79 156 44 Q140 9 126 -4 Q64 10 22 40 Q28 76 64 139 Q109 137 170 98 Z" /><glyph glyph-name="slash" unicode="/" d="M408 695 L83 -73 L16 -43 L339 725 L408 695 Z" /><glyph glyph-name="zero" unicode="0" d="M657 298 Q657 235 618 165 Q579 100 525 60 Q449 3 352 3 Q218 3 124 91 Q30 181 30 313 Q30 444 118 543 Q208 641 339 641 Q377 641 420 629 Q469 614 495 590 Q495 581 483 564 Q472 545 462 539 Q399 571 335 571 Q239 571 170 487 Q105 407 105 307 Q105 209 179 139 Q254 68 352 68 Q442 68 517 152 Q585 229 585 303 Q585 375 566 422 Q551 454 498 520 Q515 550 543 563 Q657 467 657 298 Z" /><glyph glyph-name="one" unicode="1" d="M458 622 Q458 544 383 8 Q371 5 357 5 Q330 5 315 13 Q333 241 376 549 Q291 529 244 521 Q228 553 228 578 Q265 594 348 615 Q428 636 447 636 Q458 636 458 622 Z" /><glyph glyph-name="two" unicode="2" d="M586 528 Q586 486 492 334 Q445 259 332 79 Q364 75 414 75 Q477 75 533 83 Q543 77 546 56 Q548 37 547 25 Q504 3 394 3 Q357 3 313 11 Q260 19 234 36 Q252 83 385 304 Q511 512 511 523 Q511 545 470 556 Q440 565 409 565 Q294 565 132 478 Q108 500 102 533 Q159 576 249 606 Q337 635 408 635 Q483 635 523 620 Q586 593 586 528 Z" /><glyph glyph-name="three" unicode="3" d="M594 483 Q594 401 460 254 Q563 175 563 98 Q563 46 488 21 Q436 3 376 3 Q353 3 327 5 Q321 22 321 35 Q321 52 324 64 Q396 69 421 74 Q490 87 490 112 Q490 136 364 247 Q413 308 460 366 Q521 449 521 486 Q521 528 474 549 Q437 566 390 566 Q291 566 131 468 Q99 490 93 522 Q249 636 387 636 Q472 636 527 604 Q594 563 594 483 Z" /><glyph glyph-name="five" unicode="5" d="M585 551 Q585 534 580 522 L216 522 Q177 340 177 308 Q235 310 266 310 Q370 310 445 284 Q558 245 558 158 Q558 86 501 43 Q449 4 372 4 Q357 32 360 60 Q491 85 491 156 Q491 219 350 237 Q287 244 103 244 Q103 398 172 635 Q199 637 234 627 Q228 595 227 588 Q312 588 435 583 Q556 579 581 579 Q585 566 585 551 Z" /><glyph glyph-name="six" unicode="6" d="M588 197 Q588 107 526 54 Q467 3 377 3 Q246 3 175 66 Q100 135 100 266 Q100 362 183 475 Q274 598 394 637 Q410 624 423 588 Q320 528 255 453 Q174 358 174 261 Q174 66 374 66 Q439 66 478 102 Q516 137 516 202 Q516 252 460 286 Q433 303 355 330 Q360 365 371 386 Q464 369 518 329 Q588 278 588 197 Z" /><glyph glyph-name="seven" unicode="7" d="M614 615 Q596 478 545 255 Q496 47 477 8 Q432 13 417 26 Q481 298 531 563 Q479 569 394 569 Q277 569 150 551 L176 358 Q159 347 113 343 Q86 436 73 604 Q90 616 210 626 Q324 635 413 635 Q565 635 614 615 Z" /><glyph glyph-name="eight" unicode="8" d="M564 572 Q561 540 526 518 Q431 573 358 573 Q307 573 257 545 Q199 514 199 469 Q199 431 226 401 Q245 382 285 356 Q415 420 532 450 Q553 423 553 397 Q432 344 362 317 Q427 284 463 251 Q515 201 515 137 Q515 74 456 37 Q407 4 341 4 Q243 4 194 35 Q133 73 133 166 Q133 207 164 252 Q189 290 223 316 Q123 375 123 469 Q123 550 205 598 Q273 639 362 639 Q409 639 467 620 Q523 601 564 572 ZM442 148 Q442 210 309 271 L294 277 Q207 217 207 164 Q207 102 250 81 Q279 67 349 67 Q389 67 415 88 Q442 109 442 148 Z" /><glyph glyph-name="nine" unicode="9" d="M608 399 Q608 370 588 201 Q566 27 558 9 Q549 6 529 6 Q514 6 499 13 Q507 129 512 167 Q496 156 436 141 Q380 128 345 128 Q229 128 155 192 Q79 261 79 375 Q79 485 170 563 Q257 639 368 639 Q433 639 500 597 Q563 559 601 502 Q588 478 555 464 Q520 510 471 540 Q416 573 368 573 Q286 573 220 515 Q151 455 151 372 Q151 292 209 243 Q262 194 343 194 Q433 194 521 238 Q536 344 548 405 Q564 409 608 399 Z" /><glyph glyph-name="colon" unicode=":" d="M170 404 Q170 386 156 351 Q140 315 126 301 Q64 316 22 346 Q28 384 64 445 Q109 443 170 404 ZM170 106 Q170 88 156 54 Q140 18 126 3 Q64 19 22 49 Q28 85 64 148 Q109 145 170 106 Z" /><glyph glyph-name="semicolon" unicode=";" d="M170 404 Q170 386 156 351 Q140 315 126 301 Q64 316 22 346 Q28 384 64 446 Q109 443 170 404 ZM165 85 Q165 0 123 -77 Q90 -77 75 -65 Q82 -23 89 23 Q47 37 26 62 Q32 109 72 147 Q87 147 117 137 Q146 126 162 116 Q165 101 165 85 Z" /><glyph glyph-name="equal" unicode="=" d="M416 385 L22 385 L22 456 L416 456 L416 385 ZM416 193 L22 193 L22 263 L416 263 L416 193 Z" /><glyph glyph-name="question" unicode="?" d="M450 485 Q450 416 380 330 Q322 258 246 212 Q210 232 205 255 Q257 310 309 363 Q372 439 372 483 Q372 525 331 553 Q294 580 251 580 Q162 580 64 477 Q29 499 22 518 Q57 580 122 616 Q185 653 256 653 Q332 653 389 608 Q450 560 450 485 ZM301 100 Q301 81 287 48 Q271 14 259 0 Q198 15 158 45 Q164 79 199 139 Q242 138 301 100 Z" /><glyph glyph-name="A" unicode="a" d="M673 11 Q650 7 643 7 Q618 7 605 11 Q603 199 565 338 Q543 417 507 480 Q456 572 400 572 Q353 572 280 483 Q197 381 145 229 L405 189 Q405 182 405 162 Q405 145 398 132 Q345 132 122 164 L78 5 Q45 5 17 17 Q35 176 101 324 Q148 432 218 518 Q314 640 400 640 Q482 640 550 550 Q600 482 630 387 Q677 235 673 11 Z" /><glyph glyph-name="C" unicode="c" d="M600 126 Q559 71 483 37 Q407 3 338 3 Q200 3 109 101 Q30 188 30 297 Q30 460 143 558 Q238 641 341 641 Q413 641 480 612 Q555 579 592 520 Q574 495 547 478 Q457 570 339 570 Q270 570 200 512 Q105 434 105 299 Q105 206 177 139 Q248 72 340 72 Q443 72 559 168 Q572 167 584 150 Q597 137 600 126 Z" /><glyph glyph-name="D" unicode="d" d="M616 309 Q616 166 526 81 Q446 9 335 9 Q304 9 258 19 Q213 28 182 43 Q182 71 205 101 Q282 75 334 75 Q397 75 456 119 Q541 184 541 312 Q541 562 276 562 Q212 562 121 530 Q115 464 115 371 Q115 244 126 21 Q113 15 98 13 Q76 11 61 16 Q39 203 39 350 Q39 491 62 636 Q77 639 84 639 Q111 639 126 629 Q126 620 126 608 Q217 633 275 633 Q616 633 616 309 Z" /><glyph glyph-name="E" unicode="e" d="M582 591 Q582 572 578 559 Q480 554 198 554 Q94 554 52 557 Q48 572 46 590 Q45 613 53 624 Q195 632 321 632 Q459 632 579 622 Q582 606 582 591 ZM464 53 Q464 37 461 24 Q412 13 295 13 Q88 13 61 33 Q39 85 39 228 Q39 382 52 474 Q65 478 85 477 Q111 476 118 469 L115 366 L387 351 Q393 342 392 322 Q391 311 386 289 Q346 288 330 288 Q282 288 213 290 Q144 292 115 292 Q115 276 115 252 Q115 179 125 94 Q181 83 289 84 Q408 85 458 79 Q464 70 464 53 Z" /><glyph glyph-name="F" unicode="f" d="M585 583 Q585 571 577 555 Q543 555 443 553 Q343 551 293 551 Q122 551 44 570 Q39 585 39 596 Q39 617 46 630 Q114 633 181 633 Q497 633 581 614 Q585 600 585 583 ZM558 272 Q558 257 554 243 Q542 239 464 239 Q318 239 216 251 Q211 263 211 283 Q211 300 217 315 Q259 316 329 316 Q417 316 556 303 Q558 294 558 272 ZM156 17 Q144 10 121 10 Q103 10 85 15 Q71 205 70 317 Q69 398 76 457 Q90 464 110 464 Q130 464 142 461 Q156 295 156 17 Z" /><glyph glyph-name="G" unicode="g" d="M643 286 Q643 130 627 61 Q619 59 600 59 Q584 59 569 64 Q568 102 574 234 Q515 244 452 255 Q376 271 317 287 Q314 320 327 346 Q497 329 643 286 ZM546 576 Q541 542 518 524 Q440 572 349 572 Q252 572 179 493 Q107 413 107 315 Q107 219 161 148 Q219 72 310 72 Q340 72 383 79 Q433 88 454 104 Q475 77 480 49 Q449 27 391 15 Q341 3 299 3 Q176 3 100 100 Q30 188 30 315 Q30 442 126 539 Q222 639 351 639 Q399 639 454 622 Q509 605 546 576 Z" /><glyph glyph-name="H" unicode="h" d="M594 580 Q594 482 584 288 Q575 96 567 52 Q552 47 534 47 Q518 47 503 52 Q501 80 501 127 Q501 194 507 302 Q286 314 206 321 Q202 332 202 353 Q202 374 206 384 Q377 384 509 375 Q521 490 530 581 Q540 584 560 584 Q574 584 594 580 ZM130 631 Q130 520 117 265 Q94 11 94 5 Q92 4 73 4 Q56 4 40 9 Q39 19 39 48 Q39 142 63 635 Q86 636 95 636 Q115 636 130 631 Z" /><glyph glyph-name="I" unicode="i" d="M409 586 Q409 571 404 553 Q294 553 257 556 Q257 431 238 76 Q317 73 372 69 Q375 55 375 43 Q375 31 370 11 Q326 10 286 10 Q165 10 41 18 Q39 26 39 43 Q39 58 41 76 Q59 79 95 79 Q129 79 169 78 Q169 222 188 559 L54 570 Q51 583 51 603 Q51 615 56 633 Q69 633 105 633 Q187 633 405 616 Q409 602 409 586 Z" /><glyph glyph-name="J" unicode="j" d="M601 586 Q601 570 598 555 Q487 551 380 551 Q204 551 23 562 Q17 581 17 598 Q17 616 21 629 Q140 632 229 632 Q404 632 598 618 Q601 604 601 586 ZM411 282 Q411 41 392 19 Q383 12 332 12 Q206 12 110 48 Q110 88 122 109 Q241 83 326 80 Q336 111 346 419 Q357 424 376 424 Q395 424 408 416 Q411 364 411 282 Z" /><glyph glyph-name="K" unicode="k" d="M594 527 Q468 461 130 315 L106 8 Q95 5 74 5 Q61 5 39 10 Q38 52 39 102 Q43 287 82 635 Q106 636 116 635 Q141 634 148 629 Q141 472 136 396 Q388 508 571 577 Q590 557 594 527 ZM554 67 Q547 58 533 44 Q519 32 506 27 Q469 53 399 133 Q339 201 303 251 Q316 275 348 289 Q371 281 452 189 Q525 107 554 67 Z" /><glyph glyph-name="L" unicode="l" d="M484 51 Q484 27 481 21 Q411 8 263 8 Q108 8 45 25 Q39 74 39 153 Q39 417 82 633 Q92 635 114 635 Q135 635 148 627 L130 390 Q115 180 118 85 Q196 78 299 78 Q380 78 477 82 Q484 70 484 51 Z" /><glyph glyph-name="M" unicode="m" d="M688 190 Q688 116 685 59 Q673 53 654 53 Q629 53 619 58 Q606 344 602 485 Q400 393 320 352 Q295 362 244 399 Q201 431 173 458 Q182 479 188 485 Q194 499 210 510 Q252 487 323 435 Q516 543 673 583 Q673 574 681 463 Q688 352 688 190 ZM145 629 Q145 601 126 315 L105 10 Q91 5 70 5 Q58 5 36 10 Q32 146 51 387 Q67 604 76 635 Q99 637 109 637 Q129 637 145 629 Z" /><glyph glyph-name="N" unicode="n" d="M618 279 Q618 88 586 33 Q562 32 508 67 Q338 179 187 439 Q195 450 206 460 Q217 469 235 476 Q344 334 380 292 Q472 187 544 139 Q545 139 545 228 Q545 411 528 597 Q543 604 558 606 Q575 607 587 606 Q618 499 618 279 ZM135 632 Q135 411 111 11 Q97 4 70 4 Q51 4 41 10 Q39 43 39 104 Q39 214 45 376 Q53 591 67 635 Q80 636 101 636 Q120 636 135 632 Z" /><glyph glyph-name="O" unicode="o" d="M695 298 Q695 222 640 148 Q586 74 510 46 Q487 71 479 103 Q537 132 576 187 Q616 246 616 303 Q616 365 595 413 Q576 458 527 506 Q532 518 545 534 Q560 545 572 551 Q695 461 695 298 ZM516 598 Q516 588 511 571 Q505 551 496 539 Q418 567 358 567 Q255 567 182 494 Q108 421 108 317 Q108 207 167 142 Q230 74 337 74 Q375 74 420 86 Q433 60 436 28 Q376 4 314 4 Q214 4 131 78 Q30 169 30 327 Q30 451 128 545 Q225 639 351 639 Q436 639 516 598 Z" /><glyph glyph-name="P" unicode="p" d="M609 394 Q609 281 524 226 Q454 181 335 181 Q275 181 239 190 Q236 199 236 218 Q236 234 242 249 Q387 251 433 264 Q534 295 534 396 Q534 475 403 526 Q311 562 202 569 Q199 583 199 603 Q199 621 203 635 Q346 631 457 582 Q609 515 609 394 ZM129 631 Q129 498 123 267 Q117 28 111 8 Q88 4 80 4 Q51 4 39 11 Q39 85 39 170 Q39 374 39 402 Q42 543 58 634 Q77 637 96 637 Q110 637 129 631 Z" /><glyph glyph-name="R" unicode="r" d="M605 391 Q605 326 562 269 Q519 213 460 200 Q542 81 546 68 Q526 40 493 36 Q469 50 381 185 Q336 183 321 183 Q286 183 236 191 Q235 209 235 216 Q235 229 241 252 Q375 252 429 268 Q534 298 534 394 Q534 480 404 528 Q320 560 195 569 Q193 589 193 599 Q193 611 199 631 Q354 626 456 582 Q605 518 605 391 ZM129 632 Q129 598 119 308 Q109 19 109 12 Q96 8 77 7 Q63 6 44 10 Q39 113 39 178 Q39 358 40 406 Q44 538 61 636 Q80 641 98 639 Q116 636 129 632 Z" /><glyph glyph-name="S" unicode="s" d="M564 515 Q564 501 557 488 Q548 470 536 465 Q349 530 241 530 Q183 530 142 508 Q93 482 93 430 Q93 394 179 355 Q319 292 345 274 Q436 211 436 121 Q436 51 376 6 Q323 -37 251 -37 Q118 -37 28 74 Q30 89 42 100 Q50 106 68 117 Q125 71 154 56 Q199 33 251 33 Q290 33 324 57 Q360 84 360 123 Q360 193 276 236 Q220 260 111 311 Q22 356 22 425 Q22 512 93 559 Q153 600 246 600 Q313 600 408 576 Q510 550 564 515 Z" /><glyph glyph-name="T" unicode="t" d="M637 594 Q637 578 634 568 Q602 555 169 555 Q54 555 23 558 Q17 571 17 590 Q17 601 19 618 Q59 632 364 632 Q608 632 634 624 Q637 615 637 594 ZM383 22 Q372 15 354 13 Q334 11 319 14 Q303 60 278 421 Q292 430 316 430 Q332 430 344 427 Q354 399 369 234 Q386 63 383 22 Z" /><glyph glyph-name="W" unicode="w" d="M776 530 Q772 433 736 307 Q701 191 654 97 Q607 5 583 5 Q543 5 428 192 Q259 15 233 15 Q211 15 164 110 Q111 219 70 361 Q30 502 17 624 Q43 641 76 634 Q138 399 149 366 Q196 208 249 117 Q256 123 346 214 Q427 298 440 298 Q451 298 491 233 Q542 148 577 107 Q614 151 661 310 Q698 432 718 539 Q731 542 749 540 Q766 537 776 530 Z" /><glyph glyph-name="X" unicode="x" d="M624 79 Q624 68 615 51 Q604 34 593 26 Q456 99 308 227 Q152 21 135 5 Q101 16 82 41 Q120 110 251 282 Q76 482 16 584 Q35 602 69 613 Q164 495 183 473 Q247 396 297 347 Q352 416 408 491 Q476 576 533 636 Q568 625 588 603 Q577 567 358 292 Q438 208 624 79 Z" /><glyph glyph-name="Y" unicode="y" d="M614 534 Q606 497 527 416 Q426 314 304 254 Q315 81 315 38 Q315 28 314 13 Q294 4 281 4 Q264 4 250 7 Q231 80 226 275 Q182 326 114 430 Q36 549 17 610 Q33 626 66 637 Q77 627 132 541 Q203 428 284 323 Q383 372 477 463 Q519 502 569 561 Q595 552 614 534 Z" /><glyph glyph-name="underscore" unicode="_" d="M456 -118 L8 -118 L8 -46 L456 -46 L456 -118 Z" /><glyph glyph-name="a" unicode="a" d="M455 39 Q455 28 454 9 Q431 9 396 8 L385 50 Q334 26 311 18 Q268 3 223 3 Q141 3 82 55 Q22 107 22 187 Q22 272 80 326 Q140 378 226 378 Q311 378 357 331 Q345 303 322 287 Q277 313 226 313 Q171 313 134 281 Q93 247 93 193 Q93 142 130 106 Q167 68 216 68 Q289 68 379 124 Q371 310 372 365 Q379 372 404 372 Q433 372 435 366 Q442 354 449 215 Q455 96 455 39 Z" /><glyph glyph-name="b" unicode="b" d="M476 181 Q476 97 411 49 Q354 4 270 4 Q210 4 152 45 Q156 69 161 77 Q162 79 176 100 Q245 73 268 73 Q326 73 364 99 Q406 130 406 185 Q406 238 371 274 Q337 310 287 310 Q247 310 171 283 Q151 311 151 334 Q193 378 292 378 Q372 378 427 319 Q476 262 476 181 ZM120 86 Q120 20 117 11 Q98 4 85 4 Q56 4 52 9 Q39 36 39 342 Q39 519 46 547 Q68 549 77 549 Q91 549 112 544 Q112 531 116 352 Q120 172 120 86 Z" /><glyph glyph-name="c" unicode="c" d="M396 82 Q323 4 228 4 Q149 4 89 50 Q22 99 22 178 Q22 263 80 321 Q139 378 224 378 Q270 378 316 360 Q368 338 391 300 Q374 284 372 282 Q361 273 347 268 Q291 314 220 314 Q164 314 127 276 Q90 236 90 176 Q90 130 136 96 Q179 66 227 66 Q273 66 357 120 Q373 116 396 82 Z" /><glyph glyph-name="d" unicode="d" d="M455 266 Q458 30 450 12 Q439 4 421 4 Q400 4 389 9 Q379 29 379 282 Q379 510 386 527 Q406 532 417 532 Q428 532 449 528 Q452 506 455 266 ZM364 61 Q338 33 290 17 Q249 3 207 3 Q123 3 68 57 Q12 110 12 193 Q12 273 76 327 Q138 379 219 379 Q251 379 295 368 Q346 353 363 331 Q362 323 352 306 Q343 290 336 284 Q271 312 215 312 Q164 312 122 276 Q81 240 81 190 Q81 138 119 104 Q155 70 208 70 Q257 70 336 106 Q355 89 364 61 Z" /><glyph glyph-name="e" unicode="e" d="M440 199 Q440 172 433 168 Q365 143 103 134 Q135 62 235 62 Q262 62 298 69 Q306 58 310 42 Q314 22 309 17 Q266 1 222 1 Q143 1 84 46 Q22 96 22 175 Q22 265 83 322 Q143 378 234 378 Q322 378 380 332 Q440 283 440 199 ZM369 215 Q369 245 342 274 Q305 314 235 314 Q179 314 141 280 Q101 247 95 192 Q158 197 369 215 Z" /><glyph glyph-name="f" unicode="f" d="M470 331 Q470 317 467 304 Q457 304 394 301 Q333 298 262 298 Q262 97 264 12 Q236 4 216 4 Q207 4 199 6 Q185 137 185 298 Q131 298 77 302 Q-79 314 18 314 Q17 316 17 334 Q17 352 22 362 Q32 369 103 369 Q147 369 187 369 Q199 509 204 515 Q222 538 387 551 Q400 527 400 499 Q329 478 268 463 Q266 462 264 369 Q402 369 466 361 Q470 356 470 331 Z" /><glyph glyph-name="g" unicode="g" d="M459 8 Q459 -30 458 -40 Q452 -69 383 -86 Q330 -101 290 -101 Q271 -101 259 -95 Q254 -87 254 -71 Q254 -54 257 -43 Q286 -39 325 -32 Q380 -22 386 -8 Q389 -3 389 19 Q389 23 386 146 Q384 256 385 319 Q403 324 416 324 Q431 324 447 320 Q459 226 459 8 ZM352 324 Q349 302 325 277 Q273 296 265 298 Q240 306 209 306 Q158 306 124 268 Q92 232 92 181 Q92 133 122 104 Q151 74 198 74 Q238 74 304 93 Q313 81 328 45 Q306 27 270 15 Q233 4 204 4 Q124 4 72 56 Q22 105 22 184 Q22 262 75 319 Q130 377 210 377 Q295 377 352 324 Z" /><glyph glyph-name="h" unicode="h" d="M481 186 Q481 157 468 95 Q453 28 438 6 Q405 6 382 24 Q406 128 406 184 Q406 237 373 273 Q341 307 293 307 Q254 307 163 277 Q146 299 141 329 Q158 350 216 364 Q265 377 297 377 Q375 377 428 320 Q481 263 481 186 ZM115 132 Q115 25 113 15 Q106 5 81 5 Q61 5 50 6 Q39 29 39 342 Q39 573 45 589 Q56 592 76 592 Q87 592 108 587 Q108 566 111 365 Q115 165 115 132 Z" /><glyph glyph-name="i" unicode="i" d="M160 514 Q157 494 138 456 Q120 456 84 467 Q46 480 39 491 Q44 520 64 549 Q81 549 114 538 Q148 524 160 514 ZM133 190 Q134 25 128 12 Q117 6 97 6 Q73 6 64 9 Q53 30 53 212 Q53 356 59 374 Q73 378 93 378 Q110 378 125 371 Q132 356 133 190 Z" /><glyph glyph-name="j" unicode="j" d="M239 514 Q233 477 219 461 Q207 457 168 470 Q130 483 120 494 Q125 529 146 550 Q162 550 196 538 Q231 524 239 514 ZM231 1 Q231 -74 224 -87 Q216 -102 137 -102 Q36 -102 1 -85 Q-1 -71 -1 -57 Q-1 -39 6 -26 L150 -28 Q153 -28 153 12 Q153 44 148 178 Q144 303 145 373 Q156 378 179 378 Q189 378 213 374 Q220 357 226 208 Q231 78 231 1 Z" /><glyph glyph-name="k" unicode="k" d="M440 332 Q428 316 287 253 Q167 200 117 180 Q116 177 115 94 Q115 29 108 11 Q100 4 78 4 Q60 4 47 8 Q38 30 39 170 Q40 383 55 563 Q66 568 88 568 Q107 568 119 564 Q120 552 120 498 Q120 421 117 259 Q190 293 412 379 Q423 373 432 358 Q435 351 440 332 ZM422 52 Q411 28 381 14 Q362 15 301 78 Q241 138 230 160 Q241 185 271 202 Q290 195 351 133 Q411 71 422 52 Z" /><glyph glyph-name="l" unicode="l" d="M116 223 Q116 26 111 10 Q101 5 81 4 Q67 3 52 8 Q39 36 39 272 Q39 376 43 559 Q55 565 77 565 Q93 565 109 559 Q116 513 116 223 Z" /><glyph glyph-name="m" unicode="m" d="M645 181 Q645 152 634 90 Q622 18 606 5 Q567 5 552 20 Q572 145 572 183 Q572 212 555 234 Q538 254 512 254 Q485 254 442 234 Q406 215 365 195 Q315 305 251 305 Q211 305 152 282 Q146 288 139 302 Q131 317 131 328 Q177 376 265 376 Q334 376 392 288 Q448 326 507 326 Q571 326 610 284 Q645 244 645 181 ZM120 14 Q101 4 90 4 Q65 4 60 6 Q45 26 37 164 Q30 270 30 344 Q30 357 31 371 Q50 377 64 377 Q81 377 94 374 Q106 318 115 172 Q122 39 120 14 Z" /><glyph glyph-name="n" unicode="n" d="M476 213 Q476 179 466 106 Q453 19 438 6 Q399 8 380 21 Q405 152 405 208 Q405 255 376 282 Q348 309 301 309 Q268 309 178 277 Q152 297 152 327 Q176 353 229 367 Q270 377 313 377 Q381 377 430 329 Q476 281 476 213 ZM123 43 Q123 17 121 12 Q109 4 90 4 Q73 4 58 9 Q39 41 39 373 Q58 377 72 377 Q82 377 102 373 Q109 335 116 224 Q123 109 123 43 Z" /><glyph glyph-name="o" unicode="o" d="M446 183 Q446 136 413 94 Q379 53 329 38 Q307 69 302 87 Q334 103 355 129 Q379 157 379 186 Q379 241 328 289 Q348 316 373 328 Q446 272 446 183 ZM331 354 Q330 335 324 323 Q315 307 307 299 Q260 318 223 318 Q170 318 132 279 Q93 241 93 185 Q93 141 132 103 Q169 66 216 66 Q243 66 276 72 Q289 48 291 19 Q264 3 212 3 Q138 3 79 58 Q22 114 22 186 Q22 267 78 324 Q137 381 220 381 Q288 381 331 354 Z" /><glyph glyph-name="p" unicode="p" d="M448 181 Q448 9 255 9 Q218 9 189 15 Q183 15 183 47 Q183 53 188 77 Q280 77 315 90 Q377 112 377 182 Q377 239 295 275 Q234 302 157 310 Q155 333 155 341 Q155 350 159 374 Q268 374 349 331 Q448 278 448 181 ZM113 113 Q113 6 107 -100 Q80 -103 76 -103 Q62 -103 44 -96 Q39 15 39 137 Q39 285 49 375 L76 376 Q86 376 111 371 Q113 251 113 113 Z" /><glyph glyph-name="q" unicode="q" d="M430 -64 Q430 -70 428 -86 Q394 -102 334 -102 Q302 -102 294 -95 Q282 -87 282 -58 Q282 -25 293 23 Q236 4 192 4 Q115 4 68 58 Q22 108 22 182 Q22 267 82 325 Q142 378 228 378 Q272 378 319 360 Q370 339 397 306 Q380 273 358 265 Q285 308 228 308 Q170 308 133 277 Q92 243 92 185 Q92 139 124 105 Q155 72 198 72 Q250 72 302 107 Q318 116 344 222 Q367 222 378 217 Q390 213 406 205 L375 73 Q355 -12 355 -33 Q355 -37 363 -37 L425 -37 Q430 -49 430 -64 Z" /><glyph glyph-name="r" unicode="r" d="M386 355 Q386 317 378 299 Q344 302 329 302 Q212 302 116 263 Q143 39 137 18 Q126 11 112 8 Q94 4 82 7 Q63 60 51 187 Q39 296 39 373 Q59 377 70 377 Q80 377 102 375 L108 329 Q183 364 281 364 Q329 364 386 355 Z" /><glyph glyph-name="s" unicode="s" d="M358 325 Q358 315 351 300 Q343 285 333 279 Q219 316 157 316 Q85 316 85 280 Q85 260 133 238 Q211 203 229 190 Q282 154 282 100 Q282 57 243 28 Q209 3 163 3 Q80 3 20 75 Q26 85 35 97 Q41 102 60 113 Q117 66 161 66 Q178 66 194 75 Q213 85 213 101 Q213 135 166 160 Q133 172 70 204 Q17 233 17 281 Q17 331 67 356 Q107 377 160 377 Q205 377 266 363 Q336 349 358 325 Z" /><glyph glyph-name="t" unicode="t" d="M478 315 Q478 305 474 291 Q451 286 410 286 Q385 286 334 289 Q283 291 261 291 Q243 155 243 79 Q243 70 254 70 Q260 70 296 72 Q332 73 354 73 Q362 62 363 39 Q363 34 362 24 Q308 4 225 4 Q179 4 175 14 Q168 27 168 72 Q168 144 186 293 Q150 294 23 301 Q17 317 17 325 Q17 333 23 357 Q114 361 198 361 Q203 395 225 494 Q252 494 287 484 Q287 466 273 361 Q286 361 357 355 Q438 348 475 340 Q478 329 478 315 Z" /><glyph glyph-name="u" unicode="u" d="M476 35 Q447 18 417 18 L404 51 Q381 32 324 18 Q272 4 228 4 Q129 4 83 54 Q39 102 39 202 Q39 259 79 376 Q112 374 137 359 Q109 236 109 206 Q109 135 135 105 Q162 71 229 71 Q321 71 385 122 L347 354 Q357 369 402 369 Q415 345 445 207 Q473 74 476 35 Z" /><glyph glyph-name="v" unicode="v" d="M458 342 Q433 168 290 46 Q241 4 224 4 Q207 4 163 59 Q111 122 70 202 Q28 287 17 363 Q43 375 74 376 Q121 242 179 150 Q223 82 232 82 Q236 82 264 112 Q359 213 395 350 Q406 353 414 352 Q424 352 458 342 Z" /><glyph glyph-name="w" unicode="w" d="M517 311 Q511 220 460 109 Q411 3 385 3 Q356 3 285 104 Q183 5 163 5 Q137 5 86 121 Q32 245 17 362 Q43 375 74 376 Q96 308 117 242 Q150 137 177 94 Q173 91 234 147 Q285 193 293 193 Q302 193 340 144 Q362 116 381 93 Q422 148 460 321 Q487 323 517 311 Z" /><glyph glyph-name="x" unicode="x" d="M404 61 Q404 48 393 34 Q384 19 372 13 Q303 52 207 123 Q166 75 101 3 Q71 14 51 38 Q88 96 150 170 Q65 251 16 329 Q35 356 62 360 Q104 319 198 225 Q240 273 337 378 Q378 367 382 341 Q379 329 321 258 Q267 193 252 176 Q308 128 404 61 Z" /><glyph glyph-name="y" unicode="y" d="M458 353 Q452 316 330 128 Q216 -48 172 -99 Q136 -92 124 -66 Q177 20 211 72 Q124 169 16 340 Q42 362 69 370 Q208 184 252 136 Q346 275 409 378 Q440 372 458 353 Z" /><glyph glyph-name="z" unicode="z" d="M364 339 Q364 329 291 212 Q212 84 204 68 Q208 67 251 67 Q287 67 336 66 Q343 54 343 39 Q343 15 337 15 Q316 4 265 4 Q229 4 188 9 Q123 16 118 32 Q114 61 181 172 Q232 258 266 301 Q187 303 20 316 Q17 331 17 341 Q17 353 23 373 Q38 374 71 374 Q168 374 256 366 Q364 357 364 339 Z" /><glyph glyph-name="uni3002" unicode="&#x3002;" d="M646 306 Q646 251 608 213 Q568 176 511 176 Q452 176 414 213 Q378 249 378 307 Q378 362 416 400 Q455 440 511 440 Q565 440 606 400 Q646 359 646 306 ZM574 307 Q574 337 555 357 Q537 376 510 376 Q446 376 446 307 Q446 243 510 243 Q574 243 574 307 Z" /><glyph glyph-name="uni4E00" unicode="&#x4e00;" d="M176 369 Q493 369 806 358 Q806 342 806 321 Q806 297 801 280 Q410 280 175 288 Q169 299 169 328 Q169 347 176 369 Z" /><glyph glyph-name="uni4E07" unicode="&#x4e07;" d="M371 499 Q279 504 176 512 Q176 556 185 592 Q506 592 819 565 Q819 525 812 486 Q628 486 457 494 Q435 427 413 362 Q579 348 761 309 Q763 215 763 137 Q763 16 747 -61 Q684 -70 595 -70 Q589 -35 589 -1 Q636 3 677 5 Q679 85 679 235 Q529 259 387 288 Q340 151 282 11 Q240 13 204 43 Q283 277 371 499 Z" /><glyph glyph-name="uni4E0A" unicode="&#x4e0a;" d="M437 640 Q460 640 478 629 Q480 547 481 473 Q591 475 725 475 Q822 475 886 468 Q891 455 891 433 Q891 407 886 398 Q868 391 725 391 Q542 391 482 394 L482 327 Q482 186 475 60 Q606 55 744 46 L744 12 Q744 -4 737 -25 Q456 -25 173 -5 Q168 17 168 32 Q168 46 171 65 Q288 65 394 62 Q388 188 388 321 Q388 472 398 629 Q421 640 437 640 Z" /><glyph glyph-name="uni4E0B" unicode="&#x4e0b;" d="M425 528 Q281 524 126 523 Q120 560 120 599 Q447 613 858 622 Q863 605 863 586 Q863 559 860 545 Q684 535 513 530 Q521 260 521 -29 Q506 -37 480 -37 Q461 -37 441 -34 Q426 248 425 528 ZM621 322 Q739 286 851 244 Q842 210 825 177 Q706 210 597 256 Q606 295 621 322 Z" /><glyph glyph-name="uni4E0D" unicode="&#x4e0d;" d="M121 650 Q513 650 900 625 L900 591 Q900 566 895 552 Q410 552 119 571 Q115 582 115 610 Q115 627 121 650 ZM460 513 Q493 494 521 469 Q444 369 364 275 Q246 117 198 85 Q160 99 136 136 Q219 240 299 335 Q407 460 460 513 ZM586 269 Q625 140 648 -65 Q623 -82 523 -82 Q504 -68 504 -29 Q525 -26 557 -19 Q535 117 512 257 Q545 269 586 269 ZM756 232 Q841 202 920 166 Q910 134 890 100 Q793 123 725 162 Q738 203 756 232 Z" /><glyph glyph-name="uni4E16" unicode="&#x4e16;" d="M470 600 Q507 595 544 585 Q539 526 533 474 Q621 471 706 467 Q712 517 718 575 Q760 572 798 567 Q793 511 788 464 Q841 460 902 456 L902 422 Q902 398 898 383 Q834 383 781 383 Q770 272 755 147 Q586 154 419 192 Q429 300 440 388 Q366 390 300 393 Q287 238 273 83 Q463 63 673 48 Q673 11 660 -25 Q411 -18 184 26 Q196 215 214 397 Q168 399 119 402 Q115 413 115 441 Q115 459 121 481 Q177 481 222 480 Q228 541 237 609 Q282 605 316 597 Q311 533 306 479 Q380 478 452 476 Q460 537 470 600 ZM698 384 Q605 385 524 386 Q516 317 508 245 Q591 235 684 226 Q690 303 698 384 Z" /><glyph glyph-name="uni4E1A" unicode="&#x4e1a;" d="M794 487 Q837 476 862 448 Q815 338 729 222 Q689 231 669 257 Q711 368 794 487 ZM238 476 Q302 359 328 266 Q308 249 265 232 Q211 314 170 442 Q199 464 238 476 ZM140 140 Q272 140 392 136 Q362 399 348 670 Q385 677 426 679 Q459 402 474 133 Q505 132 535 130 Q548 429 580 700 Q602 701 622 701 Q647 700 658 694 Q648 407 617 126 Q743 119 875 107 L875 73 Q875 56 868 36 Q506 36 142 69 Q137 92 137 107 Q137 121 140 140 Z" /><glyph glyph-name="uni4E1C" unicode="&#x4e1c;" d="M208 610 Q318 610 418 607 Q450 664 490 728 Q520 717 553 698 Q526 645 504 605 Q680 599 864 586 L864 555 Q864 534 860 520 Q631 520 462 526 Q415 436 372 361 Q454 357 536 351 Q534 401 533 453 Q569 458 605 458 Q611 408 616 347 Q711 342 814 335 Q814 303 807 273 Q699 274 620 276 Q628 163 636 -5 Q619 -17 591 -17 Q540 -17 504 -12 Q496 14 496 48 Q529 48 552 50 Q544 173 539 279 Q335 287 260 310 Q298 393 367 520 Q372 528 373 529 Q287 534 208 540 Q202 550 202 575 Q202 590 208 610 ZM275 189 Q318 178 344 149 Q312 90 256 27 Q216 37 194 64 Q221 124 275 189 ZM771 215 Q836 181 907 128 Q896 100 871 67 Q796 98 731 152 Q752 187 771 215 Z" /><glyph glyph-name="uni4E2D" unicode="&#x4e2d;" d="M586 570 Q761 570 857 566 Q876 540 878 338 Q878 188 872 149 Q769 119 559 116 Q559 45 559 -54 Q547 -64 519 -64 Q492 -64 477 -58 Q470 18 467 115 Q214 116 135 143 Q129 222 129 354 Q129 427 138 556 L218 556 Q213 363 213 209 Q293 194 465 194 Q464 250 464 317 Q464 389 465 488 Q380 484 309 484 L309 559 Q394 565 466 568 Q467 619 468 685 Q493 690 513 690 Q533 690 556 685 Q556 617 556 569 Q569 570 586 570 ZM556 492 Q557 359 557 315 Q558 282 558 195 Q758 200 795 212 L795 349 Q795 383 785 488 Q732 490 563 492 Q557 492 556 492 Z" /><glyph glyph-name="uni4E3D" unicode="&#x4e3d;" d="M110 708 Q495 698 881 682 Q888 662 888 641 Q888 625 881 605 Q489 609 110 630 Q104 653 104 669 Q104 688 110 708 ZM529 473 Q571 471 604 466 Q597 231 583 -1 Q543 3 508 8 Q516 248 529 473 ZM630 527 Q730 527 843 519 Q843 188 830 -25 Q712 -25 689 -9 Q689 14 691 37 Q733 37 757 35 Q759 256 761 454 Q697 456 628 462 Q625 479 625 494 Q625 514 630 527 ZM670 323 Q703 283 728 236 Q703 214 669 198 Q634 238 611 284 Q636 304 670 323 ZM149 473 Q190 471 223 466 Q216 231 202 -1 Q163 3 127 8 Q136 248 149 473 ZM249 527 Q349 527 463 519 Q463 188 450 -25 Q331 -25 308 -9 Q308 14 310 37 Q352 37 377 35 Q378 256 380 454 Q316 456 247 462 Q244 479 244 494 Q244 514 249 527 ZM289 323 Q322 283 347 236 Q322 214 288 198 Q253 238 230 284 Q255 304 289 323 Z" /><glyph glyph-name="uni4E4B" unicode="&#x4e4b;" d="M385 697 Q505 659 617 614 Q607 575 590 539 Q468 572 360 621 Q370 665 385 697 ZM210 454 Q494 452 777 417 Q744 241 687 72 Q649 77 611 94 Q642 223 672 345 Q445 364 207 383 Q207 417 210 454 ZM351 116 Q548 46 740 -26 Q730 -62 714 -90 Q536 -41 387 14 Q357 -33 319 -82 Q277 -65 254 -39 Q297 38 351 116 Z" /><glyph glyph-name="uni4E58" unicode="&#x4e58;" d="M773 701 Q776 664 776 633 Q661 619 554 610 Q555 567 556 525 Q716 519 883 507 Q883 471 876 436 Q710 436 558 441 Q563 202 563 -68 Q548 -74 526 -74 Q509 -74 488 -71 Q471 71 471 310 Q471 388 472 443 Q315 449 154 461 Q154 501 162 533 Q324 533 473 528 Q474 576 476 605 Q373 597 260 592 Q252 622 252 661 Q519 686 773 701 ZM706 268 Q701 240 695 213 Q759 200 834 189 Q834 157 823 127 Q713 130 612 163 Q629 283 660 406 Q700 403 733 396 Q726 361 721 336 Q789 331 871 318 Q871 291 864 256 Q774 256 706 268 ZM395 117 Q424 89 438 55 Q356 -7 250 -66 Q219 -39 205 -7 Q287 57 395 117 ZM679 88 Q748 50 816 7 Q804 -22 775 -53 Q700 -21 641 18 Q659 55 679 88 ZM174 353 Q246 349 308 339 Q311 371 316 410 Q337 413 355 413 Q380 411 390 405 Q385 267 369 126 Q356 122 330 122 Q308 122 292 129 Q293 145 293 152 Q239 146 166 142 Q159 171 155 210 Q226 220 297 226 Q299 249 301 270 Q236 272 172 290 Q172 321 174 353 Z" /><glyph glyph-name="uni4E5D" unicode="&#x4e5d;" d="M142 514 Q271 506 390 494 Q427 579 469 668 Q514 661 543 639 Q513 558 484 485 Q643 471 808 450 Q802 260 776 70 Q826 63 885 56 Q885 20 873 -14 Q763 -5 687 12 Q700 197 720 376 Q585 388 450 403 Q364 187 256 -30 Q215 -27 179 2 Q263 213 352 414 Q248 425 135 440 Q135 475 142 514 Z" /><glyph glyph-name="uni4E8C" unicode="&#x4e8c;" d="M201 122 Q520 122 835 99 L835 63 Q835 40 830 23 Q435 23 200 42 Q194 53 194 82 Q194 99 201 122 ZM265 582 Q524 573 790 561 L790 523 Q790 497 784 476 Q525 478 259 494 Q254 514 254 539 Q254 560 265 582 Z" /><glyph glyph-name="uni4E8E" unicode="&#x4e8e;" d="M239 651 Q481 651 804 629 Q804 597 797 560 Q513 560 236 583 L236 619 Q236 634 239 651 ZM876 322 Q882 283 882 249 Q730 235 591 226 Q604 87 607 -62 Q555 -82 447 -82 Q436 -52 436 -22 Q481 -16 520 -7 Q513 108 504 221 Q342 212 171 206 Q162 238 162 279 Q338 292 499 302 Q491 399 481 501 Q513 509 557 509 Q573 404 584 306 Q728 316 876 322 Z" /><glyph glyph-name="uni4E92" unicode="&#x4e92;" d="M840 12 Q843 -2 843 -20 L843 -52 Q551 -77 267 -77 Q260 -43 260 -7 Q465 7 679 11 Q680 186 689 296 Q642 296 568 308 Q470 315 437 324 Q437 362 440 390 Q602 386 775 360 Q765 330 765 168 Q763 53 758 11 Q795 12 840 12 ZM171 654 Q517 654 859 634 L859 600 Q859 578 855 564 Q426 564 169 580 Q164 592 164 617 Q164 635 171 654 ZM298 485 Q313 485 341 480 Q370 471 376 465 Q338 312 305 198 Q401 172 527 151 Q525 112 515 84 Q286 105 210 148 Q223 226 298 485 Z" /><glyph glyph-name="uni4E9B" unicode="&#x4e9b;" d="M428 491 Q430 417 431 342 L502 342 Q507 324 507 311 Q507 295 505 281 Q477 267 385 267 Q225 267 163 276 Q153 312 151 443 Q153 499 159 565 Q180 569 199 569 Q214 569 238 565 Q241 444 241 342 L351 342 Q335 511 335 691 Q356 694 378 696 Q399 696 418 693 Q423 623 425 561 Q480 562 558 562 Q570 562 577 557 Q579 545 579 529 L579 502 Q576 487 556 487 Q471 487 428 491 ZM765 527 Q841 527 887 525 Q892 509 892 492 Q892 477 890 461 Q847 455 761 455 Q738 455 727 456 Q729 406 731 359 Q746 360 774 360 L823 360 Q826 344 826 328 L826 298 Q818 288 745 288 Q684 288 657 292 Q645 304 645 602 Q664 607 681 607 Q698 607 720 604 Q722 561 724 526 Q738 527 765 527 ZM552 183 Q645 183 705 176 Q710 165 710 142 Q710 119 705 109 Q688 103 552 103 Q379 103 360 109 Q355 125 355 144 Q355 163 362 180 Q450 183 552 183 ZM759 17 Q764 3 764 -17 Q764 -40 761 -53 Q538 -67 303 -71 Q299 -36 299 0 Q504 11 759 17 Z" /><glyph glyph-name="uni4EA4" unicode="&#x4ea4;" d="M538 694 Q556 694 576 687 Q576 633 569 578 Q716 571 871 564 L871 532 Q871 511 866 493 Q514 497 154 522 Q149 538 149 560 Q149 576 158 595 Q327 588 487 581 Q488 649 498 691 Q517 694 538 694 ZM665 452 Q765 397 863 332 Q850 304 823 275 Q714 324 628 386 Q644 422 665 452 ZM293 466 Q328 452 355 433 Q295 324 211 205 Q174 218 147 242 Q223 370 293 466 ZM667 245 Q697 228 718 200 Q666 127 590 46 Q658 -8 731 -69 Q719 -102 684 -127 Q598 -70 527 -15 Q471 -72 395 -138 Q361 -120 346 -88 Q405 -18 458 40 Q389 96 323 163 Q343 196 368 219 Q447 159 518 103 Q589 177 667 245 Z" /><glyph glyph-name="uni4EA6" unicode="&#x4ea6;" d="M180 558 Q332 558 471 553 Q473 635 483 686 Q505 688 526 688 Q548 688 569 681 Q569 616 562 550 Q710 543 863 532 Q863 494 856 458 Q761 458 679 460 Q707 219 717 -39 Q654 -63 555 -63 Q542 -37 540 5 Q591 14 633 17 Q613 240 596 462 Q526 464 459 467 Q446 229 411 -18 Q399 -24 372 -24 Q350 -24 333 -16 Q345 246 378 470 Q280 475 172 482 Q172 524 180 558 ZM260 334 Q294 310 319 278 Q297 248 260 208 Q243 188 221 165 Q199 137 171 115 Q139 137 120 168 Q187 256 260 334 ZM810 326 Q869 255 915 169 Q891 146 855 131 Q794 205 752 289 Q776 309 810 326 Z" /><glyph glyph-name="uni4EA7" unicode="&#x4ea7;" d="M305 669 Q418 666 519 662 Q521 709 531 741 Q551 743 571 743 Q590 743 610 736 Q610 696 605 659 Q703 654 809 649 Q809 618 798 577 Q557 577 297 594 Q297 635 305 669 ZM302 348 Q344 346 377 338 Q357 175 302 -28 Q258 -24 225 -11 Q247 172 302 348 ZM265 446 Q346 446 421 444 Q385 482 355 533 Q381 555 417 574 Q469 521 509 460 Q494 445 490 442 Q531 441 583 439 Q600 506 655 572 Q687 564 719 549 Q703 477 668 436 Q746 433 842 428 Q842 393 835 353 Q546 353 262 373 L262 413 Q262 428 265 446 Z" /><glyph glyph-name="uni4ECB" unicode="&#x4ecb;" d="M578 713 Q611 689 629 656 Q603 638 587 624 Q757 510 936 381 Q923 355 885 323 Q691 435 518 572 Q336 436 150 297 Q112 325 100 356 Q311 547 578 713 ZM722 367 Q750 138 753 -74 Q737 -80 717 -80 Q695 -80 681 -77 Q650 145 646 361 Q668 367 684 367 L722 367 ZM332 360 Q370 360 404 351 Q404 305 375 146 Q357 46 327 -56 Q291 -56 257 -49 Q257 89 332 360 Z" /><glyph glyph-name="uni4ECE" unicode="&#x4ece;" d="M655 186 Q619 80 573 -36 Q535 -30 507 -7 Q602 320 714 619 Q756 611 785 594 Q738 428 684 268 Q799 172 917 59 Q906 26 870 1 Q748 89 655 186 ZM260 223 Q219 127 169 20 Q130 26 103 51 Q206 343 327 609 Q369 601 398 582 Q348 438 292 299 Q378 244 470 173 Q464 156 454 142 Q446 128 434 113 Q337 152 260 223 Z" /><glyph glyph-name="uni4ED3" unicode="&#x4ed3;" d="M281 417 Q491 405 706 386 Q706 263 693 156 Q637 148 566 148 Q529 148 500 154 Q498 186 498 213 Q571 215 622 215 Q624 264 628 323 Q505 331 393 339 Q375 204 353 67 Q530 46 727 30 Q727 -4 716 -37 Q480 -30 267 15 Q284 182 314 344 Q298 345 272 347 Q274 388 281 417 ZM559 721 Q583 696 593 661 Q578 653 574 650 Q720 577 861 486 Q848 458 823 430 Q660 508 501 607 Q343 513 175 426 Q155 453 140 489 Q349 620 559 721 Z" /><glyph glyph-name="uni4ED6" unicode="&#x4ed6;" d="M923 438 Q927 347 927 250 Q897 248 850 248 Q846 308 844 362 Q805 360 768 358 Q766 268 757 190 Q744 184 718 184 Q696 184 684 190 Q680 270 679 354 Q613 351 550 349 Q553 209 556 69 Q633 69 728 68 L728 33 Q728 11 723 -5 Q570 -5 483 -1 Q472 170 469 347 Q442 346 409 345 Q402 383 402 421 Q439 423 468 426 Q467 482 467 548 Q505 553 546 553 Q547 486 549 430 Q612 433 679 435 Q680 518 684 613 Q705 618 724 618 Q744 618 763 613 Q768 514 769 437 Q839 438 923 438 ZM363 481 Q380 452 380 415 Q311 389 253 372 Q286 238 301 88 Q266 78 227 78 Q192 217 173 350 Q133 340 85 331 Q72 360 72 394 Q218 467 363 481 Z" /><glyph glyph-name="uni4EE3" unicode="&#x4ee3;" d="M617 512 Q646 445 672 389 Q731 403 800 417 Q816 382 816 342 Q759 323 709 310 Q767 191 832 75 Q862 88 899 105 Q926 79 930 52 Q871 5 799 -15 Q697 127 625 290 Q545 269 458 252 Q440 288 436 324 Q515 350 591 369 Q568 422 547 483 Q579 502 617 512 ZM792 620 Q845 566 886 501 Q859 477 824 461 Q768 517 730 581 Q757 602 792 620 ZM341 481 Q363 453 365 421 Q318 389 270 368 Q292 242 302 102 Q268 92 229 92 Q206 219 193 339 Q162 329 118 318 Q94 342 85 380 Q198 443 341 481 Z" /><glyph glyph-name="uni4EEC" unicode="&#x4eec;" d="M305 523 Q328 495 330 463 Q287 433 243 413 Q268 291 280 154 Q247 144 208 144 Q181 267 167 382 Q139 372 99 363 Q77 386 69 423 Q173 485 305 523 ZM497 714 Q553 686 610 651 Q603 632 593 618 Q585 603 571 586 Q509 606 455 648 Q470 686 497 714 ZM705 614 Q802 607 901 589 Q907 422 907 297 Q907 117 897 16 Q855 14 819 14 Q782 14 751 18 Q743 32 743 49 Q743 63 746 76 Q791 78 825 78 Q827 302 827 525 Q769 533 701 549 L701 581 Q701 593 705 614 ZM424 475 Q441 475 458 471 Q464 263 464 23 Q449 18 430 18 Q414 18 394 21 Q387 111 387 260 Q387 418 390 471 Q407 475 424 475 Z" /><glyph glyph-name="uni4F11" unicode="&#x4f11;" d="M615 322 L615 428 Q526 432 430 440 Q430 483 439 519 Q532 519 616 515 Q617 606 621 651 Q638 656 657 656 Q677 656 694 651 Q696 578 697 512 Q787 506 883 495 Q883 458 875 421 Q782 421 699 424 Q703 213 703 -26 Q687 -32 667 -32 Q648 -32 628 -29 Q618 78 616 225 Q519 136 409 50 Q386 78 372 114 Q495 232 615 322 ZM759 300 Q848 264 933 221 Q924 190 902 159 Q800 186 728 233 Q741 271 759 300 ZM341 485 Q363 457 365 425 Q318 392 269 371 Q292 242 302 102 Q268 92 229 92 Q206 219 193 339 Q163 329 122 318 Q98 342 90 380 Q200 445 341 485 Z" /><glyph glyph-name="uni4F1A" unicode="&#x4f1a;" d="M592 798 Q624 774 641 743 Q614 725 596 713 Q727 619 870 509 Q857 484 819 453 Q664 548 524 667 Q331 540 134 411 Q96 439 87 468 Q310 644 592 798 ZM364 484 Q488 484 652 466 Q652 433 645 394 Q502 394 361 413 L361 451 Q361 466 364 484 ZM798 282 Q803 263 803 246 L803 209 Q622 199 448 194 Q427 125 410 51 L530 51 Q582 51 655 55 Q663 29 663 2 Q612 -23 492 -23 Q351 -19 312 -9 Q333 97 365 191 Q287 188 200 186 Q194 224 194 261 Q346 268 495 273 Q642 279 798 282 ZM753 142 Q789 97 802 10 Q772 -6 741 -10 Q702 46 695 126 Q720 138 753 142 Z" /><glyph glyph-name="uni4F20" unicode="&#x4f20;" d="M355 529 Q371 501 371 464 Q303 438 246 421 Q278 293 294 145 Q260 135 222 135 Q187 270 168 401 Q129 390 83 382 Q70 411 70 444 Q213 515 355 529 ZM450 622 Q539 622 619 618 Q640 678 663 742 Q703 736 733 721 Q721 662 707 613 Q787 608 874 597 Q874 564 868 532 Q771 532 686 536 Q676 503 664 469 Q659 454 656 446 Q776 456 911 461 Q916 443 916 427 L916 392 Q769 375 628 365 Q625 355 620 343 Q609 316 600 287 Q719 283 854 260 Q824 156 754 37 Q780 24 810 8 Q801 -22 782 -53 Q665 -20 586 35 Q599 72 616 100 Q655 85 684 71 Q714 131 742 194 Q649 202 571 214 Q571 214 567 210 Q531 218 497 233 Q518 303 535 359 Q465 354 384 351 Q378 387 378 421 Q472 432 560 439 Q577 493 594 541 Q522 546 443 554 Q443 591 450 622 Z" /><glyph glyph-name="uni4F5C" unicode="&#x4f5c;" d="M354 481 Q371 452 371 415 Q300 388 244 372 Q276 238 292 88 Q258 78 218 78 Q182 217 165 350 Q124 340 77 331 Q63 360 63 394 Q209 467 354 481 ZM552 687 Q592 683 628 665 Q602 598 576 539 Q749 538 929 522 Q929 486 923 451 Q792 451 679 458 Q680 395 682 332 Q754 330 855 321 Q855 289 848 253 Q759 253 683 261 Q684 197 684 133 Q771 139 875 139 Q878 124 878 107 L878 75 Q775 62 684 60 Q685 -4 685 -78 Q669 -83 647 -83 Q630 -83 608 -81 Q599 35 599 227 Q599 393 602 462 Q572 464 544 466 Q501 368 449 268 Q409 279 378 300 Q455 494 552 687 Z" /><glyph glyph-name="uni503E" unicode="&#x503e;" d="M540 460 Q547 428 549 392 Q489 376 431 368 Q437 282 443 195 Q495 195 560 192 Q565 178 565 163 Q565 146 563 128 Q523 122 471 122 Q419 122 369 129 Q345 329 345 578 Q367 585 380 585 Q401 585 417 580 Q422 508 427 442 Q477 451 540 460 ZM305 523 Q328 495 330 463 Q287 433 243 413 Q268 291 280 154 Q247 144 208 144 Q181 267 167 382 Q139 372 99 363 Q77 386 69 423 Q173 485 305 523 ZM580 703 Q737 697 892 667 Q892 638 886 610 Q816 610 757 616 Q740 549 727 516 Q684 516 658 533 Q667 588 680 624 Q630 630 573 642 Q573 673 580 703 ZM580 493 Q615 493 653 488 Q653 326 641 178 Q606 178 568 183 Q568 334 580 493 ZM682 509 Q789 507 905 491 Q905 321 897 188 Q880 184 863 184 Q842 184 828 193 L828 427 Q757 430 682 446 Q677 459 677 477 Q677 492 682 509 ZM734 371 Q774 363 803 346 Q773 244 741 151 Q808 115 872 53 Q865 27 843 -2 Q780 25 715 77 Q695 22 670 -40 Q634 -34 607 -12 Q665 188 734 371 Z" /><glyph glyph-name="uni5149" unicode="&#x5149;" d="M806 556 Q830 522 841 488 Q780 443 712 428 Q686 461 675 492 Q738 533 806 556 ZM848 306 Q854 289 854 266 Q854 238 850 222 Q527 202 189 198 Q182 237 182 278 Q324 286 470 293 Q465 376 465 474 Q465 579 471 696 Q493 701 512 701 Q535 701 554 696 Q560 577 560 480 Q560 376 553 296 Q690 302 848 306 ZM171 528 Q242 520 322 477 Q315 443 297 414 Q213 420 150 463 Q157 498 171 528 ZM591 103 Q605 103 629 98 Q623 27 623 -25 L716 -25 L716 23 Q738 26 749 26 Q765 26 783 23 Q787 -5 787 -31 Q787 -65 782 -82 Q742 -93 656 -93 Q571 -93 542 -81 Q542 8 549 100 Q564 103 591 103 ZM325 98 Q360 89 398 71 Q371 -12 320 -98 Q279 -89 250 -67 Q284 21 325 98 Z" /><glyph glyph-name="uni5165" unicode="&#x5165;" d="M361 581 Q640 352 892 102 Q871 66 838 45 Q671 180 528 311 Q432 179 244 3 Q204 23 190 59 Q325 233 465 370 Q384 445 305 525 Q332 559 361 581 Z" /><glyph glyph-name="uni516C" unicode="&#x516c;" d="M391 641 Q427 619 450 587 Q359 471 162 318 Q120 340 104 378 Q240 523 391 641 ZM778 145 Q801 106 816 72 Q832 38 846 7 Q813 -17 771 -25 Q728 43 703 115 Q742 135 778 145 ZM474 348 Q511 335 550 311 Q476 157 415 38 Q529 29 657 17 Q657 -21 649 -56 Q356 -52 280 -21 Q311 52 370 164 Q415 249 474 348 ZM669 665 Q796 559 918 446 Q894 410 853 391 Q714 491 607 610 Q627 650 669 665 Z" /><glyph glyph-name="uni5176" unicode="&#x5176;" d="M871 215 Q876 198 876 180 Q876 155 873 141 Q521 122 151 118 Q146 152 146 189 Q227 193 302 196 Q304 369 319 547 Q224 548 173 554 Q168 572 168 590 Q168 607 171 622 Q240 624 324 624 Q327 662 331 708 Q364 708 398 703 Q398 659 397 624 Q539 624 636 621 Q637 662 639 709 Q659 714 679 714 Q699 714 718 709 Q721 658 722 619 Q775 617 819 614 Q820 598 820 582 L820 549 Q796 548 724 548 L724 509 Q724 339 717 211 Q788 213 871 215 ZM395 547 Q394 499 392 454 Q404 455 427 455 Q501 455 546 452 Q551 436 551 420 Q551 405 548 390 Q507 384 423 384 Q399 384 389 385 Q387 361 385 340 Q462 347 540 347 Q545 333 545 317 Q545 301 540 288 Q497 276 380 267 Q377 232 373 199 Q502 204 641 209 Q634 342 634 503 Q634 527 635 547 L395 547 ZM348 114 Q385 105 424 88 Q393 6 338 -78 Q295 -69 266 -44 Q303 41 348 114 ZM731 88 Q777 34 814 -29 Q787 -53 752 -71 Q702 -15 668 47 Q694 67 731 88 Z" /><glyph glyph-name="uni5192" unicode="&#x5192;" d="M430 331 Q612 329 782 318 Q796 243 796 110 Q796 -21 789 -84 Q689 -102 420 -102 Q324 -102 259 -89 Q251 -17 248 87 Q248 182 257 299 L330 299 L330 219 Q423 217 546 201 Q546 168 535 140 Q404 140 330 150 Q330 127 331 105 Q433 104 564 89 Q564 55 553 26 Q412 26 331 37 Q332 4 332 -25 Q364 -30 409 -30 Q638 -30 712 -23 Q712 26 708 251 Q564 257 423 266 Q423 300 430 331 ZM240 683 Q259 683 279 676 Q279 547 269 388 Q253 383 227 383 Q201 383 188 393 Q188 580 198 680 Q219 683 240 683 ZM349 692 Q593 692 828 686 Q840 527 840 384 Q824 379 805 379 Q792 379 765 381 Q757 460 750 618 Q557 618 351 625 Q346 642 346 660 Q346 674 349 692 ZM570 462 Q652 462 705 454 Q711 444 711 425 Q711 403 706 395 Q691 390 570 390 Q342 390 319 395 Q314 408 314 426 Q314 443 322 458 Q435 462 570 462 ZM572 572 Q654 572 709 566 Q713 555 713 535 Q713 515 709 507 Q693 501 572 501 Q345 501 322 507 Q318 520 318 537 Q318 553 323 569 Q438 572 572 572 Z" /><glyph glyph-name="uni51B0" unicode="&#x51b0;" d="M667 652 Q699 319 704 -25 Q660 -40 568 -40 Q559 -15 559 10 Q592 16 619 20 Q607 325 591 645 Q623 652 667 652 ZM332 414 Q524 356 553 338 Q526 277 486 214 Q420 101 388 74 Q346 92 328 120 Q387 216 439 301 Q399 314 307 344 Q317 386 332 414 ZM881 457 Q914 435 927 403 Q873 347 809 306 Q777 330 760 357 Q808 415 881 457 ZM811 208 Q870 173 931 130 Q924 112 915 99 Q907 85 894 70 Q830 94 772 144 Q786 180 811 208 ZM241 192 L271 192 L271 120 Q214 107 117 107 Q110 145 110 182 Q159 190 241 192 ZM119 522 Q199 522 294 499 Q294 459 280 426 Q170 426 109 451 Q109 485 119 522 Z" /><glyph glyph-name="uni51B7" unicode="&#x51b7;" d="M613 711 Q654 694 688 671 Q670 644 654 622 Q809 551 957 462 Q944 431 918 401 Q759 472 607 559 Q582 525 552 488 Q506 433 460 377 Q414 316 371 272 Q331 289 308 315 Q479 551 613 711 ZM540 408 Q664 404 784 384 Q784 351 777 319 Q654 319 533 341 Q533 376 540 408 ZM535 178 Q487 182 433 186 Q433 224 440 261 Q654 246 883 228 Q883 165 881 109 Q881 62 873 -14 Q824 -14 777 -17 Q747 -13 717 -10 Q712 14 712 40 Q758 46 795 46 Q795 105 799 159 Q707 165 618 172 Q628 37 634 -98 Q596 -106 555 -106 Q541 40 535 178 ZM241 192 L271 192 L271 120 Q214 107 117 107 Q110 145 110 182 Q159 190 241 192 ZM119 505 Q199 505 294 482 Q294 441 280 408 Q170 408 109 434 Q109 469 119 505 Z" /><glyph glyph-name="uni51C6" unicode="&#x51c6;" d="M241 192 L271 192 L271 120 Q214 107 117 107 Q110 145 110 182 Q159 190 241 192 ZM119 505 Q199 505 294 482 Q294 441 280 408 Q170 408 109 434 Q109 469 119 505 ZM690 56 L713 56 Q708 95 704 130 Q660 128 611 128 Q603 162 603 195 Q653 201 695 205 Q691 249 688 291 Q615 296 538 306 L538 343 Q538 356 541 374 Q612 374 684 370 Q682 391 682 417 Q704 423 720 423 L758 423 Q763 389 766 365 Q809 362 864 357 Q864 323 858 286 Q811 286 774 287 Q778 249 781 212 Q831 216 893 219 Q898 185 898 148 Q836 139 786 135 Q788 95 789 56 Q834 55 871 54 Q876 37 876 18 Q876 3 874 -14 Q813 -22 686 -22 Q636 -22 608 -17 Q601 -1 601 16 Q601 35 606 52 Q629 56 690 56 ZM591 538 Q655 538 716 535 Q709 579 706 629 Q743 637 786 637 Q796 579 801 532 Q852 529 917 524 Q917 489 910 451 Q749 451 590 470 L590 507 Q590 521 591 538 ZM387 329 Q359 309 323 286 Q289 306 275 344 Q377 432 517 517 Q548 497 565 463 Q511 418 462 382 Q484 234 494 73 Q461 60 422 60 Q399 200 387 329 Z" /><glyph glyph-name="uni51FA" unicode="&#x51fa;" d="M208 596 Q246 596 283 591 Q283 469 280 403 Q368 398 457 394 Q456 428 456 465 Q456 563 462 671 Q481 677 501 677 Q521 677 540 671 Q546 561 546 471 L546 391 Q622 388 710 386 Q710 351 704 315 Q603 315 545 316 Q544 165 539 39 Q629 34 730 32 Q730 -2 726 -38 Q498 -38 431 -31 Q259 -27 167 -13 L167 56 Q167 136 176 221 Q215 221 253 216 Q253 107 251 50 Q357 45 465 41 Q459 173 457 319 Q448 320 439 321 Q283 326 199 340 L199 409 Q199 501 208 596 ZM824 208 Q842 115 843 43 Q820 31 771 31 Q750 105 750 200 Q787 208 824 208 ZM803 599 Q817 479 818 386 Q798 374 748 374 Q726 470 726 592 Q764 599 803 599 Z" /><glyph glyph-name="uni51FB" unicode="&#x51fb;" d="M172 275 Q210 275 247 270 Q247 164 245 108 Q349 103 454 99 Q449 207 447 326 Q288 333 120 346 Q115 362 115 383 Q115 400 124 418 Q289 412 446 405 Q445 457 445 513 Q445 531 446 544 Q339 548 221 556 Q221 594 229 625 Q345 622 447 617 Q448 662 451 715 Q470 720 489 720 Q509 720 527 715 Q530 659 531 614 Q624 610 724 604 Q724 575 715 538 Q621 538 533 541 L533 519 Q533 456 533 401 Q686 394 849 385 L849 354 Q849 332 844 315 Q684 316 532 323 Q530 201 526 97 Q614 93 713 91 Q713 57 709 22 Q486 22 421 28 Q253 32 163 46 L163 114 Q163 192 172 275 ZM805 262 Q822 172 823 101 Q802 89 753 89 Q732 162 732 255 Q769 262 805 262 Z" /><glyph glyph-name="uni521B" unicode="&#x521b;" d="M328 603 Q227 515 116 436 Q85 456 74 489 Q197 612 371 730 Q399 714 415 681 Q396 664 385 654 Q481 567 574 468 Q556 436 525 414 Q416 510 328 603 ZM174 420 Q328 408 483 388 Q483 263 471 153 Q435 146 390 146 Q355 146 325 151 Q323 183 323 210 Q370 212 399 212 Q401 264 405 326 Q334 333 271 340 Q255 217 237 93 Q353 79 485 68 Q485 32 473 -3 Q304 2 151 37 Q166 194 192 348 Q182 349 164 352 Q166 393 174 420 ZM687 488 Q699 355 705 230 Q670 223 635 223 Q617 352 613 481 Q647 488 687 488 ZM854 577 Q882 246 882 103 Q850 92 812 92 Q777 92 746 97 Q738 121 738 146 Q766 154 799 154 Q789 362 782 570 Q817 577 854 577 Z" /><glyph glyph-name="uni5229" unicode="&#x5229;" d="M514 641 Q530 610 530 570 Q316 529 124 512 Q110 543 110 578 Q313 630 514 641 ZM102 380 Q197 377 283 373 Q284 436 288 506 Q307 511 327 511 Q347 511 365 506 Q370 430 371 370 Q451 368 540 365 L540 334 Q540 311 534 294 Q447 295 372 297 L372 231 Q439 209 515 188 Q515 158 505 118 Q427 129 371 148 Q369 57 365 -27 Q353 -33 327 -33 Q304 -33 294 -27 Q287 56 285 136 Q229 101 116 58 Q96 85 90 114 Q182 190 283 230 Q282 263 282 299 L282 299 Q194 301 97 306 Q92 320 92 344 Q92 360 102 380 ZM667 435 Q682 291 690 154 Q653 147 616 147 Q593 288 587 428 Q624 435 667 435 ZM845 530 Q879 289 892 27 Q831 6 766 6 Q758 29 755 60 Q786 68 811 72 Q790 286 767 518 Q802 526 845 530 Z" /><glyph glyph-name="uni5230" unicode="&#x5230;" d="M702 381 Q712 254 717 133 Q679 127 640 127 Q627 250 623 373 Q659 381 702 381 ZM865 457 Q895 160 895 30 Q861 18 821 18 Q792 18 766 23 Q757 48 757 73 Q781 84 808 84 Q797 267 791 449 Q826 457 865 457 ZM171 165 Q230 165 288 161 Q291 189 294 222 Q315 225 334 225 Q357 223 369 217 Q367 183 365 158 Q419 155 487 149 Q487 118 481 84 Q416 84 362 87 Q359 47 355 10 Q404 8 445 4 Q449 -7 449 -28 Q449 -48 445 -56 Q429 -64 305 -64 Q198 -64 184 -56 Q180 -43 180 -26 Q180 -9 186 7 Q232 9 277 10 Q279 53 283 91 Q228 95 168 102 L168 136 Q168 148 171 165 ZM145 621 Q335 613 529 601 L529 568 Q529 547 524 528 Q404 530 295 536 Q276 443 260 349 Q312 342 447 325 Q452 311 452 296 Q452 281 447 262 Q281 262 154 294 Q174 430 212 542 Q180 545 140 548 Q135 564 135 586 Q135 603 145 621 ZM516 454 Q543 412 553 333 Q521 314 487 311 Q457 362 452 436 Q478 449 516 454 Z" /><glyph glyph-name="uni524D" unicode="&#x524d;" d="M680 332 Q700 216 702 124 Q681 111 632 111 Q604 206 604 325 Q642 332 680 332 ZM832 414 Q876 190 884 -28 Q843 -43 727 -43 Q720 -14 720 20 Q761 22 794 24 Q776 215 758 403 Q790 410 832 414 ZM282 409 Q383 409 499 396 Q499 122 484 -56 Q351 -56 326 -37 Q326 -10 328 15 Q377 15 407 13 Q409 180 411 331 Q346 335 279 344 Q277 361 277 377 Q277 397 282 409 ZM231 193 Q229 177 227 159 Q288 156 366 139 Q366 104 356 77 Q268 77 219 88 Q213 30 204 -35 Q164 -30 127 -25 Q143 188 169 389 Q212 387 247 382 Q243 318 236 262 Q293 261 366 251 Q366 216 356 187 Q276 187 231 193 ZM176 565 Q395 560 607 553 Q624 630 672 704 Q709 696 743 680 Q730 599 700 551 Q782 548 876 544 L876 511 Q876 486 870 469 Q525 471 171 487 Q166 505 166 527 Q166 546 176 565 ZM373 704 Q413 665 427 589 Q392 569 356 565 Q312 614 305 685 Q334 698 373 704 Z" /><glyph glyph-name="uni5267" unicode="&#x5267;" d="M704 480 Q718 347 726 221 Q690 215 654 215 Q633 344 627 473 Q663 480 704 480 ZM852 587 Q886 350 898 96 Q840 74 777 74 Q769 97 766 126 Q796 135 820 139 Q798 347 777 574 Q810 582 852 587 ZM194 724 Q337 724 565 711 Q575 667 575 590 Q575 510 561 485 Q534 465 454 465 Q319 465 238 470 Q203 296 156 138 L113 144 Q98 148 84 155 Q115 366 198 613 Q231 610 262 597 Q256 560 251 533 Q372 535 490 536 Q490 591 489 645 Q359 647 188 656 Q188 696 194 724 ZM430 439 Q448 439 467 433 Q467 396 465 364 Q527 360 596 354 Q596 326 587 290 Q520 290 461 294 Q458 257 454 221 Q495 223 546 223 Q563 123 563 18 Q436 -4 283 -7 Q258 59 252 200 Q316 211 375 216 Q376 262 378 298 Q310 303 235 312 Q235 347 242 377 Q318 374 383 369 Q386 405 393 438 Q411 439 430 439 ZM349 62 L484 73 L474 154 L337 145 L349 62 Z" /><glyph glyph-name="uni5288" unicode="&#x5288;" d="M737 724 Q757 724 776 716 Q776 681 772 646 Q836 643 915 637 Q915 607 909 574 Q723 574 540 592 L540 624 Q540 637 543 653 Q615 653 687 650 Q689 691 697 722 Q718 724 737 724 ZM639 579 Q669 550 679 489 Q647 471 614 468 Q581 507 576 561 Q602 574 639 579 ZM798 566 Q838 563 865 545 Q841 481 824 449 Q871 445 928 437 Q928 408 922 381 Q718 381 514 409 Q514 440 520 469 Q637 466 746 456 Q765 516 798 566 ZM878 337 Q886 309 888 275 Q826 266 775 261 Q780 221 784 177 Q765 173 746 171 Q733 169 708 169 Q695 215 689 253 Q626 248 552 244 Q546 268 542 304 Q613 312 679 318 Q676 340 674 367 Q708 374 748 380 Q757 348 762 326 Q815 331 878 337 ZM163 700 Q272 700 375 699 Q430 695 474 684 Q486 647 486 531 Q486 488 470 481 Q436 465 269 465 Q260 476 260 494 Q260 512 264 525 Q301 529 404 534 Q404 559 407 620 Q328 622 160 637 Q159 655 159 668 Q159 685 163 700 ZM183 596 Q224 588 257 569 Q188 355 143 267 Q97 274 70 297 Q125 455 183 596 ZM471 398 Q486 308 486 214 Q384 193 260 192 Q238 252 233 378 Q343 398 471 398 ZM322 253 L414 262 L404 338 L312 330 L322 253 ZM352 72 Q301 75 239 79 L239 114 Q239 127 244 146 Q513 146 781 134 Q781 4 762 -106 Q691 -106 607 -95 Q605 -78 605 -67 Q605 -51 608 -41 Q656 -39 689 -39 Q691 3 691 61 Q566 62 444 68 Q401 -22 327 -118 Q288 -109 260 -85 Q306 4 352 72 Z" /><glyph glyph-name="uni529B" unicode="&#x529b;" d="M134 502 Q279 498 416 492 Q459 573 504 652 Q543 648 580 624 Q561 574 516 487 Q673 478 841 466 Q856 315 856 20 Q841 13 779 13 Q714 13 673 25 Q671 40 671 57 Q671 71 674 87 Q727 86 768 84 Q765 250 755 387 Q615 394 473 403 Q473 402 471 401 Q434 322 378 222 Q349 172 323 119 Q298 59 249 -7 Q214 6 178 33 Q280 236 372 410 Q257 418 128 428 Q126 454 126 470 Q126 481 134 502 Z" /><glyph glyph-name="uni52A0" unicode="&#x52a0;" d="M323 619 Q367 611 399 592 Q378 528 358 475 Q438 467 528 452 Q530 357 530 279 Q530 183 516 122 Q450 113 360 113 Q352 146 352 181 Q401 184 445 186 Q447 252 447 377 Q386 384 329 391 Q260 209 174 20 Q132 26 103 52 Q166 237 234 404 Q170 413 100 423 Q98 439 98 461 Q98 476 104 495 Q188 491 266 484 Q292 550 323 619 ZM720 398 Q843 393 940 379 Q940 202 919 117 Q896 100 805 100 Q701 100 627 123 Q610 233 607 385 Q645 390 684 390 Q695 288 701 184 Q782 179 850 179 Q850 229 857 312 Q784 318 718 335 Q718 367 720 398 Z" /><glyph glyph-name="uni52A8" unicode="&#x52a8;" d="M143 677 Q294 668 437 650 Q437 622 428 585 Q287 585 136 609 Q136 646 143 677 ZM86 409 Q162 410 269 410 Q420 410 484 407 Q487 391 487 376 L487 346 Q460 334 285 334 Q257 245 225 154 Q280 148 356 133 Q357 117 357 106 Q357 91 353 75 Q232 75 125 102 Q162 226 203 335 Q131 336 88 343 Q83 359 83 376 Q83 393 86 409 ZM424 247 Q453 203 464 121 Q435 105 405 102 Q372 154 367 230 Q391 241 424 247 ZM510 522 Q578 520 637 517 Q662 596 690 681 Q731 674 755 654 Q736 579 717 513 Q803 507 900 499 Q902 412 902 342 Q902 211 888 127 Q833 119 757 119 Q750 151 750 183 Q790 188 823 190 Q825 273 825 428 Q760 433 697 439 Q641 239 570 37 Q533 39 501 65 Q556 261 615 445 Q566 449 508 454 Q505 470 505 489 Q505 504 510 522 Z" /><glyph glyph-name="uni5315" unicode="&#x5315;" d="M787 499 Q803 467 803 430 Q598 363 399 321 Q384 197 368 75 Q542 60 701 56 Q701 85 704 126 Q725 129 737 129 Q761 127 772 120 Q772 95 770 71 Q770 27 761 -21 Q508 -21 276 16 Q276 94 360 622 Q394 620 432 611 Q420 499 408 399 Q580 454 787 499 Z" /><glyph glyph-name="uni5316" unicode="&#x5316;" d="M392 538 Q420 502 424 468 Q352 428 275 397 Q300 243 310 77 Q276 64 238 64 Q212 219 199 365 Q156 349 98 331 Q69 369 69 403 Q243 484 392 538 ZM888 466 Q895 435 898 398 Q766 372 625 360 Q612 236 599 111 Q669 98 730 94 Q730 108 732 132 Q754 135 766 135 Q787 133 799 127 Q799 102 797 81 Q797 55 787 24 Q642 24 510 57 Q510 132 580 634 Q612 630 648 621 Q640 523 631 434 Q748 452 888 466 Z" /><glyph glyph-name="uni5320" unicode="&#x5320;" d="M258 677 Q513 677 852 652 Q852 617 845 578 Q547 578 255 605 L255 644 Q255 658 258 677 ZM736 531 Q745 497 745 461 Q607 433 479 421 Q477 393 472 345 Q650 340 849 325 Q849 295 842 258 Q783 258 738 260 Q740 172 740 75 Q725 67 701 67 Q681 67 665 71 Q657 169 655 262 Q556 265 464 274 Q455 193 437 103 Q400 103 367 110 Q367 220 397 415 Q378 413 350 412 Q334 439 334 484 Q527 514 736 531 ZM220 476 Q238 476 256 471 Q253 251 241 27 Q437 21 645 12 L645 -23 Q643 -39 643 -58 Q343 -58 157 -37 Q157 55 179 474 Q209 476 220 476 Z" /><glyph glyph-name="uni534E" unicode="&#x534e;" d="M433 745 Q458 711 462 682 Q401 632 338 593 Q356 470 364 341 Q330 327 294 327 Q277 444 270 553 Q235 533 185 509 Q159 544 159 574 Q305 676 433 745 ZM823 627 Q828 596 828 562 Q722 531 629 519 Q630 475 632 434 Q684 434 753 438 Q761 422 761 407 Q761 389 759 375 Q733 365 664 365 Q587 365 562 372 Q556 446 553 510 Q503 505 448 505 Q441 536 441 568 Q500 582 550 590 Q548 655 548 721 Q572 726 585 726 Q604 726 623 723 Q625 659 627 604 Q718 618 823 627 ZM496 365 Q515 365 538 361 Q538 294 538 237 Q644 233 757 227 Q763 208 763 190 Q763 177 757 158 Q641 159 537 164 Q536 100 534 35 Q534 4 526 -28 Q510 -31 487 -31 Q466 -31 450 -25 Q444 2 444 28 Q444 99 446 167 Q344 172 236 179 Q230 199 230 214 Q230 231 236 250 Q348 246 449 241 Q452 298 456 364 Q476 365 496 365 Z" /><glyph glyph-name="uni5355" unicode="&#x5355;" d="M617 749 Q663 746 696 726 Q669 636 649 599 Q602 599 573 618 Q589 693 617 749 ZM337 583 Q556 577 782 558 Q796 500 796 345 Q796 275 792 215 Q776 202 548 199 Q552 164 556 129 Q642 132 731 132 Q737 116 737 101 Q737 83 731 67 Q672 60 562 54 Q567 -1 571 -61 Q540 -74 493 -74 Q482 -6 475 50 Q390 46 273 42 Q256 68 256 115 Q369 122 465 126 Q461 163 457 198 L372 198 Q258 198 190 211 Q173 358 173 554 L255 554 Q264 393 264 283 Q330 276 444 276 L450 276 Q446 307 444 335 Q389 330 311 326 Q295 350 295 392 Q374 404 439 409 Q437 428 436 451 Q473 458 514 460 Q519 433 521 415 Q585 419 651 419 Q656 403 656 390 Q656 375 651 360 Q608 350 531 343 Q536 309 540 276 Q653 275 708 273 Q708 372 702 485 Q522 493 334 508 Q334 548 337 583 ZM299 732 Q341 670 358 622 Q337 604 292 586 Q257 629 231 697 Q260 720 299 732 Z" /><glyph glyph-name="uni53D1" unicode="&#x53d1;" d="M668 658 Q750 625 823 570 Q807 533 777 509 Q694 546 628 597 Q647 631 668 658 ZM464 695 Q506 691 536 671 Q508 609 456 492 Q576 483 756 470 Q761 453 761 439 Q761 424 756 403 Q572 403 421 417 Q351 257 240 9 Q201 15 171 32 Q225 213 326 426 Q244 435 160 450 Q179 560 216 653 Q226 656 248 656 Q272 654 287 647 Q269 576 255 510 Q299 506 363 500 Q408 592 464 695 ZM448 326 Q609 318 772 267 Q772 233 681 109 Q730 93 784 73 Q780 41 762 10 Q691 28 635 47 Q604 7 563 -46 Q531 -32 502 -8 Q536 39 559 71 Q515 86 464 107 Q475 139 489 170 Q552 152 605 135 Q637 180 659 210 Q563 235 436 261 Q436 296 448 326 Z" /><glyph glyph-name="uni53D8" unicode="&#x53d8;" d="M509 795 Q552 757 586 711 Q560 689 525 672 Q479 712 449 757 Q474 777 509 795 ZM163 672 Q511 672 854 654 L854 622 Q854 601 850 586 Q732 586 636 587 Q659 461 669 332 Q639 320 595 320 Q568 458 556 588 Q514 588 474 589 Q455 469 412 318 Q371 320 340 334 Q358 469 396 591 Q268 595 162 601 Q156 611 156 637 Q156 654 163 672 ZM287 539 Q318 515 343 485 Q324 464 295 439 Q280 427 263 413 Q244 396 222 382 Q191 404 171 434 Q227 490 287 539 ZM712 537 Q778 508 850 461 Q839 433 815 400 Q739 428 673 477 Q694 511 712 537 ZM365 125 Q465 103 554 81 Q580 129 605 177 Q437 183 264 194 Q264 235 271 267 Q577 261 700 244 Q683 152 634 61 Q694 46 760 27 Q752 -8 736 -38 Q659 -23 594 -7 Q575 -37 551 -71 Q521 -71 486 -51 Q503 -16 518 11 Q431 32 342 59 Q351 98 365 125 Z" /><glyph glyph-name="uni53F0" unicode="&#x53f0;" d="M484 754 Q517 734 554 702 Q448 576 302 404 Q382 392 706 372 Q704 341 697 303 Q383 308 303 319 Q194 331 166 353 Q177 383 268 500 Q348 598 484 754 ZM792 536 Q848 466 895 386 Q872 361 829 344 Q770 417 726 497 Q759 525 792 536 ZM491 221 Q645 219 791 202 Q801 166 801 46 Q801 -35 797 -76 Q725 -85 565 -85 Q464 -85 370 -69 Q355 -33 355 47 Q355 92 351 210 Q369 216 390 216 Q407 216 426 210 Q426 164 439 -1 Q579 -12 717 -12 Q721 5 721 46 Q721 85 719 129 Q545 139 497 144 Q489 157 489 184 Q489 200 491 221 Z" /><glyph glyph-name="uni53F8" unicode="&#x53f8;" d="M220 456 Q393 452 575 436 Q575 405 568 369 Q381 369 218 390 Q218 424 220 456 ZM437 634 Q679 634 829 629 Q854 405 854 163 Q854 52 849 -50 Q822 -60 778 -60 Q734 -60 710 -54 Q705 -30 705 -2 Q734 2 762 4 Q762 277 743 561 Q475 558 163 546 Q157 566 157 583 Q157 598 161 612 Q259 627 437 634 ZM319 272 Q488 272 594 262 Q603 197 603 140 Q603 38 599 4 Q546 -12 415 -12 Q273 -12 218 -1 Q209 39 206 123 Q202 190 202 238 Q219 243 244 245 Q268 245 281 242 Q288 153 288 61 Q346 60 415 60 Q473 60 517 65 Q515 129 511 193 Q458 195 408 198 Q367 198 319 207 Q314 228 314 239 Q314 255 319 272 Z" /><glyph glyph-name="uni5404" unicode="&#x5404;" d="M406 642 Q582 627 786 586 Q760 531 688 461 Q652 422 612 386 Q742 345 878 297 Q869 264 853 232 Q691 272 541 320 Q422 213 258 114 Q229 139 209 170 Q348 260 456 349 Q383 372 301 402 Q309 442 326 472 Q432 442 530 411 Q600 472 657 530 Q534 553 396 572 Q396 606 406 642 ZM333 724 Q371 715 403 699 Q397 668 305 520 Q207 354 181 341 Q141 353 117 375 Q129 404 218 551 Q305 688 333 724 ZM567 180 Q713 175 824 158 Q824 9 802 -106 Q612 -106 385 -84 Q385 39 401 180 Q424 182 442 182 Q462 182 480 177 Q473 74 467 -20 Q593 -27 728 -32 Q736 34 739 98 Q661 103 560 115 Q560 147 567 180 Z" /><glyph glyph-name="uni5408" unicode="&#x5408;" d="M625 694 Q657 670 674 638 Q646 619 628 608 Q763 511 908 398 Q895 373 858 341 Q698 439 555 561 Q357 431 155 299 Q118 326 107 357 Q336 536 625 694 ZM351 375 Q504 375 705 356 Q705 322 698 285 Q522 285 348 307 L348 344 Q348 357 351 375 ZM431 208 Q604 206 768 190 Q778 157 778 52 Q778 -31 774 -73 Q686 -82 487 -82 Q388 -82 299 -66 Q285 -30 285 50 Q285 87 289 185 Q307 190 329 190 Q346 190 365 185 Q365 143 371 -2 Q531 -11 691 -11 Q694 8 694 52 Q694 85 692 122 Q492 131 436 136 Q429 148 429 174 Q429 188 431 208 Z" /><glyph glyph-name="uni540E" unicode="&#x540e;" d="M839 655 Q846 637 846 622 Q848 613 848 588 Q532 541 222 518 Q212 538 212 556 L212 587 Q527 630 839 655 ZM520 198 Q672 192 793 178 Q793 19 771 -56 Q735 -74 595 -74 Q493 -74 418 -50 Q402 40 397 164 Q435 169 472 169 Q485 89 491 10 Q605 6 700 6 Q700 46 708 113 Q607 118 518 134 Q518 168 520 198 ZM247 480 Q282 477 314 464 Q271 206 208 -12 L163 -5 Q146 -2 132 5 Q163 223 247 480 ZM391 394 Q634 388 875 358 Q875 327 868 298 Q626 298 384 329 Q384 361 391 394 Z" /><glyph glyph-name="uni542F" unicode="&#x542f;" d="M270 516 Q265 516 248 517 Q246 538 246 553 Q246 572 251 588 Q373 588 489 587 Q685 581 836 565 Q848 526 848 407 Q848 343 836 331 Q768 309 422 309 Q412 321 412 343 Q412 364 417 378 Q503 384 768 392 Q768 421 766 494 Q621 497 353 512 Q316 394 208 46 Q167 53 138 70 Q177 265 270 516 ZM404 767 Q538 731 664 688 Q655 653 639 622 Q503 655 381 701 Q390 739 404 767 ZM472 236 Q643 235 806 221 Q815 186 815 74 Q815 -1 811 -39 Q730 -46 547 -46 Q454 -46 370 -31 Q357 1 357 75 Q357 117 354 229 Q370 236 389 236 Q405 236 423 230 Q423 186 434 30 Q586 20 737 20 Q740 35 740 74 Q740 112 738 155 Q533 164 478 169 Q471 181 471 204 Q471 218 472 236 Z" /><glyph glyph-name="uni5468" unicode="&#x5468;" d="M179 517 Q203 517 217 512 Q229 284 229 15 Q214 10 190 10 Q164 10 152 13 Q140 280 140 509 Q150 515 179 517 ZM548 662 Q745 662 868 659 Q889 472 889 269 Q889 103 885 -51 Q856 -61 810 -61 Q762 -61 735 -55 Q730 -29 730 0 Q770 6 810 8 Q810 294 795 589 Q551 586 266 572 Q259 594 259 611 Q259 626 264 641 Q365 656 548 662 ZM345 481 Q409 479 461 475 Q462 496 464 519 Q485 522 507 522 Q526 522 548 515 L548 469 Q588 466 634 459 Q634 431 627 394 Q580 394 546 396 Q545 370 544 344 L541 344 Q629 344 685 338 Q689 325 689 306 Q689 283 685 274 Q669 268 541 268 Q328 268 304 274 Q300 289 300 307 Q300 324 306 341 Q382 343 458 344 Q458 376 459 401 Q402 405 343 416 Q343 448 345 481 ZM517 218 Q593 218 648 210 Q652 165 652 117 Q652 74 645 35 Q604 29 527 29 Q440 29 373 38 Q369 82 369 133 Q369 165 373 213 Q436 218 517 218 ZM448 152 L448 93 L568 93 L568 152 L448 152 Z" /><glyph glyph-name="uni548C" unicode="&#x548c;" d="M513 641 Q529 610 529 570 Q330 529 150 512 Q135 543 135 578 Q326 630 513 641 ZM130 380 Q216 377 295 374 Q296 436 299 506 Q320 511 339 511 Q359 511 378 506 Q382 430 383 371 Q456 368 536 365 L536 334 Q536 312 531 294 Q454 295 384 297 L384 224 Q441 206 506 188 Q506 158 496 118 Q429 127 383 144 Q381 55 377 -27 Q365 -33 338 -33 Q316 -33 304 -27 Q298 54 296 131 Q243 101 136 66 Q118 93 112 123 Q200 187 295 221 Q294 259 294 299 L294 299 Q215 301 125 306 Q120 320 120 344 Q120 360 130 380 ZM693 397 Q815 392 911 378 Q911 202 892 118 Q867 102 773 102 Q673 102 601 123 Q580 229 575 372 Q612 378 649 378 Q665 280 674 184 Q756 179 823 179 Q823 229 831 314 Q758 319 691 335 Q691 367 693 397 Z" /><glyph glyph-name="uni54C1" unicode="&#x54c1;" d="M442 687 Q626 681 767 662 Q767 463 740 311 Q508 311 229 346 Q229 506 246 688 Q271 692 292 692 Q312 692 333 686 Q324 546 318 414 Q482 401 658 389 Q667 494 671 595 Q566 601 435 612 Q435 650 442 687 ZM283 259 Q418 253 526 238 Q526 48 505 -43 Q472 -60 347 -60 Q245 -60 169 -37 Q156 79 152 237 Q190 242 229 242 Q239 134 245 24 Q347 19 432 19 Q432 77 440 171 Q356 177 281 193 Q281 228 283 259 ZM714 257 Q813 249 900 235 Q910 210 910 195 Q910 37 894 -29 Q853 -40 754 -40 Q676 -40 609 -30 Q599 56 599 179 Q599 213 603 241 Q629 249 644 249 Q660 249 680 245 Q690 125 690 39 Q704 36 754 36 Q811 36 821 41 Q825 62 825 170 Q770 178 711 187 Q709 211 709 221 Q709 234 714 257 Z" /><glyph glyph-name="uni5566" unicode="&#x5566;" d="M287 477 Q293 357 293 237 Q181 227 74 227 Q58 355 54 470 Q167 477 287 477 ZM133 404 L140 298 L218 304 L214 408 L133 404 ZM766 663 Q784 663 805 656 Q805 600 800 540 Q871 537 950 532 L950 501 Q950 485 944 466 Q758 466 571 479 Q566 501 566 515 Q566 528 569 545 Q650 545 718 543 Q719 615 724 660 Q745 663 766 663 ZM650 367 Q698 290 717 139 Q687 123 655 120 Q599 214 590 349 Q615 361 650 367 ZM838 345 Q882 341 911 323 Q876 138 852 51 Q891 54 941 57 Q948 24 950 -12 Q770 -31 564 -39 Q556 -9 552 30 Q662 40 770 47 Q796 214 838 345 ZM545 474 Q552 443 554 406 Q510 398 474 394 Q479 337 483 281 Q511 285 549 289 Q562 258 562 227 Q520 215 487 208 Q493 135 497 57 Q467 47 421 47 Q413 124 407 192 Q370 186 321 182 Q310 212 308 244 Q357 258 401 267 Q395 326 391 384 Q355 380 308 378 Q301 405 297 445 Q345 452 387 456 Q383 506 381 560 Q418 566 458 568 Q463 513 468 466 Q502 470 545 474 Z" /><glyph glyph-name="uni55C5" unicode="&#x55c5;" d="M337 495 Q343 375 343 254 Q234 245 131 245 Q116 373 112 488 Q221 495 337 495 ZM191 422 L200 317 L266 322 L262 426 L191 422 ZM632 707 Q672 703 714 692 Q698 650 686 616 Q772 613 875 605 Q879 510 879 443 Q879 255 874 231 Q778 222 616 222 Q499 222 437 236 Q417 346 415 577 L488 577 Q490 539 491 511 Q556 506 622 496 Q620 479 618 466 Q616 445 612 432 Q570 432 531 438 Q510 440 494 442 Q495 425 497 409 Q550 407 621 397 Q621 361 611 333 Q539 333 499 339 Q500 319 501 299 Q541 295 614 295 Q737 295 798 294 Q794 423 794 537 Q657 537 525 552 L525 620 Q567 620 600 619 Q612 662 632 707 ZM591 212 Q636 208 666 186 Q650 148 636 117 Q760 112 909 103 Q909 70 903 35 Q745 35 600 42 Q598 38 596 33 Q576 -4 563 -34 Q553 -54 544 -71 Q535 -91 513 -120 Q473 -109 444 -83 Q477 -12 506 46 Q437 51 356 57 L356 94 Q356 107 360 124 Q451 124 544 121 Q565 166 591 212 ZM763 15 Q830 -15 891 -68 Q875 -102 849 -125 Q780 -89 726 -40 Q744 -9 763 15 ZM829 218 Q854 172 862 126 Q828 111 795 111 Q772 156 765 204 Q798 216 829 218 Z" /><glyph glyph-name="uni56CA" unicode="&#x56ca;" d="M512 747 Q527 747 543 743 Q545 722 546 709 Q702 705 869 697 L869 668 Q869 651 865 638 Q686 638 548 641 L548 618 Q651 613 722 598 Q728 570 728 537 Q728 502 720 486 Q671 475 545 473 Q545 465 544 459 Q711 457 882 450 Q893 360 893 280 Q879 274 860 274 Q849 274 825 276 Q817 316 809 389 Q559 389 295 401 Q291 417 291 433 Q291 444 294 462 Q391 462 478 460 Q477 468 476 473 Q331 474 291 493 Q286 534 286 565 Q286 579 287 602 Q304 607 318 607 Q337 607 348 604 Q358 559 358 541 Q398 536 473 536 Q472 548 472 560 Q445 562 404 564 Q403 579 403 595 Q403 606 404 621 Q444 621 471 620 L471 642 Q302 646 171 654 Q166 663 166 685 Q166 698 171 715 Q329 715 475 711 Q477 725 481 743 Q498 747 512 747 ZM547 536 Q628 536 659 538 Q660 542 660 547 Q643 549 547 556 L547 536 ZM196 443 Q212 443 230 437 Q230 359 219 265 Q205 260 181 260 Q158 260 147 269 Q147 381 159 440 Q177 443 196 443 ZM277 235 Q332 235 378 234 Q378 236 378 244 Q390 253 413 255 Q435 255 447 249 Q448 237 449 233 Q531 231 621 227 Q622 234 625 246 Q643 250 660 250 Q683 247 693 242 Q692 230 691 224 Q749 221 817 218 Q817 191 812 163 Q744 163 686 164 Q685 156 684 151 L695 151 Q759 151 802 147 Q805 137 805 123 Q805 106 802 99 Q788 94 695 94 L675 94 Q673 83 671 75 Q778 72 898 68 L898 45 Q898 28 894 14 Q818 14 761 16 Q770 10 784 -5 Q762 -22 737 -34 Q732 -37 734 -35 Q769 -52 811 -74 Q800 -96 770 -120 Q653 -72 545 -6 Q565 14 572 18 Q475 20 376 24 Q383 15 389 -2 Q316 -41 222 -76 Q196 -54 183 -27 Q242 5 295 27 Q230 30 144 33 Q140 46 140 61 Q140 75 149 89 Q272 86 388 83 Q387 90 386 95 Q280 96 257 98 Q253 109 253 124 Q253 137 258 149 Q324 150 382 150 Q381 164 380 176 Q332 178 276 182 L276 211 Q276 221 277 235 ZM455 173 Q456 162 457 150 Q529 151 606 151 Q607 160 608 166 Q531 168 455 173 ZM459 94 Q460 87 459 82 Q528 80 597 78 Q597 86 598 94 Q516 94 459 94 ZM423 -22 Q430 -47 432 -67 Q477 -67 526 -64 Q532 -84 532 -113 Q458 -122 372 -122 Q357 -98 357 -25 Q391 -22 423 -22 ZM700 16 Q665 16 631 17 Q643 10 669 -1 Q689 11 700 16 ZM681 378 Q746 378 796 370 Q799 346 799 320 Q799 289 795 260 Q761 255 702 255 Q620 255 555 261 Q552 286 552 313 Q552 337 555 373 Q610 378 681 378 ZM611 323 L611 307 L736 307 L736 323 L611 323 ZM375 383 Q441 383 490 376 Q493 349 493 320 Q493 289 489 260 Q456 255 397 255 Q313 255 248 261 Q246 289 246 318 Q246 341 248 379 Q304 383 375 383 ZM304 329 L304 307 L432 307 L432 329 L304 329 Z" /><glyph glyph-name="uni56ED" unicode="&#x56ed;" d="M569 684 Q745 684 899 671 Q906 479 906 326 Q906 59 893 -68 Q743 -78 505 -78 Q247 -78 142 -72 Q127 207 123 548 Q140 553 160 553 Q182 553 199 548 Q210 265 218 -2 Q525 -2 816 0 L816 601 Q696 605 555 607 Q387 603 243 603 Q239 623 239 637 Q239 656 242 671 Q356 682 569 684 ZM327 529 Q494 529 713 517 Q713 484 705 446 Q514 446 326 461 L326 497 Q326 512 327 529 ZM754 350 Q758 333 758 316 L758 281 Q526 263 290 255 Q283 291 283 325 Q402 335 517 341 Q632 347 754 350 ZM381 210 Q416 200 451 185 Q429 121 387 53 Q347 62 321 86 Q347 151 381 210 ZM585 215 Q604 215 625 209 Q625 144 621 108 Q650 108 732 103 Q739 92 739 78 Q739 65 738 52 Q704 41 635 41 Q586 41 546 48 Q539 56 539 68 Q539 139 549 210 Q569 215 585 215 Z" /><glyph glyph-name="uni56FE" unicode="&#x56fe;" d="M578 736 Q742 736 884 725 Q892 528 892 372 Q892 109 879 -17 Q739 -27 517 -27 Q265 -27 163 -21 Q148 260 144 604 Q162 609 181 609 Q204 609 220 604 Q231 318 239 47 Q527 47 800 49 L800 656 Q692 660 565 662 Q401 658 260 658 Q255 677 255 691 Q255 710 258 725 Q370 734 578 736 ZM432 664 Q472 654 495 628 Q476 598 459 576 Q562 564 691 540 Q672 498 623 446 Q600 419 578 397 Q678 371 781 341 Q772 306 756 274 Q626 302 514 334 Q436 259 329 189 Q300 213 281 243 Q366 302 430 358 Q405 365 372 377 Q381 415 395 443 Q451 430 496 418 Q534 453 564 487 Q488 500 407 512 Q367 467 314 417 Q278 426 258 451 Q319 554 432 664 ZM428 257 Q529 257 654 247 Q654 211 643 183 Q500 183 419 195 Q419 226 428 257 ZM633 144 Q638 113 638 78 Q531 62 434 62 Q427 93 427 125 Q524 138 633 144 Z" /><glyph glyph-name="uni571F" unicode="&#x571f;" d="M211 500 Q347 495 474 489 Q477 563 482 644 Q504 647 523 647 Q545 647 566 642 Q566 557 565 485 Q688 479 820 472 L820 439 Q820 416 815 397 Q684 399 564 404 Q563 357 562 309 Q562 200 558 105 Q687 108 828 110 Q833 91 833 74 L833 35 Q513 21 184 15 Q177 54 177 94 Q331 100 475 103 Q470 198 470 301 Q470 356 471 407 Q343 414 206 424 Q201 440 201 464 Q201 481 211 500 Z" /><glyph glyph-name="uni5728" unicode="&#x5728;" d="M158 576 Q295 572 426 566 Q478 627 539 698 Q573 678 604 651 Q565 601 534 562 Q707 554 893 543 Q900 525 900 504 Q900 488 893 469 Q675 472 471 481 Q331 306 177 125 Q139 142 111 173 Q219 319 359 487 Q264 492 158 500 Q152 522 152 537 Q152 556 158 576 ZM332 237 Q357 237 370 231 Q380 99 380 -44 Q367 -55 342 -55 Q324 -55 306 -49 Q295 90 294 227 Q307 235 332 237 ZM713 346 Q731 346 751 339 Q751 300 750 268 Q811 264 879 258 Q879 227 872 190 Q803 190 749 192 Q747 117 743 32 Q806 34 881 34 Q884 19 884 4 L884 -29 Q707 -44 536 -44 Q529 -11 529 24 Q599 28 663 30 Q663 126 665 196 Q592 202 518 212 Q518 246 520 278 Q598 276 667 272 Q669 309 672 343 Q692 346 713 346 Z" /><glyph glyph-name="uni5730" unicode="&#x5730;" d="M349 432 Q354 397 354 359 Q306 352 269 348 Q274 285 277 227 Q300 227 325 228 Q330 211 330 192 Q330 177 328 160 Q286 148 201 148 Q151 148 122 153 Q116 168 116 186 Q116 205 120 222 Q142 226 197 226 Q190 285 185 343 Q137 340 83 340 Q75 375 75 410 Q131 417 180 422 Q177 468 175 519 Q213 526 257 526 Q261 472 264 427 Q303 430 349 432 ZM728 567 Q750 567 768 562 Q771 487 772 430 Q851 434 939 437 Q941 366 941 269 Q909 261 869 261 Q867 314 864 354 Q818 350 773 348 Q773 281 766 226 Q754 220 726 220 Q706 220 693 225 Q683 283 683 344 Q627 342 571 340 Q574 228 574 135 Q655 135 753 131 Q755 108 755 96 Q755 77 749 59 Q723 54 634 54 Q533 54 495 69 Q484 188 484 262 Q484 301 485 338 Q454 337 413 337 Q409 375 409 406 Q453 409 487 412 Q488 452 489 501 Q511 507 527 507 Q547 507 566 501 Q568 453 569 417 Q627 422 684 426 Q685 489 689 562 Q710 567 728 567 Z" /><glyph glyph-name="uni573A" unicode="&#x573a;" d="M437 681 Q568 669 709 648 Q677 545 629 442 Q756 421 912 395 Q854 197 777 12 Q731 19 704 39 Q752 191 806 336 Q664 357 530 383 Q570 489 608 585 Q519 594 426 609 Q426 650 437 681 ZM499 298 Q534 289 569 274 Q541 179 490 81 Q451 90 424 112 Q458 212 499 298 ZM623 287 Q657 279 692 263 Q664 168 613 70 Q574 79 547 102 Q581 201 623 287 ZM122 494 Q181 492 230 487 Q235 534 242 584 Q264 586 284 586 Q309 584 320 578 Q318 525 315 479 Q349 476 391 470 Q391 437 383 396 Q340 396 309 398 Q303 326 295 256 Q338 258 391 260 Q396 226 396 188 Q254 177 126 177 Q118 211 118 247 Q169 250 211 253 Q215 332 222 404 Q172 409 120 420 Q120 458 122 494 Z" /><glyph glyph-name="uni574A" unicode="&#x574a;" d="M124 471 Q180 469 227 465 Q228 523 229 572 Q250 575 270 575 Q290 575 309 569 L309 457 Q350 453 399 446 Q399 413 391 372 Q344 372 308 374 Q307 293 306 206 Q336 208 375 209 Q381 174 381 135 Q250 122 131 122 Q124 156 124 193 Q179 198 225 201 Q225 302 226 380 Q175 385 122 396 Q122 434 124 471 ZM478 498 Q711 492 942 461 Q942 427 935 394 Q814 394 704 402 Q686 339 668 280 Q775 269 892 250 Q892 102 878 -26 Q851 -34 816 -34 Q779 -34 748 -29 Q746 5 746 31 Q783 36 806 36 Q808 104 812 187 Q724 199 645 211 Q609 103 566 -7 Q524 -4 489 23 Q552 222 623 409 Q550 416 470 428 Q470 464 478 498 ZM681 650 Q756 624 822 581 Q806 546 777 522 Q703 551 642 590 Q661 623 681 650 Z" /><glyph glyph-name="uni575A" unicode="&#x575a;" d="M270 650 Q278 535 283 427 Q246 420 206 420 Q194 531 190 643 Q227 650 270 650 ZM404 736 Q422 736 440 731 Q443 542 443 322 Q427 317 407 317 Q389 317 369 320 Q367 403 367 539 Q367 683 368 731 Q385 736 404 736 ZM522 719 Q721 713 799 697 Q789 594 760 490 Q810 475 866 455 Q861 420 842 386 Q782 400 736 414 Q722 368 701 315 Q669 315 634 334 Q648 389 659 436 Q585 458 508 488 Q520 524 535 558 Q613 537 678 516 Q693 574 706 629 Q613 635 515 648 Q515 688 522 719 ZM773 52 Q776 37 776 22 L776 -10 Q501 -26 232 -26 Q226 6 226 41 Q348 46 465 49 Q461 101 459 152 Q376 157 287 168 Q287 201 294 233 Q380 232 457 226 Q456 259 455 296 Q468 305 492 307 Q516 307 529 301 Q532 258 534 222 Q616 215 706 204 Q706 173 699 143 Q613 143 537 147 Q539 99 539 50 Q649 52 773 52 Z" /><glyph glyph-name="uni5927" unicode="&#x5927;" d="M525 666 Q567 654 603 631 Q565 548 532 478 Q696 472 869 458 Q869 420 863 383 Q670 383 489 389 Q378 156 268 -28 Q224 -17 198 8 Q255 135 386 393 Q259 398 124 407 Q124 450 133 486 Q287 486 431 481 Q473 565 525 666 ZM598 171 Q725 104 850 24 Q835 -5 809 -39 Q668 23 559 99 Q577 138 598 171 Z" /><glyph glyph-name="uni5929" unicode="&#x5929;" d="M162 293 Q283 293 393 290 Q434 376 481 467 Q526 459 555 437 Q523 358 491 288 Q666 284 847 275 L847 239 Q847 216 842 200 Q620 200 454 204 Q390 64 313 -78 Q272 -76 237 -46 Q294 84 352 206 Q250 209 161 213 Q155 224 155 253 Q155 270 162 293 ZM644 100 Q731 61 809 -6 Q794 -40 767 -63 Q678 -18 607 44 Q625 76 644 100 ZM192 635 Q512 635 825 609 Q825 570 819 532 Q495 532 183 557 Q183 600 192 635 Z" /><glyph glyph-name="uni597D" unicode="&#x597d;" d="M84 466 Q146 463 200 458 Q223 513 250 566 Q287 555 314 534 Q297 489 283 453 Q375 447 475 438 Q475 409 466 373 Q357 373 256 381 Q222 296 188 213 Q234 194 280 174 Q311 241 346 310 Q387 306 416 286 Q385 211 352 141 Q393 122 437 100 Q428 69 406 40 Q356 57 320 72 Q319 68 316 62 Q307 41 298 23 Q290 2 268 -27 Q231 -16 205 7 Q228 60 248 103 Q161 142 87 184 Q130 299 168 389 Q127 392 77 399 Q77 435 84 466 ZM477 658 Q666 637 855 606 Q809 487 719 367 Q736 289 746 215 Q810 218 883 220 Q888 187 888 150 Q815 144 756 141 Q769 -23 769 -50 Q738 -61 701 -61 Q653 -61 611 -55 Q609 -30 609 -2 Q651 2 685 2 Q680 70 673 137 Q578 133 477 133 Q470 166 470 200 Q570 207 666 212 Q655 303 640 399 Q695 476 745 548 Q616 560 463 592 Q468 632 477 658 Z" /><glyph glyph-name="uni5B50" unicode="&#x5b50;" d="M157 648 Q442 642 791 622 Q749 455 641 275 Q649 227 655 186 Q659 186 668 186 Q766 186 829 179 Q833 166 833 143 Q833 119 829 109 Q811 102 668 102 Q664 102 667 102 Q678 11 682 -76 Q643 -89 600 -89 Q553 -89 502 -86 L502 -24 Q550 -16 596 -16 Q585 45 577 102 Q280 103 244 109 Q240 125 240 145 Q240 164 246 183 Q397 185 563 186 Q557 232 551 280 Q609 414 678 543 Q428 552 153 566 Q148 580 148 607 Q148 642 157 648 Z" /><glyph glyph-name="uni5B63" unicode="&#x5b63;" d="M674 725 Q684 690 684 651 Q605 639 535 632 Q541 580 544 531 L620 531 Q712 531 772 524 Q776 513 776 490 Q776 467 772 458 Q755 451 620 451 L548 451 Q552 391 554 323 Q532 318 513 316 Q500 314 471 314 Q465 388 462 451 Q250 452 222 458 Q217 473 217 492 Q217 511 223 528 Q338 530 458 531 Q455 578 453 623 Q372 615 283 612 Q265 640 265 688 Q461 711 674 725 ZM289 375 Q313 343 322 310 Q261 262 189 247 Q165 278 153 310 Q220 352 289 375 ZM362 282 Q468 282 643 250 Q643 222 589 104 Q598 88 603 75 Q676 74 719 71 Q722 55 722 40 L722 7 Q702 0 628 -2 Q641 -59 641 -127 Q610 -140 572 -140 Q513 -140 489 -129 Q489 -103 491 -84 Q525 -80 555 -80 Q550 -42 541 -4 L498 -4 Q370 -4 309 5 Q304 21 304 40 Q304 57 307 73 Q387 75 500 75 L520 75 Q514 93 506 115 Q520 153 533 184 Q452 198 362 212 L362 282 ZM729 398 Q808 363 889 320 Q883 301 872 288 Q865 272 850 255 Q765 279 687 332 Q702 369 729 398 Z" /><glyph glyph-name="uni5B88" unicode="&#x5b88;" d="M201 616 Q219 616 239 610 Q239 494 227 352 Q212 347 186 347 Q161 347 148 357 Q148 525 160 613 Q180 616 201 616 ZM310 611 Q393 611 463 609 Q456 650 456 698 Q477 701 501 703 Q522 703 541 700 Q550 650 552 607 Q723 601 898 584 Q905 478 905 382 Q890 377 870 377 Q858 377 832 379 Q826 425 820 513 Q573 513 313 538 Q308 557 308 576 Q308 591 310 611 ZM593 317 Q592 348 592 385 Q630 392 672 392 Q675 349 677 317 Q754 316 808 310 Q813 298 813 275 Q813 252 808 242 Q792 235 682 235 Q691 82 694 -81 Q667 -94 610 -94 Q564 -94 539 -89 Q531 -62 531 -35 Q578 -30 609 -30 Q598 104 594 235 Q283 235 248 242 Q244 258 244 277 Q244 297 250 314 Q412 317 593 317 ZM394 155 Q438 110 454 21 Q422 3 389 0 Q340 56 332 137 Q358 150 394 155 Z" /><glyph glyph-name="uni5BA3" unicode="&#x5ba3;" d="M531 316 Q645 316 726 309 Q730 206 730 91 Q730 46 723 5 Q679 -1 598 -1 Q436 -1 317 8 Q312 106 312 226 Q312 260 317 311 Q410 316 531 316 ZM394 246 L394 191 Q478 190 590 184 Q590 147 578 119 Q460 119 394 125 L394 67 L644 67 L644 246 L394 246 ZM314 458 Q498 458 741 440 Q741 406 734 369 Q521 369 311 389 L311 427 Q311 440 314 458 ZM824 -29 Q827 -45 827 -63 L827 -97 Q566 -130 312 -130 Q305 -94 305 -58 Q550 -29 824 -29 ZM176 631 Q195 631 215 624 Q215 524 203 399 Q187 394 163 394 Q137 394 124 404 Q124 551 137 628 Q157 631 176 631 ZM303 635 Q401 635 486 633 Q480 667 479 707 Q494 715 518 718 Q544 718 556 711 Q563 669 564 630 Q714 627 867 620 Q877 517 877 425 Q863 419 844 419 Q830 419 806 421 Q798 466 791 550 Q555 550 306 564 Q301 582 301 602 Q301 615 303 635 Z" /><glyph glyph-name="uni5BB6" unicode="&#x5bb6;" d="M332 443 Q492 443 701 426 Q701 392 694 353 Q511 353 331 375 L331 411 Q331 426 332 443 ZM399 355 Q425 330 441 297 Q384 259 326 228 Q294 211 268 195 Q237 178 204 162 Q175 190 162 221 Q188 242 219 262 Q247 279 275 295 Q303 310 333 325 Q364 339 399 355 ZM569 299 Q615 108 636 -84 Q605 -98 562 -98 Q520 -98 477 -85 Q475 -72 475 -60 L475 -27 Q528 -34 547 -34 Q526 122 490 282 Q530 299 569 299 ZM230 156 Q266 147 303 131 Q279 49 236 -35 Q196 -26 168 -3 Q197 83 230 156 ZM361 99 Q397 90 434 72 Q417 7 386 -60 Q344 -50 318 -28 Q336 40 361 99 ZM836 282 Q862 247 867 214 Q789 183 692 161 Q664 199 664 233 Q756 263 836 282 ZM725 76 Q803 57 870 22 Q860 -9 837 -43 Q773 -30 695 4 Q706 42 725 76 ZM181 631 Q200 631 219 623 Q219 524 208 399 Q191 394 168 394 Q142 394 129 404 Q129 551 142 628 Q162 631 181 631 ZM308 635 Q407 635 491 633 Q485 667 484 707 Q499 715 522 718 Q549 718 561 711 Q568 669 569 630 Q719 627 872 620 Q883 517 883 424 Q868 419 849 419 Q836 419 811 421 Q803 466 795 550 Q560 550 311 564 Q306 582 306 602 Q306 615 308 635 Z" /><glyph glyph-name="uni5C04" unicode="&#x5c04;" d="M400 710 Q408 679 408 645 Q299 604 187 594 Q173 618 173 660 Q282 691 400 710 ZM220 535 Q225 470 229 415 Q240 416 261 416 Q292 416 313 415 Q317 399 317 384 Q317 370 316 356 Q296 349 258 349 Q240 349 232 350 Q234 318 235 287 Q247 288 269 288 Q292 288 308 285 Q312 270 312 254 Q312 240 311 226 Q295 219 266 219 Q246 219 237 220 Q238 187 238 158 Q326 166 423 171 Q413 335 401 478 Q353 481 258 482 Q254 503 254 519 Q254 539 257 553 Q326 559 360 559 Q430 559 474 556 Q499 410 515 -47 Q499 -53 474 -53 Q460 -53 433 -50 Q429 30 426 100 Q379 95 330 91 Q313 -19 301 -70 Q256 -70 228 -50 Q237 29 248 87 Q199 84 139 83 Q134 114 134 148 Q155 151 165 152 Q147 340 145 530 Q166 535 182 535 L220 535 ZM618 299 Q656 249 670 152 Q638 134 604 131 Q562 192 556 280 Q583 294 618 299 ZM804 601 Q816 550 824 506 Q869 507 922 507 Q925 490 925 475 L925 441 Q877 435 839 432 Q877 216 894 -11 Q822 -39 711 -39 Q698 -18 697 18 Q760 32 811 37 Q781 232 752 424 Q655 417 553 417 Q546 450 546 485 Q645 497 738 502 Q733 544 726 590 Q767 601 804 601 Z" /><glyph glyph-name="uni5C06" unicode="&#x5c06;" d="M255 281 Q278 254 280 222 Q212 175 120 154 Q98 177 89 214 Q163 256 255 281 ZM146 494 Q215 467 275 420 Q261 387 234 365 Q165 396 110 439 Q127 470 146 494 ZM449 321 Q578 321 725 313 Q724 351 724 394 Q761 401 802 401 Q806 351 809 309 Q844 306 890 303 Q890 269 883 231 Q843 231 814 232 Q822 114 824 -11 Q797 -24 741 -24 Q696 -24 671 -19 Q664 8 664 33 Q710 39 742 39 Q732 137 728 234 Q590 238 446 251 L446 289 Q446 303 449 321 ZM568 170 Q598 135 609 68 Q575 49 541 46 Q506 89 501 151 Q529 165 568 170 ZM349 558 Q376 313 378 85 Q364 78 343 78 Q323 78 308 81 Q278 320 275 553 Q296 558 312 558 L349 558 ZM615 646 Q605 630 593 613 Q581 593 573 581 Q608 562 646 529 Q632 499 608 479 Q564 502 535 525 Q527 513 518 501 Q510 487 498 474 Q453 487 435 518 Q459 555 519 645 Q564 710 616 782 Q652 767 678 745 Q664 721 654 706 Q756 674 840 629 Q726 449 596 316 Q561 333 540 355 Q631 475 729 598 Q673 621 615 646 Z" /><glyph glyph-name="uni5C4F" unicode="&#x5c4f;" d="M318 267 Q583 264 848 247 Q848 216 841 185 Q783 185 736 186 Q735 136 733 89 Q773 90 821 90 Q824 74 824 57 L824 22 Q771 20 730 18 Q728 -33 724 -88 Q713 -93 685 -93 Q663 -93 645 -86 Q646 -29 648 15 Q565 13 483 11 Q484 -36 484 -91 Q469 -98 445 -98 Q427 -98 409 -96 Q404 -38 401 10 L332 10 Q325 45 325 82 Q366 83 396 84 Q393 140 393 196 Q357 199 310 201 Q310 234 318 267 ZM651 89 Q654 140 659 187 Q565 189 475 193 Q479 139 481 86 Q566 88 651 89 ZM466 392 Q504 343 519 303 Q500 287 461 271 Q429 307 406 361 Q431 381 466 392 ZM692 397 Q726 389 762 372 Q741 320 704 267 Q667 275 640 298 Q664 352 692 397 ZM275 690 Q397 690 512 688 Q697 686 840 679 Q854 638 854 509 Q854 447 840 435 Q760 420 357 420 Q347 433 347 454 Q347 476 352 490 Q453 493 766 498 L766 607 Q604 609 271 619 Q270 640 270 654 Q270 674 275 690 ZM286 569 Q327 566 354 547 Q315 437 271 332 Q248 279 232 238 Q221 210 209 186 Q200 157 173 118 Q136 130 110 151 Q199 379 286 569 Z" /><glyph glyph-name="uni5CA9" unicode="&#x5ca9;" d="M257 646 Q274 646 293 641 Q291 570 282 503 Q379 500 474 496 Q475 622 488 695 Q507 698 527 698 Q547 698 566 692 Q566 599 557 493 Q638 489 729 485 L729 451 Q727 436 727 417 Q400 417 198 441 Q198 478 216 644 Q246 646 257 646 ZM842 628 Q856 532 857 458 Q837 445 787 445 Q766 523 766 621 Q805 628 842 628 ZM664 337 Q762 337 825 327 Q829 315 829 294 Q829 268 825 259 Q807 253 664 253 Q237 253 193 258 Q189 275 189 296 Q189 315 195 332 Q409 337 664 337 ZM805 167 Q820 48 820 -77 Q665 -99 479 -103 Q455 -25 449 142 Q613 167 805 167 ZM549 -30 L740 -19 L728 94 L534 84 L549 -30 ZM349 227 Q384 209 402 185 Q347 107 232 -10 Q193 8 171 33 Q243 137 349 227 Z" /><glyph glyph-name="uni5D4C" unicode="&#x5d4c;" d="M255 669 Q272 669 291 664 Q289 593 279 524 Q376 522 472 519 Q473 656 486 735 Q506 738 526 738 Q546 738 565 732 Q565 631 556 517 Q637 515 727 512 L727 476 Q725 460 725 439 Q397 439 195 459 Q195 497 214 667 Q244 669 255 669 ZM853 638 Q862 547 863 475 Q842 464 793 464 Q776 537 776 630 Q814 638 853 638 ZM163 283 Q189 283 206 282 Q207 314 216 372 Q252 372 286 367 L286 280 Q354 278 421 274 Q420 315 420 360 Q440 363 461 365 Q480 365 499 362 Q501 312 502 270 Q522 269 552 267 Q552 238 546 212 L504 212 Q509 68 509 -84 Q494 -92 471 -92 Q454 -92 436 -89 Q425 64 422 213 Q352 215 286 218 L286 130 Q357 130 410 124 Q414 113 414 94 Q414 73 410 64 Q394 58 285 58 Q284 -16 283 -31 Q324 -37 416 -41 Q416 -80 413 -103 Q392 -108 319 -108 Q252 -106 217 -95 Q206 -95 206 222 Q185 223 157 225 Q157 255 163 283 ZM671 372 Q712 362 735 337 Q723 309 713 287 Q812 276 921 251 Q915 206 900 168 Q890 129 862 95 Q826 99 800 120 Q822 166 832 195 Q748 212 678 224 Q645 170 601 110 Q563 120 545 145 Q587 255 671 372 ZM708 168 Q746 162 773 144 Q749 92 726 47 Q798 0 872 -57 Q860 -84 834 -115 Q750 -71 690 -23 Q688 -27 685 -34 Q677 -50 669 -64 Q660 -80 642 -104 Q606 -93 581 -72 Q645 58 708 168 Z" /><glyph glyph-name="uni5E06" unicode="&#x5e06;" d="M147 499 Q149 474 151 458 Q189 458 223 458 Q222 508 222 560 Q231 566 261 568 Q285 568 299 563 Q303 508 306 459 Q379 460 449 463 Q460 305 460 123 Q441 115 404 115 Q372 117 345 124 Q345 150 347 174 Q370 171 389 171 Q381 291 381 387 Q343 387 310 387 Q319 215 319 15 Q303 10 281 10 Q254 10 242 13 Q228 215 224 387 Q188 388 157 388 Q167 271 173 147 Q142 137 96 137 Q79 313 72 490 Q108 497 147 499 ZM540 555 Q580 555 615 545 Q615 484 597 267 Q586 129 565 -10 Q528 -10 495 -3 Q495 185 540 555 ZM646 577 Q772 563 908 539 Q903 294 883 59 Q909 57 946 52 Q946 26 943 -7 Q879 -7 803 4 Q810 241 831 481 Q738 492 637 515 Q637 546 646 577 ZM645 329 Q714 316 779 284 Q775 254 760 218 Q675 233 621 265 Q634 306 645 329 Z" /><glyph glyph-name="uni5E26" unicode="&#x5e26;" d="M842 649 Q847 632 847 612 Q847 587 844 572 Q774 571 713 571 Q705 516 694 456 Q642 456 616 475 Q623 527 630 570 Q578 569 527 569 Q524 524 520 475 Q508 469 480 469 Q457 469 440 477 Q441 528 444 569 Q399 568 357 568 Q352 519 345 463 Q334 459 309 459 Q288 459 272 466 Q274 523 279 568 L183 568 Q179 604 179 642 Q236 643 285 643 Q290 686 296 732 Q317 735 335 735 Q357 733 368 728 Q366 683 363 644 Q406 644 448 645 Q452 697 457 753 Q480 755 500 755 Q525 753 536 747 Q534 693 531 646 Q587 646 644 647 Q653 701 665 759 Q697 757 739 748 Q732 694 726 648 Q779 648 842 649 ZM216 463 Q221 338 224 219 Q188 212 150 212 Q141 334 138 457 Q175 463 216 463 ZM320 249 Q343 249 354 243 Q356 237 356 237 Q389 240 471 242 Q470 269 470 302 Q490 305 510 306 Q528 306 545 305 Q548 269 550 242 Q732 237 732 226 Q738 183 738 153 Q738 65 729 17 Q704 12 667 12 Q637 12 613 19 Q608 38 608 65 Q641 65 662 70 Q660 121 656 168 Q596 169 554 170 Q561 59 561 -61 Q546 -68 525 -68 Q508 -68 491 -65 Q477 56 473 170 Q394 170 362 171 Q369 102 369 22 Q356 12 334 12 Q317 12 301 17 Q287 129 285 239 Q298 247 320 249 ZM515 441 Q695 439 849 435 Q853 385 853 355 Q853 299 846 271 Q832 268 809 268 Q790 268 771 271 L771 362 Q644 365 513 366 Q387 364 260 362 Q252 378 252 400 Q252 433 259 433 Q374 437 515 441 Z" /><glyph glyph-name="uni5E38" unicode="&#x5e38;" d="M790 689 Q816 655 826 621 Q763 575 690 561 Q666 593 653 625 Q721 667 790 689 ZM539 720 Q556 720 573 714 Q579 647 579 602 Q579 565 577 541 Q720 539 867 533 Q879 424 879 325 Q865 319 846 319 Q833 319 808 321 Q799 369 791 462 Q564 462 326 473 Q321 490 321 511 Q321 524 323 544 Q415 544 496 543 Q493 568 493 602 Q493 659 503 714 Q522 720 539 720 ZM355 698 Q392 660 405 585 Q371 565 334 561 Q292 609 285 678 Q315 693 355 698 ZM215 538 Q234 538 255 531 Q255 437 245 319 Q228 314 204 314 Q177 314 165 325 Q165 463 174 536 Q196 538 215 538 ZM539 422 Q621 422 680 414 Q683 374 683 330 Q683 289 678 251 Q636 245 560 245 Q461 245 384 253 Q380 294 380 339 Q380 369 384 416 Q452 422 539 422 ZM457 356 L457 309 L603 309 L603 356 L457 356 ZM335 171 Q358 171 371 165 Q371 160 371 161 Q408 164 490 167 Q489 190 489 220 Q508 221 528 223 Q548 223 565 220 Q568 189 570 167 Q757 160 757 147 Q763 103 763 74 Q763 -6 754 -50 Q728 -55 690 -55 Q659 -55 635 -47 Q630 -29 630 -1 Q664 -1 684 4 Q683 48 679 88 Q617 91 574 92 Q580 -9 580 -121 Q566 -128 545 -128 Q527 -128 510 -125 Q496 -14 492 93 Q411 93 379 94 Q385 29 385 -42 Q372 -53 349 -53 Q332 -53 316 -47 Q301 57 299 160 Q312 169 335 171 Z" /><glyph glyph-name="uni5E55" unicode="&#x5e55;" d="M176 688 Q254 688 320 687 Q317 709 314 738 Q353 744 395 744 Q403 711 407 687 Q516 686 624 685 Q629 712 637 743 Q658 744 679 744 Q703 743 716 737 Q714 706 711 684 Q772 684 842 683 L842 650 Q842 628 837 614 L699 614 Q695 591 689 563 Q679 557 648 557 Q626 557 607 565 Q609 595 611 614 L421 614 Q425 593 428 566 Q389 559 350 559 Q340 590 335 614 Q252 615 176 615 Q170 625 170 651 Q170 667 176 688 ZM535 553 Q651 553 733 545 Q737 473 737 392 Q737 348 730 309 Q687 303 608 303 Q544 303 491 304 Q478 286 468 272 Q672 269 887 265 Q893 245 893 224 Q893 209 887 188 Q640 190 410 193 Q395 175 380 156 Q346 117 325 87 Q307 65 291 47 Q277 25 241 -3 Q202 9 172 33 Q242 124 301 195 Q222 198 134 200 Q127 222 127 238 Q127 258 134 278 Q254 276 366 274 Q383 294 394 307 Q357 308 314 311 Q310 382 310 466 Q310 498 314 548 Q409 553 535 553 ZM390 484 L390 456 Q463 453 540 449 Q536 431 534 419 Q532 398 528 386 Q480 386 437 389 Q410 390 390 391 L390 369 L653 369 L653 484 L390 484 ZM755 183 Q838 145 912 81 Q897 46 868 22 Q784 65 717 125 Q734 157 755 183 ZM394 128 Q417 128 429 122 L429 121 Q455 122 507 124 Q506 144 506 171 Q524 172 542 174 Q560 174 575 171 Q577 144 578 125 Q717 119 717 107 Q722 68 722 41 Q722 -28 714 -67 Q696 -71 673 -71 Q645 -71 623 -65 Q618 -46 618 -22 Q640 -22 650 -17 Q649 20 645 54 Q606 57 583 57 Q588 -30 588 -128 Q573 -134 554 -134 Q539 -134 523 -132 Q512 -34 508 58 Q459 58 435 59 Q441 4 441 -59 Q428 -70 407 -70 Q390 -70 374 -64 Q362 27 361 117 Q373 126 394 128 Z" /><glyph glyph-name="uni5E73" unicode="&#x5e73;" d="M151 684 Q498 684 841 659 L841 624 Q841 600 834 586 Q406 586 150 605 Q143 616 143 645 Q143 663 151 684 ZM810 414 Q853 403 877 375 Q835 294 761 206 Q721 215 702 241 Q737 325 810 414 ZM626 129 Q726 129 790 121 Q796 108 796 85 Q796 59 790 49 Q772 43 626 43 L548 43 Q545 -23 540 -83 Q527 -89 500 -89 Q478 -89 466 -83 Q462 -20 460 43 Q219 44 187 49 Q182 65 182 86 Q182 106 190 125 Q319 128 458 128 L458 181 Q458 281 464 393 Q484 398 504 398 Q525 398 544 393 Q550 279 550 187 L550 129 L626 129 ZM233 414 Q289 344 336 265 Q313 239 267 221 Q208 294 165 375 Q199 403 233 414 Z" /><glyph glyph-name="uni5E8F" unicode="&#x5e8f;" d="M586 145 Q602 78 618 -80 Q593 -90 553 -90 Q508 -90 476 -85 Q469 -63 469 -32 Q506 -32 532 -30 Q516 62 512 142 Q550 145 586 145 ZM449 379 Q525 373 600 355 Q609 389 619 421 Q470 433 367 446 Q365 464 365 478 Q367 490 368 507 Q632 503 718 485 Q714 422 676 335 Q689 331 711 325 Q703 296 688 270 Q543 276 429 323 Q436 353 449 379 ZM857 257 Q857 179 835 91 Q804 91 766 97 Q766 146 778 184 Q553 175 288 175 Q286 211 286 240 Q567 257 857 257 ZM217 554 Q197 555 166 556 Q161 578 161 593 Q161 607 164 625 Q342 625 507 621 Q500 661 496 707 Q535 716 574 716 Q585 664 588 619 Q719 615 856 609 L856 576 Q856 559 849 540 Q566 540 293 551 Q249 329 180 94 Q130 94 106 112 Q154 338 217 554 Z" /><glyph glyph-name="uni5F00" unicode="&#x5f00;" d="M261 690 Q508 690 751 659 Q751 622 744 585 Q493 585 252 614 Q252 655 261 690 ZM869 344 Q875 325 875 302 Q875 272 871 255 Q794 250 726 246 Q733 98 734 -50 Q717 -57 692 -57 Q668 -57 651 -53 Q638 99 631 242 Q492 235 352 231 Q352 226 351 218 Q341 83 324 -53 Q280 -53 241 -45 Q241 66 255 229 Q189 227 115 226 Q109 268 109 313 Q189 317 262 321 Q270 401 281 500 Q327 500 368 489 Q368 444 359 325 Q488 331 627 336 Q622 432 621 534 Q646 540 665 540 L709 540 Q717 434 722 339 Q791 341 869 344 Z" /><glyph glyph-name="uni5F15" unicode="&#x5f15;" d="M160 651 Q390 650 573 622 Q569 468 556 336 Q463 316 325 316 Q264 316 221 322 Q215 330 211 352 L211 385 Q349 391 477 398 Q483 471 492 559 Q435 565 158 579 Q153 598 153 617 Q153 633 160 651 ZM793 563 Q814 563 833 558 Q840 441 840 347 Q840 137 833 -26 Q821 -32 793 -32 Q771 -32 759 -26 Q746 142 746 340 Q746 443 752 558 Q772 563 793 563 ZM204 288 Q243 288 283 280 Q278 235 276 195 Q391 185 524 176 Q524 -40 504 -105 Q431 -105 314 -97 Q311 -81 311 -63 Q311 -45 318 -37 Q384 -37 434 -38 Q439 32 445 97 Q312 109 190 125 Q190 198 204 288 Z" /><glyph glyph-name="uni5F52" unicode="&#x5f52;" d="M185 497 Q204 497 223 491 Q223 380 214 243 Q199 238 174 238 Q149 238 136 248 Q136 409 145 494 Q165 497 185 497 ZM701 569 Q769 569 859 563 Q865 485 865 393 L865 114 Q772 110 562 110 Q520 110 485 114 Q480 133 480 148 L480 175 Q641 179 783 179 Q783 317 777 495 Q658 499 543 501 Q537 521 537 534 Q537 548 543 565 Q594 569 701 569 ZM628 362 Q708 362 760 356 Q764 345 764 326 Q764 306 760 298 Q745 292 628 292 Q502 292 488 298 Q484 311 484 328 Q484 343 489 359 Q554 362 628 362 ZM333 606 Q371 606 405 597 Q405 540 382 336 Q368 207 343 76 Q308 76 275 83 Q275 260 333 606 Z" /><glyph glyph-name="uni5FC3" unicode="&#x5fc3;" d="M629 564 Q675 494 693 439 Q673 423 630 405 Q592 454 563 530 Q591 552 629 564 ZM875 461 Q927 398 947 347 Q928 331 887 314 Q844 358 811 429 Q839 450 875 461 ZM291 500 Q326 480 348 449 Q279 345 131 205 Q91 225 77 262 Q178 393 291 500 ZM432 347 Q455 347 472 341 Q480 225 489 111 Q611 111 752 108 Q757 91 757 77 Q757 58 755 37 Q658 32 520 32 Q464 32 409 40 Q394 173 394 339 Q418 347 432 347 Z" /><glyph glyph-name="uni6027" unicode="&#x6027;" d="M137 445 Q158 445 179 436 Q179 327 170 192 Q154 187 126 187 Q98 187 85 199 Q85 357 94 441 Q115 445 137 445 ZM274 538 Q300 538 315 533 Q320 465 323 399 Q372 397 436 388 Q436 347 424 313 Q362 313 327 316 Q332 194 332 54 Q314 48 289 48 Q258 48 245 52 Q232 309 232 529 Q241 536 274 538 ZM542 454 Q618 454 685 453 Q690 542 697 614 Q719 617 738 617 Q758 617 777 611 Q777 531 775 452 Q840 452 912 451 L912 416 Q912 392 907 376 L773 376 Q771 318 768 260 Q808 257 857 255 Q857 221 850 182 Q802 182 765 183 Q762 127 758 69 Q816 66 891 62 Q891 28 884 -9 Q711 -9 542 5 L542 43 Q542 56 545 74 Q611 74 676 72 Q676 134 677 186 Q611 188 537 194 L537 232 Q537 247 540 265 Q608 265 678 263 Q679 324 682 376 Q604 375 541 375 Q535 386 535 414 Q535 434 542 454 ZM522 623 Q564 610 599 590 Q543 483 480 385 Q437 398 413 423 Q462 525 522 623 Z" /><glyph glyph-name="uni602A" unicode="&#x602a;" d="M159 438 Q174 275 182 121 Q144 114 106 114 Q83 271 77 431 Q115 438 159 438 ZM316 321 Q320 195 320 49 Q304 45 282 45 Q256 45 243 47 Q231 314 231 541 Q240 548 269 550 Q294 550 306 543 Q310 470 313 398 Q382 393 462 378 Q462 347 455 309 Q375 309 316 321 ZM470 504 Q571 479 664 453 Q698 506 729 553 Q596 562 471 576 Q471 612 479 644 Q658 643 852 617 Q814 524 750 428 Q847 401 951 369 Q943 335 925 302 Q810 327 700 356 Q668 310 626 258 Q584 274 557 299 Q589 343 614 381 Q534 402 444 432 Q453 474 470 504 ZM754 191 Q844 191 902 184 Q906 173 906 151 Q906 129 902 120 Q886 114 754 114 L726 114 Q727 83 727 51 Q727 32 726 20 Q830 19 884 14 Q887 0 887 -18 L887 -49 Q859 -60 673 -60 Q545 -60 484 -50 Q479 -33 479 -16 Q479 3 482 18 Q552 20 638 20 Q637 30 637 45 Q637 82 638 114 Q473 115 451 120 Q447 135 447 153 Q447 171 453 188 Q545 190 640 191 Q641 218 642 252 Q663 257 682 257 Q702 257 721 252 Q723 217 724 191 L754 191 Z" /><glyph glyph-name="uni60F3" unicode="&#x60f3;" d="M114 578 Q191 578 269 573 Q266 626 265 684 Q285 689 300 689 L334 689 Q342 622 347 568 Q405 564 473 556 Q473 523 466 484 Q403 484 354 487 Q356 465 357 442 Q408 431 467 420 Q467 389 456 347 Q400 352 362 361 Q365 311 365 255 Q352 251 334 251 Q314 251 301 254 Q293 313 289 358 Q235 332 128 300 Q109 327 103 359 Q187 415 280 445 Q277 470 275 491 Q195 498 111 510 L111 547 Q111 561 114 578 ZM627 666 Q773 664 897 656 Q900 523 900 455 Q900 356 893 253 Q832 238 670 238 Q589 238 527 252 Q519 306 517 448 Q517 534 525 627 Q544 633 564 633 Q586 633 603 627 L603 544 Q618 545 648 545 Q684 545 709 543 Q714 526 714 509 Q714 493 712 476 Q688 470 644 470 Q617 470 603 471 L603 439 Q616 440 643 440 Q676 440 697 438 Q702 421 702 402 Q702 387 700 371 Q679 363 639 363 Q615 363 603 364 L603 315 Q721 318 814 318 Q816 442 818 591 Q714 593 622 601 Q622 635 627 666 ZM343 175 Q384 152 408 125 Q382 86 350 51 Q334 34 316 17 Q300 -1 279 -22 Q242 1 217 33 Q271 105 343 175 ZM485 84 Q506 84 524 81 Q528 34 534 -9 Q592 -9 668 -3 Q675 -22 675 -38 Q675 -59 673 -73 Q644 -84 567 -84 Q488 -84 463 -76 Q449 4 449 79 Q472 84 485 84 ZM624 183 Q668 129 686 85 Q668 69 630 53 Q593 92 564 151 Q590 172 624 183 ZM822 138 Q849 89 858 39 Q824 24 791 24 Q766 74 759 126 Q791 136 822 138 Z" /><glyph glyph-name="uni6210" unicode="&#x6210;" d="M249 138 Q235 46 218 -55 Q166 -55 140 -36 Q166 161 202 359 Q234 357 275 348 Q267 275 258 209 Q358 197 469 182 Q469 124 467 74 Q467 24 461 -56 Q426 -56 393 -58 Q368 -55 339 -53 Q335 -31 335 -6 Q366 -2 387 -2 Q387 61 391 118 Q317 127 249 138 ZM804 520 Q809 503 809 483 Q809 458 806 443 Q733 440 673 438 Q712 326 750 219 Q782 246 826 278 Q858 257 868 228 Q824 173 782 129 Q804 70 823 15 Q842 22 873 33 Q887 10 893 -21 Q845 -48 773 -57 Q744 12 722 69 Q680 30 628 -10 Q597 11 581 37 Q630 104 685 161 Q631 301 586 435 Q388 428 177 426 Q173 462 173 500 Q357 508 560 514 Q541 572 521 637 Q550 654 596 661 Q621 583 645 516 Q720 518 804 520 ZM815 699 Q863 642 902 573 Q875 550 839 532 Q787 592 752 658 Q778 680 815 699 Z" /><glyph glyph-name="uni624B" unicode="&#x624b;" d="M777 684 Q784 661 784 646 Q786 636 786 606 Q486 564 191 544 Q179 566 179 587 L179 622 Q479 661 777 684 ZM318 388 Q406 388 494 384 Q490 416 485 453 Q528 465 566 465 Q574 419 581 380 Q637 377 706 371 Q706 335 699 293 Q641 293 594 295 Q602 238 609 182 Q719 181 779 179 Q782 162 782 144 L782 109 Q755 101 617 99 Q628 3 633 -101 Q568 -119 467 -119 Q454 -93 452 -50 Q505 -45 547 -44 Q538 27 529 98 Q503 98 468 98 Q331 98 266 107 Q261 126 261 144 Q261 164 264 181 Q350 183 471 183 Q499 183 518 183 Q511 241 504 298 Q414 302 316 313 L316 353 Q316 368 318 388 Z" /><glyph glyph-name="uni624D" unicode="&#x624d;" d="M163 510 Q375 505 580 496 Q573 575 565 661 Q598 668 642 668 Q656 576 665 493 Q769 489 880 485 Q887 465 887 443 Q887 428 880 406 Q771 407 674 409 Q697 190 701 -39 Q656 -61 563 -61 Q553 -33 553 -6 Q587 0 613 8 Q606 121 600 226 Q459 108 284 -20 Q248 5 231 42 Q404 183 593 326 Q590 370 586 412 Q377 418 163 430 Q157 452 157 470 Q157 488 163 510 Z" /><glyph glyph-name="uni627F" unicode="&#x627f;" d="M240 709 Q489 694 744 649 Q737 573 717 506 Q704 438 670 381 Q630 385 600 407 Q632 511 646 585 Q423 613 232 636 Q232 675 240 709 ZM106 286 Q230 271 336 243 Q317 170 297 109 Q269 18 248 -11 Q206 -5 181 8 Q207 103 233 185 Q151 199 82 216 Q91 258 106 286 ZM356 359 Q417 357 467 353 Q465 376 463 403 Q497 412 540 416 Q546 378 550 348 Q591 344 638 338 Q638 308 631 271 Q589 271 559 272 Q561 252 563 232 Q608 231 643 230 L643 165 Q605 162 570 160 Q573 137 574 113 Q615 115 660 115 Q665 99 665 85 Q665 67 660 52 Q629 46 579 41 Q585 -13 587 -73 Q522 -90 453 -90 Q446 -71 444 -46 Q477 -40 506 -36 Q502 1 498 35 Q454 32 390 29 Q374 55 374 102 Q440 107 491 110 Q489 135 486 158 Q440 157 376 157 Q369 190 369 223 Q413 230 479 232 Q476 256 474 277 Q416 282 354 293 Q354 326 356 359 ZM769 136 Q839 107 901 60 Q886 26 859 3 Q789 36 732 79 Q750 110 769 136 ZM889 348 Q911 319 913 287 Q844 239 751 218 Q727 240 720 278 Q794 321 889 348 Z" /><glyph glyph-name="uni628A" unicode="&#x628a;" d="M651 470 Q670 470 689 462 Q689 392 685 316 Q737 317 788 317 Q788 416 785 515 Q649 518 473 531 Q473 575 480 606 Q629 606 867 587 Q878 538 878 452 Q878 306 865 258 Q835 235 739 235 Q616 235 540 242 Q539 155 535 56 Q650 55 769 54 Q770 36 770 20 L770 -10 Q753 -17 721 -17 Q502 -14 460 -7 Q457 62 457 202 Q457 281 467 386 Q490 388 507 388 Q526 388 541 383 L541 315 Q574 316 605 316 Q606 409 611 467 Q632 470 651 470 ZM202 444 Q199 488 197 539 Q232 546 272 549 Q277 491 281 443 Q336 442 379 437 Q384 425 384 402 Q384 379 379 368 Q366 363 289 362 Q294 311 297 261 Q325 263 359 263 Q364 247 364 231 Q364 215 359 199 Q335 191 301 187 Q305 133 307 76 Q277 63 232 63 Q225 125 221 177 Q189 174 139 170 Q123 195 123 241 Q174 251 215 255 Q210 309 206 362 Q109 362 96 369 Q91 385 91 404 Q91 424 97 441 Q150 444 202 444 Z" /><glyph glyph-name="uni62A4" unicode="&#x62a4;" d="M222 514 Q219 553 217 598 Q252 605 292 607 Q297 556 301 513 Q352 512 394 507 Q398 494 398 473 Q398 449 394 440 Q380 435 308 434 Q312 389 315 346 Q341 348 374 348 Q379 332 379 317 Q379 301 374 286 Q351 279 319 275 Q323 227 325 176 Q296 164 250 164 Q245 220 240 265 Q211 262 163 259 Q147 285 147 330 Q195 338 234 341 Q229 389 226 434 Q134 434 121 441 Q117 455 117 475 Q117 493 123 510 Q173 514 222 514 ZM545 490 Q586 487 614 468 Q576 344 534 225 Q512 165 498 119 Q487 87 476 60 Q467 27 443 -18 Q406 -6 379 16 Q464 274 545 490 ZM465 592 Q564 592 651 591 Q645 626 643 669 Q683 674 718 676 Q728 627 731 589 Q832 586 917 578 Q930 537 930 413 Q930 298 921 277 Q867 264 601 264 Q592 276 592 297 Q592 318 597 332 Q659 334 849 337 Q849 385 844 507 Q720 509 462 521 Q460 542 460 557 Q460 575 465 592 Z" /><glyph glyph-name="uni62DB" unicode="&#x62db;" d="M543 550 Q499 550 447 551 Q440 571 440 587 Q440 602 447 621 Q518 628 674 628 Q750 628 850 621 Q856 540 856 443 L856 317 Q834 311 790 311 Q745 311 709 317 Q704 336 704 351 L704 378 Q742 383 770 383 Q770 454 764 547 Q695 548 631 549 Q614 488 587 425 Q570 387 553 348 Q545 331 536 310 Q528 290 512 264 Q474 272 438 289 Q491 431 543 550 ZM196 455 Q193 495 191 541 Q226 549 266 551 Q271 497 275 455 Q335 453 381 448 Q386 436 386 413 Q386 389 381 380 Q367 375 283 374 Q288 327 291 283 Q316 285 351 285 Q356 269 356 255 Q356 237 351 222 Q328 215 295 211 Q299 162 301 108 Q270 97 224 97 Q219 154 214 201 Q184 198 135 194 Q119 221 119 267 Q168 275 208 278 Q203 327 200 374 Q113 374 102 381 Q97 396 97 416 Q97 434 104 451 Q150 454 196 455 ZM564 231 Q690 229 811 214 Q821 182 821 85 Q821 4 817 -37 Q768 -48 658 -48 Q556 -48 464 -32 Q450 3 450 83 Q450 118 456 213 Q473 219 494 219 Q510 219 529 213 Q529 174 532 36 Q635 27 737 27 Q740 44 740 85 Q740 111 738 139 Q605 149 569 157 Q561 169 561 195 Q561 212 564 231 Z" /><glyph glyph-name="uni6301" unicode="&#x6301;" d="M766 636 Q859 636 919 628 Q924 616 924 595 Q924 571 919 562 Q902 556 766 556 L729 556 L729 516 Q729 478 725 450 Q831 450 881 443 Q884 428 884 410 L884 378 Q861 366 716 366 Q582 366 518 376 Q513 394 513 412 Q513 432 516 448 Q575 449 643 450 Q641 478 641 510 Q641 535 642 556 Q474 557 451 562 Q447 577 447 596 Q447 615 453 631 Q547 635 644 635 Q645 669 647 711 Q667 716 685 716 Q706 716 724 711 Q726 667 727 636 L766 636 ZM452 266 Q583 266 727 260 Q726 289 726 323 Q764 331 806 331 Q809 290 812 256 Q877 252 953 247 Q953 213 946 174 Q877 174 817 176 Q825 50 828 -83 Q798 -96 737 -96 Q690 -96 665 -91 Q658 -65 658 -39 Q709 -34 744 -34 Q733 74 729 178 Q593 183 449 194 L449 233 Q449 248 452 266 ZM547 111 Q580 77 593 6 Q558 -12 522 -17 Q485 28 479 92 Q508 106 547 111 ZM189 431 Q183 478 180 532 Q216 539 256 541 Q266 481 273 431 Q344 430 394 424 Q398 411 398 390 Q398 365 394 356 Q379 350 286 349 Q293 295 299 240 Q339 244 385 244 Q390 228 390 214 Q390 196 385 181 Q355 171 306 164 Q312 102 316 38 Q287 25 242 25 Q229 94 222 151 Q189 148 142 144 Q125 170 125 216 Q173 226 211 230 Q203 292 196 349 Q110 350 97 356 Q92 371 92 391 Q92 409 98 428 Q144 430 189 431 Z" /><glyph glyph-name="uni6307" unicode="&#x6307;" d="M556 684 Q574 684 595 679 Q598 636 600 602 Q612 603 636 603 Q778 603 863 599 Q867 581 867 565 Q867 550 866 532 Q791 528 632 528 Q611 528 603 529 Q605 466 605 411 Q718 411 849 408 Q851 388 851 377 Q851 358 846 341 Q802 337 655 337 Q562 337 526 351 Q517 467 517 538 Q517 599 518 679 Q540 684 556 684 ZM643 274 Q766 274 866 268 Q873 229 873 77 Q873 -36 864 -55 Q812 -66 685 -66 Q568 -66 514 -43 Q507 3 507 70 Q507 162 516 253 Q537 258 557 258 Q576 258 595 253 L595 153 Q644 146 698 134 Q698 106 690 71 Q638 71 595 81 L595 8 Q608 3 685 3 Q769 3 788 2 Q791 28 791 77 Q791 132 789 203 Q714 203 643 211 Q638 224 638 245 Q638 262 643 274 ZM255 451 Q251 508 248 570 Q284 577 322 579 Q332 511 339 451 Q407 450 457 444 Q462 432 462 409 Q462 385 457 376 Q441 371 346 370 Q353 304 358 240 Q394 242 436 242 Q441 226 441 212 Q441 194 436 179 Q407 171 363 165 Q370 97 373 27 Q343 15 296 15 Q287 89 280 154 Q233 149 166 144 Q150 170 150 216 Q217 228 273 233 Q265 302 260 370 Q147 371 133 376 Q128 392 128 411 Q128 431 135 448 Q196 450 255 451 Z" /><glyph glyph-name="uni6325" unicode="&#x6325;" d="M183 514 Q180 553 178 598 Q213 605 252 607 Q257 556 261 513 Q312 512 354 507 Q359 495 359 473 Q359 449 354 440 Q341 435 268 434 Q273 389 276 346 Q301 348 335 348 Q340 332 340 317 Q340 301 335 286 Q312 279 280 275 Q284 227 286 176 Q256 164 211 164 Q206 220 201 265 Q172 262 124 259 Q108 285 108 330 Q156 338 195 341 Q190 389 187 434 Q95 434 82 441 Q78 455 78 475 Q78 493 84 510 Q134 514 183 514 ZM517 703 Q721 703 919 690 Q922 597 922 513 Q908 507 890 507 Q879 507 855 509 Q851 549 848 623 Q689 623 519 635 Q514 652 514 671 Q514 684 517 703 ZM442 687 Q466 685 477 679 Q474 596 465 510 Q453 506 427 506 Q405 506 388 513 Q392 604 402 684 Q423 687 442 687 ZM477 499 Q536 499 586 498 Q616 554 656 619 Q687 608 719 588 Q692 535 672 495 Q755 491 847 484 L847 453 Q847 433 843 418 Q721 418 635 421 Q602 355 571 300 Q615 298 661 295 Q662 331 664 373 Q681 377 697 377 Q714 377 730 373 Q732 326 734 292 Q785 289 844 287 Q844 255 838 225 Q776 226 735 227 L735 206 Q735 184 735 167 Q803 169 881 169 Q884 153 884 137 L884 103 Q803 96 734 92 Q733 20 731 -44 Q722 -51 698 -51 Q680 -51 670 -45 Q664 22 661 88 Q553 82 439 82 Q432 116 432 152 Q548 161 659 165 Q659 181 659 201 L659 228 Q514 234 459 248 Q492 321 547 425 Q513 427 475 430 Q471 440 471 465 Q471 480 477 499 Z" /><glyph glyph-name="uni63A5" unicode="&#x63a5;" d="M702 700 Q722 700 742 693 Q742 657 737 623 Q819 618 919 610 Q919 575 912 536 Q681 536 454 562 L454 600 Q454 614 457 633 Q551 633 650 627 Q652 669 662 698 Q682 700 702 700 ZM559 521 Q593 476 606 387 Q573 369 539 365 Q500 422 493 503 Q520 517 559 521 ZM787 519 Q830 515 860 497 Q830 406 811 360 Q853 358 892 354 Q897 342 897 318 Q897 294 892 285 Q874 277 730 277 Q481 277 455 285 Q451 300 451 320 Q451 339 457 358 Q582 361 722 361 Q748 447 787 519 ZM456 204 Q519 201 574 197 Q595 229 618 261 Q655 250 684 228 Q670 205 662 190 Q781 182 907 170 Q907 141 899 105 Q758 105 617 120 Q600 88 582 61 Q644 39 705 14 Q725 54 749 95 Q792 91 821 70 Q800 23 778 -17 Q809 -29 846 -44 Q836 -77 814 -109 Q773 -94 744 -84 Q740 -94 734 -105 Q728 -119 711 -139 Q673 -127 644 -105 Q659 -76 669 -55 Q564 -14 475 33 Q505 88 530 129 Q495 132 449 139 Q449 175 456 204 ZM176 467 Q173 509 171 557 Q207 564 248 566 Q254 512 258 466 Q314 465 360 458 Q364 446 364 425 Q364 400 360 391 Q345 386 265 385 Q270 337 273 288 Q303 290 339 290 Q344 274 344 260 Q344 242 339 227 Q314 220 277 215 Q281 164 284 109 Q254 97 208 97 Q202 156 197 206 Q162 202 111 199 Q94 225 94 271 Q149 279 191 283 Q185 335 181 385 Q79 385 66 392 Q62 406 62 427 Q62 444 68 463 Q123 466 176 467 Z" /><glyph glyph-name="uni6491" unicode="&#x6491;" d="M189 499 L185 499 Q182 545 180 598 Q215 605 254 607 Q259 548 264 498 Q306 496 343 492 Q347 479 347 458 Q347 434 343 425 Q330 421 270 420 Q275 365 279 312 Q308 313 343 313 Q348 297 348 282 Q348 266 343 251 Q319 245 283 241 Q286 184 289 126 Q259 114 214 114 Q208 179 204 233 Q168 230 115 227 Q99 252 99 297 Q154 304 198 307 Q193 363 189 419 L189 419 Q93 419 81 426 Q78 441 78 460 Q78 479 84 496 Q134 499 189 499 ZM653 768 Q676 712 685 616 Q799 615 918 612 Q920 517 920 432 Q906 426 887 426 Q876 426 851 428 Q848 470 845 548 Q679 548 500 554 Q495 570 495 588 Q495 600 498 618 Q557 618 604 617 Q590 671 587 748 Q614 762 653 768 ZM757 763 Q801 760 829 742 Q810 657 795 621 Q751 621 724 638 Q737 709 757 763 ZM492 734 Q525 683 538 644 Q519 628 479 612 Q451 647 430 702 Q456 723 492 734 ZM418 609 Q437 609 457 602 Q457 514 451 405 Q435 400 411 400 Q385 400 372 410 Q372 538 378 606 Q399 609 418 609 ZM785 357 Q793 340 793 326 Q795 316 795 291 Q637 270 482 260 Q473 279 473 297 L473 328 Q630 346 785 357 ZM476 229 Q542 229 608 225 Q607 237 606 254 Q644 264 677 264 Q681 239 683 221 Q733 218 796 213 Q796 181 790 145 Q735 145 693 147 Q694 134 695 122 Q802 121 856 118 Q859 102 859 87 L859 55 Q834 47 702 46 Q705 5 707 -42 Q646 -65 550 -65 Q538 -42 536 -4 Q589 5 632 8 Q630 28 628 46 L629 46 Q507 46 449 55 Q445 71 445 88 Q445 105 448 120 Q522 122 620 122 Q618 136 616 150 Q547 154 473 163 L473 198 Q473 212 476 229 ZM635 530 Q704 530 754 522 Q758 489 758 454 Q758 411 751 373 Q709 366 632 366 Q559 366 503 376 Q499 408 499 445 Q499 476 503 525 Q561 530 635 530 ZM578 462 L578 432 L676 432 L676 462 L578 462 Z" /><glyph glyph-name="uni64B7" unicode="&#x64b7;" d="M147 457 Q143 498 140 544 Q173 551 210 553 Q219 500 225 456 Q267 454 302 450 Q306 439 306 417 Q306 394 302 385 Q290 381 236 380 Q242 336 247 292 Q273 294 307 294 Q312 278 312 264 Q312 247 307 232 Q284 225 253 221 Q258 174 262 122 Q234 111 192 111 Q182 166 176 212 Q146 209 102 206 Q85 231 85 276 Q130 283 165 286 Q159 333 154 379 L153 379 Q84 379 75 386 Q72 400 72 419 Q72 437 78 454 Q114 457 147 457 ZM412 576 Q411 614 411 658 Q432 661 453 663 Q474 663 492 660 Q494 614 494 575 Q550 574 595 569 Q599 556 599 535 Q599 512 595 502 Q581 497 495 496 Q496 462 496 431 Q534 429 566 425 Q571 413 571 391 Q571 367 566 358 Q549 352 413 352 Q358 352 352 359 Q348 373 348 393 Q348 411 354 427 Q383 432 413 432 L419 432 Q416 465 415 496 Q308 496 294 502 Q289 518 289 537 Q289 556 296 573 Q354 576 412 576 ZM443 287 Q521 287 585 282 Q591 259 591 181 Q591 85 584 70 Q566 52 524 52 Q413 52 362 73 Q355 113 355 171 Q355 215 356 260 Q373 264 390 264 Q406 264 421 260 Q428 179 428 125 Q443 120 524 120 Q520 120 520 122 Q523 145 523 181 Q523 200 522 221 Q482 221 443 230 Q439 242 439 260 Q439 274 443 287 ZM618 660 Q760 655 900 626 Q900 597 893 569 Q829 569 775 575 Q763 515 752 485 Q710 485 683 502 Q690 550 699 584 Q659 589 611 599 Q611 630 618 660 ZM616 462 Q651 462 689 457 Q689 307 678 171 Q643 171 605 177 Q605 315 616 462 ZM709 481 Q808 480 915 464 Q915 307 907 183 Q890 179 873 179 Q852 179 838 188 L838 399 Q776 403 709 418 Q704 431 704 450 Q704 465 709 481 ZM754 352 Q793 345 822 328 Q796 234 767 149 Q826 117 882 61 Q875 35 853 5 Q797 30 741 76 Q725 29 702 -27 Q665 -21 640 1 Q691 184 754 352 Z" /><glyph glyph-name="uni6512" unicode="&#x6512;" d="M692 629 Q687 612 679 586 Q643 591 616 606 Q630 676 654 745 Q687 740 723 731 Q716 707 711 692 Q730 690 748 688 Q750 721 752 757 Q773 760 790 760 Q812 758 822 752 Q821 715 820 683 Q848 680 881 677 Q881 651 873 617 Q840 617 819 618 Q818 598 816 578 Q851 579 892 579 Q897 566 897 552 Q897 537 892 525 Q853 517 773 512 Q747 438 703 359 Q666 367 642 388 Q667 455 692 507 Q674 506 646 505 Q632 528 632 568 Q696 573 745 575 Q745 601 746 623 Q718 626 692 629 ZM854 494 Q862 456 864 425 Q890 425 923 427 Q929 404 929 375 Q870 365 802 365 Q789 395 789 491 Q823 494 854 494 ZM430 610 Q425 596 418 575 Q382 578 354 594 Q372 661 399 726 Q432 723 467 712 Q459 688 453 672 Q471 671 486 669 Q488 702 491 740 Q511 743 528 743 Q551 741 560 736 Q559 696 558 663 Q583 660 614 656 Q614 631 605 597 Q576 597 557 598 Q556 580 555 562 Q579 563 609 563 Q613 549 613 537 Q613 523 609 509 Q572 502 494 496 Q469 427 426 353 Q389 361 364 382 Q389 444 412 491 Q400 490 378 489 Q364 511 364 551 Q431 557 483 560 Q483 582 484 603 Q457 606 430 610 ZM568 485 Q576 452 577 428 Q602 428 632 430 Q639 406 639 374 Q584 363 518 363 Q504 391 504 480 Q538 485 568 485 ZM457 308 Q493 308 532 302 Q532 182 523 73 Q487 73 448 79 Q448 190 457 308 ZM554 328 Q687 326 831 312 Q831 181 823 79 Q805 74 786 74 Q764 74 749 84 L749 248 Q653 252 554 266 Q549 279 549 298 Q549 312 554 328 ZM628 218 Q668 211 698 192 Q675 134 650 80 Q709 61 768 26 Q760 0 739 -28 Q680 -13 619 16 Q604 -14 583 -53 Q545 -47 518 -23 Q568 102 628 218 ZM183 514 Q180 553 178 598 Q213 605 252 607 Q257 556 261 513 Q312 512 354 507 Q359 495 359 473 Q359 449 354 440 Q341 435 268 434 Q273 389 276 346 Q301 348 335 348 Q340 332 340 317 Q340 301 335 286 Q312 279 280 275 Q284 227 286 176 Q256 164 211 164 Q206 220 201 265 Q172 262 124 259 Q108 285 108 330 Q156 338 195 341 Q190 389 187 434 Q95 434 82 441 Q78 455 78 475 Q78 493 84 510 Q134 514 183 514 Z" /><glyph glyph-name="uni6536" unicode="&#x6536;" d="M666 657 Q704 646 737 623 Q698 545 663 483 Q786 475 912 459 Q912 428 901 386 Q761 386 620 407 Q579 339 536 274 Q497 284 464 311 Q556 482 666 657 ZM753 285 Q795 275 818 248 Q781 176 732 107 Q810 59 892 2 Q877 -27 850 -59 Q755 -13 678 33 Q640 -17 590 -72 Q551 -64 531 -38 Q561 25 599 84 Q553 115 506 150 Q523 188 545 221 Q603 188 651 158 Q695 219 753 285 ZM152 490 Q190 490 226 485 Q226 252 223 225 Q269 220 354 217 Q342 407 340 601 Q363 607 379 607 L419 607 Q443 291 445 -2 Q429 -9 408 -9 Q386 -9 371 -6 Q364 72 359 144 Q338 143 301 143 Q203 144 153 157 Q140 157 140 385 Q140 424 152 490 Z" /><glyph glyph-name="uni6539" unicode="&#x6539;" d="M141 575 Q258 575 443 561 Q454 514 454 433 Q454 313 441 273 Q412 252 322 252 Q269 252 234 255 Q234 155 231 91 Q267 91 365 85 Q374 72 374 56 Q374 42 372 27 Q332 14 247 14 Q195 14 151 23 Q145 62 145 142 Q145 206 153 263 Q143 264 130 267 Q126 284 126 299 Q126 321 133 331 Q255 330 367 329 Q367 410 365 491 Q266 494 135 504 Q135 546 141 575 ZM649 670 Q690 658 725 636 Q696 573 671 525 Q797 517 928 505 Q928 473 917 433 Q775 433 632 450 Q597 385 557 322 Q516 332 482 361 Q558 515 649 670 ZM784 318 Q824 308 847 281 Q810 203 761 129 Q824 92 893 48 Q880 19 853 -10 Q775 24 714 58 Q678 8 632 -48 Q596 -41 578 -17 Q604 44 637 102 Q578 137 520 178 Q537 214 557 244 Q625 209 682 176 Q726 243 784 318 Z" /><glyph glyph-name="uni6587" unicode="&#x6587;" d="M389 687 Q518 666 647 630 Q645 593 628 558 Q539 558 371 610 Q375 653 389 687 ZM341 225 Q420 178 491 134 Q552 195 615 257 Q648 232 674 204 Q620 140 568 84 Q644 35 727 -21 Q714 -54 679 -81 Q584 -31 505 18 Q449 -37 383 -96 Q347 -73 327 -39 Q381 19 428 68 Q362 115 295 168 Q317 202 341 225 ZM154 453 Q516 453 870 430 Q870 391 864 354 Q498 354 146 376 Q146 419 154 453 Z" /><glyph glyph-name="uni65B0" unicode="&#x65b0;" d="M342 703 Q361 703 382 697 Q382 657 377 619 Q460 618 518 612 Q522 598 522 575 Q522 550 518 541 Q500 533 352 533 Q167 533 148 541 Q142 556 142 577 Q142 598 151 615 Q220 618 293 619 Q294 667 302 701 Q323 703 342 703 ZM214 520 Q244 480 255 403 Q223 385 190 382 Q156 432 150 503 Q176 516 214 520 ZM419 518 Q461 514 490 496 Q463 406 443 358 Q482 356 517 352 Q521 339 521 317 Q521 295 517 283 Q500 277 360 277 Q140 277 117 283 Q113 300 113 319 Q113 339 119 356 Q229 359 360 359 L358 359 Q381 446 419 518 ZM149 199 Q229 199 298 197 L298 260 Q307 266 338 268 Q360 268 375 263 Q378 225 380 195 Q431 193 490 191 L490 155 Q490 136 482 115 Q428 115 384 116 Q385 95 386 73 Q447 61 514 32 Q511 2 495 -34 Q427 -23 389 -9 Q390 -52 390 -106 Q375 -112 351 -112 Q325 -112 312 -109 Q308 -54 306 -15 Q242 -48 169 -81 Q142 -55 131 -23 Q213 26 302 70 Q301 95 300 117 Q230 119 152 122 Q147 146 147 163 Q147 179 149 199 ZM634 446 Q678 443 707 424 Q699 385 684 317 Q802 312 937 300 Q937 269 930 233 Q877 233 835 235 Q846 95 846 -54 Q831 -62 809 -62 Q791 -62 773 -60 Q756 92 754 239 Q709 243 668 248 Q646 159 614 20 Q575 28 545 45 Q569 216 634 446 ZM894 605 Q906 571 906 539 Q763 499 604 486 Q593 518 591 552 Q727 588 894 605 Z" /><glyph glyph-name="uni65B9" unicode="&#x65b9;" d="M124 513 Q493 498 869 479 L869 445 Q869 422 864 402 Q656 405 457 415 Q435 351 359 184 Q252 -66 223 -86 Q184 -75 161 -52 Q174 -9 270 213 Q337 356 368 419 Q248 425 118 434 Q113 450 113 474 Q113 492 124 513 ZM416 228 Q599 217 787 187 L787 47 Q785 -46 769 -93 Q757 -102 705 -102 Q655 -102 619 -90 Q615 -75 615 -61 Q617 -44 621 -31 L697 -31 Q704 44 704 120 Q557 141 404 163 Q404 197 416 228 ZM436 715 Q527 677 610 610 Q594 574 565 550 Q472 595 397 656 Q416 689 436 715 Z" /><glyph glyph-name="uni65C5" unicode="&#x65c5;" d="M290 661 Q322 620 335 542 Q296 519 255 516 Q218 566 212 640 Q246 655 290 661 ZM85 451 Q282 443 475 405 Q475 371 467 339 Q388 339 318 345 Q291 283 259 224 Q328 208 411 184 Q411 49 364 -40 Q306 -40 225 -19 Q229 33 243 33 Q271 31 305 29 Q321 88 323 130 Q265 141 224 158 Q222 154 220 149 Q209 128 199 112 Q190 90 166 61 Q126 75 96 98 Q167 240 233 354 Q159 362 77 380 Q77 416 85 451 ZM626 681 Q673 668 699 638 Q680 601 661 571 Q779 562 900 543 Q900 514 890 473 Q750 473 610 499 Q584 464 548 422 Q505 432 481 461 Q532 567 626 681 ZM842 393 Q855 358 855 324 Q689 278 507 265 Q496 298 494 333 Q650 374 842 393 ZM900 241 Q933 220 943 190 Q889 140 834 106 Q875 50 916 -9 Q897 -40 853 -59 Q751 78 660 219 Q690 244 721 262 Q761 210 791 169 Q835 208 900 241 ZM556 224 Q574 116 591 15 Q641 15 706 27 Q714 10 714 -5 L714 -40 Q634 -57 526 -57 Q502 32 480 212 Q515 223 556 224 Z" /><glyph glyph-name="uni65CB" unicode="&#x65cb;" d="M282 661 Q314 620 327 542 Q288 519 247 516 Q210 566 205 640 Q238 655 282 661 ZM77 451 Q273 443 467 405 Q467 371 460 339 Q380 339 311 345 Q281 281 247 215 Q242 208 241 207 Q315 190 404 167 Q404 31 358 -58 Q302 -58 224 -36 Q228 15 242 15 Q268 14 299 12 Q314 70 317 111 Q254 123 207 139 Q199 125 190 111 Q182 90 158 61 Q118 75 88 98 Q159 240 224 354 Q151 362 69 380 Q69 416 77 451 ZM632 680 Q676 668 701 640 Q678 601 655 571 Q781 562 911 543 Q911 514 902 473 Q751 473 598 501 Q571 469 536 434 Q495 441 473 469 Q528 571 632 680 ZM634 340 Q563 346 500 352 Q498 373 498 389 Q500 402 503 421 Q826 416 933 396 Q927 324 858 216 Q821 221 790 237 Q812 285 833 325 Q774 330 722 334 Q725 260 727 187 Q816 196 904 196 Q909 180 909 167 Q909 150 904 135 Q856 124 728 115 Q729 80 729 39 Q713 31 687 31 Q668 31 648 34 Q635 189 634 340 ZM499 172 Q542 168 580 160 Q561 99 544 32 Q697 9 878 -24 Q874 -60 865 -95 Q648 -75 450 -27 Q472 84 499 172 Z" /><glyph glyph-name="uni65E0" unicode="&#x65e0;" d="M178 345 Q294 345 399 343 Q431 426 466 515 Q510 508 538 486 Q514 409 490 341 Q647 337 811 328 L811 293 Q811 270 806 254 Q611 254 462 257 Q416 124 360 -11 Q319 -8 284 20 Q326 145 368 259 Q266 262 177 267 Q171 278 171 306 Q171 323 178 345 ZM187 679 Q500 679 806 654 Q806 616 800 579 Q483 579 179 603 Q179 645 187 679 ZM608 211 Q642 211 681 206 Q675 126 666 49 Q726 51 808 55 Q816 42 816 24 Q816 10 814 -9 Q739 -21 657 -21 Q599 -21 582 -14 Q582 49 608 211 Z" /><glyph glyph-name="uni65E5" unicode="&#x65e5;" d="M376 647 Q732 643 801 633 Q812 414 812 302 Q812 43 796 -16 Q746 -28 520 -28 Q325 -28 216 -16 Q203 97 203 258 Q203 433 214 604 Q251 604 287 602 Q287 475 289 357 Q409 352 544 336 Q544 306 535 268 Q399 268 290 283 Q292 167 295 50 Q354 47 516 46 Q666 48 724 50 Q728 255 728 302 Q728 453 720 559 Q549 561 374 574 Q374 612 376 647 Z" /><glyph glyph-name="uni660E" unicode="&#x660e;" d="M214 521 Q311 519 392 511 Q396 385 396 320 Q396 221 388 118 Q352 108 259 108 Q177 108 116 122 Q108 180 106 333 Q106 417 114 508 Q131 513 152 513 Q172 513 189 508 L189 363 Q223 362 270 358 Q270 317 258 286 Q213 286 189 288 L189 186 Q257 184 310 184 Q312 303 314 444 Q261 446 211 456 Q211 488 214 521 ZM513 607 Q552 605 585 600 Q578 508 570 425 Q626 424 700 412 Q700 377 690 348 Q608 348 564 354 Q559 312 554 271 Q617 267 682 259 Q680 241 678 227 Q676 207 671 193 Q627 193 586 199 Q562 201 546 203 Q534 104 518 -1 Q481 3 448 7 Q473 316 513 607 ZM613 622 Q746 614 885 596 Q891 425 891 297 Q891 93 881 -21 Q846 -24 815 -24 Q777 -24 746 -19 Q738 -3 738 12 Q738 26 741 41 Q779 43 807 43 Q808 286 808 528 Q715 538 608 556 L608 589 Q608 601 613 622 Z" /><glyph glyph-name="uni660F" unicode="&#x660f;" d="M832 711 Q844 683 847 642 Q516 587 183 558 Q173 594 171 627 Q514 680 832 711 ZM286 520 Q305 520 326 513 Q326 391 322 316 Q339 316 392 311 Q399 299 399 284 Q399 272 398 259 Q378 247 338 247 Q287 247 244 255 Q239 292 239 369 Q239 442 249 515 Q270 520 286 520 ZM830 504 Q845 474 845 439 Q784 425 736 415 Q778 365 824 316 Q852 326 870 343 Q896 317 910 291 Q872 260 806 229 Q714 312 642 397 Q551 380 454 364 Q439 395 435 428 Q517 447 590 462 Q566 492 541 530 Q574 551 610 567 Q648 519 682 479 Q752 492 830 504 ZM688 230 Q704 76 704 -87 Q551 -109 370 -112 Q343 -9 337 208 Q499 230 688 230 ZM441 -43 L621 -33 L608 163 L427 154 L432 96 Q495 93 576 80 Q576 44 565 14 Q483 14 436 21 L441 -43 Z" /><glyph glyph-name="uni6625" unicode="&#x6625;" d="M190 668 Q332 663 465 657 Q493 705 524 757 Q567 744 601 724 Q580 684 564 652 Q687 646 819 639 Q825 618 825 598 Q825 583 819 562 Q665 564 521 570 Q498 522 475 482 Q594 481 654 478 Q657 462 657 445 L657 411 Q627 401 430 400 Q402 349 378 306 Q439 310 507 313 Q593 318 671 322 Q663 335 648 354 Q681 383 713 400 Q744 359 772 325 Q825 327 885 329 Q890 311 890 295 L890 258 Q852 255 827 253 Q863 207 901 154 Q880 123 834 103 Q774 177 724 247 Q527 233 331 224 Q278 131 222 38 Q178 51 154 76 Q192 152 226 220 Q187 218 137 216 Q131 253 131 288 Q204 294 267 298 Q294 353 321 401 Q255 402 211 409 Q206 427 206 445 Q206 464 209 480 Q279 482 367 482 Q392 531 418 575 Q308 582 190 591 Q183 613 183 630 Q183 649 190 668 ZM518 177 Q644 177 748 171 Q757 139 757 21 Q757 -98 746 -119 Q695 -130 570 -130 Q443 -130 386 -106 Q378 -60 378 9 Q378 81 387 152 Q407 157 427 157 Q445 157 464 152 L464 75 Q517 69 573 58 Q573 28 564 -10 Q510 -10 464 -1 L464 -49 Q480 -55 570 -55 Q649 -55 667 -55 Q670 -27 670 21 Q670 56 668 99 Q590 99 517 107 Q511 122 511 145 Q511 164 518 177 Z" /><glyph glyph-name="uni665A" unicode="&#x665a;" d="M640 690 Q675 673 704 650 Q677 612 653 583 Q684 579 724 572 Q832 551 892 531 Q878 479 811 391 Q772 395 733 411 Q768 454 790 483 Q695 499 600 523 Q551 470 488 413 Q479 413 455 428 Q432 440 426 450 Q508 555 640 690 ZM558 392 Q783 392 904 362 Q910 312 910 248 Q910 181 901 151 Q847 136 680 136 L632 136 Q573 14 503 -111 Q463 -105 435 -80 Q485 37 536 141 Q471 146 444 161 Q437 210 437 247 Q437 301 446 379 Q467 384 484 384 Q507 384 521 381 Q525 266 525 217 Q545 215 571 213 Q598 268 626 318 Q600 320 557 323 Q555 342 555 359 Q555 374 558 392 ZM713 313 Q690 260 666 210 L678 210 Q794 210 830 212 Q832 258 832 303 Q813 305 713 313 ZM707 114 Q742 114 782 109 Q780 46 776 -12 Q812 -11 863 -5 Q870 -19 870 -37 Q870 -51 868 -69 Q820 -83 767 -83 Q710 -83 691 -75 Q691 -22 707 114 ZM219 549 Q312 540 395 527 Q403 406 403 341 Q403 194 388 134 Q352 123 264 123 Q186 123 120 134 Q110 215 110 331 Q110 448 116 541 Q139 549 155 549 Q169 549 187 545 Q191 453 193 380 Q239 375 290 368 Q290 342 280 306 Q234 306 194 310 Q195 254 195 203 Q211 200 264 200 Q313 200 322 205 Q326 249 326 462 Q273 471 216 479 Q214 503 214 513 Q214 526 219 549 Z" /><glyph glyph-name="uni666F" unicode="&#x666f;" d="M441 252 Q560 252 704 237 Q717 216 717 144 Q717 80 704 58 Q666 53 562 52 Q573 -18 576 -96 Q551 -109 499 -109 Q458 -109 434 -104 Q427 -78 427 -55 Q471 -50 500 -50 Q488 2 485 52 L461 52 Q359 52 312 66 Q301 103 301 140 Q301 183 314 233 Q329 237 345 237 Q363 237 380 233 L380 124 Q494 117 635 117 Q637 147 637 175 Q534 182 436 195 L436 225 Q436 238 441 252 ZM458 390 L429 390 Q324 390 259 402 Q242 517 242 670 L321 670 Q324 622 327 589 Q341 590 370 590 Q442 590 487 586 Q491 569 491 553 Q491 538 488 521 Q449 517 367 517 Q342 517 330 518 Q331 491 331 469 Q391 463 496 463 Q656 463 721 472 Q721 541 715 620 Q560 629 398 643 Q398 681 401 714 Q592 708 788 691 Q802 648 802 537 Q802 474 798 420 Q784 394 541 391 Q544 368 546 349 Q688 342 837 335 Q843 316 843 298 Q843 283 837 266 Q501 269 176 292 Q170 312 170 327 Q170 345 176 362 Q326 358 462 352 Q460 370 458 390 ZM748 37 Q787 -15 803 -54 Q783 -72 742 -88 Q711 -51 685 4 Q713 25 748 37 ZM257 45 Q303 41 336 21 Q309 -64 290 -98 Q243 -98 214 -79 Q229 -7 257 45 Z" /><glyph glyph-name="uni6697" unicode="&#x6697;" d="M220 520 Q316 518 397 510 Q401 385 401 320 Q401 221 393 119 Q356 109 262 109 Q181 109 120 123 Q113 180 111 333 Q111 417 119 508 Q136 513 157 513 Q177 513 194 508 L194 364 Q232 360 281 347 Q281 311 271 284 Q220 284 194 289 L194 186 Q262 184 316 184 Q318 303 320 445 Q265 447 215 457 Q215 488 220 520 ZM688 684 Q708 684 729 677 Q729 639 723 602 Q807 598 910 590 Q910 557 904 520 Q666 520 432 544 L432 579 Q432 593 435 610 Q532 610 633 606 Q634 651 645 682 Q667 684 688 684 ZM540 493 Q573 451 586 369 Q552 350 517 347 Q479 399 473 475 Q501 488 540 493 ZM774 480 Q818 476 848 458 Q815 364 792 315 Q831 312 878 306 Q878 272 872 239 Q662 239 458 259 Q458 297 465 328 Q591 328 706 320 Q732 408 774 480 ZM537 32 Q537 9 536 -18 Q648 -22 759 -22 Q763 0 763 46 Q763 83 761 124 Q619 133 580 138 Q573 150 573 175 Q573 189 574 208 Q710 206 839 191 Q850 156 850 46 Q850 -39 845 -82 Q784 -95 648 -95 Q552 -95 464 -80 Q449 -44 449 37 Q449 80 463 194 Q480 200 503 200 Q520 200 541 194 Q541 167 539 101 Q599 99 677 86 Q677 52 667 23 Q582 23 537 32 Z" /><glyph glyph-name="uni6709" unicode="&#x6709;" d="M130 596 Q282 590 425 581 Q476 653 532 732 Q568 714 596 693 Q556 629 522 576 Q712 566 912 554 Q918 532 918 512 Q918 496 912 475 Q683 478 467 492 Q442 457 418 421 Q355 321 305 253 Q282 215 261 188 Q243 161 219 135 Q173 149 157 180 Q205 257 331 445 Q351 475 367 498 Q253 505 130 516 Q123 538 123 556 Q123 574 130 596 ZM409 319 Q430 319 449 316 Q450 272 451 237 Q463 238 486 238 Q593 238 658 232 Q662 216 662 198 Q662 184 659 167 Q602 165 482 165 Q462 165 452 166 Q454 139 454 112 Q465 113 484 113 Q595 113 661 105 Q667 90 667 72 Q667 58 663 42 L481 42 Q463 42 455 43 Q456 -19 456 -86 Q439 -94 415 -94 Q394 -94 376 -91 Q364 108 364 314 Q385 317 409 319 ZM491 383 Q665 383 808 372 Q842 131 842 -80 Q782 -89 681 -89 Q672 -57 672 -33 Q720 -29 753 -25 Q741 136 728 294 Q611 302 489 308 Q485 325 485 348 Q485 361 491 383 Z" /><glyph glyph-name="uni672A" unicode="&#x672a;" d="M178 346 Q343 339 498 329 Q495 416 491 502 Q475 502 456 502 Q328 502 267 511 Q262 527 262 546 Q262 563 265 579 Q345 581 458 581 Q476 581 488 581 Q485 638 482 701 Q514 708 558 708 Q564 641 568 581 Q719 580 796 575 Q799 560 799 544 L799 511 Q764 504 573 502 Q580 413 585 325 Q720 318 864 310 L864 278 Q864 257 859 239 Q718 242 588 247 Q595 99 597 -58 Q553 -74 461 -74 Q453 -47 453 -22 Q484 -18 510 -12 Q507 92 503 189 Q381 73 238 -32 Q206 -12 192 23 Q311 145 461 254 Q325 261 173 273 Q168 290 168 311 Q168 327 178 346 ZM739 170 Q811 101 868 19 Q849 -2 816 -26 Q742 31 684 126 Q709 150 739 170 Z" /><glyph glyph-name="uni672C" unicode="&#x672c;" d="M447 466 Q299 470 140 477 Q133 501 133 518 Q133 537 140 559 Q311 556 473 551 Q473 611 474 687 Q500 692 519 692 Q540 692 561 687 Q561 605 561 549 Q707 544 860 539 Q866 518 866 496 Q866 481 860 460 Q705 461 562 464 Q562 363 562 326 Q564 274 564 91 Q645 90 703 84 Q707 70 707 49 Q707 23 703 14 Q686 7 564 7 L564 -93 Q552 -103 525 -103 Q498 -103 484 -96 Q480 -46 477 7 Q360 8 344 14 Q339 30 339 50 Q339 69 346 88 Q411 90 474 91 Q471 193 471 328 L471 375 Q341 238 174 90 Q137 113 121 150 Q280 311 447 466 ZM773 334 Q850 266 910 183 Q890 160 856 137 Q779 193 717 289 Q745 314 773 334 Z" /><glyph glyph-name="uni6735" unicode="&#x6735;" d="M462 667 Q595 662 726 641 Q718 509 710 383 Q735 374 775 366 Q775 339 769 312 Q762 306 709 306 Q669 308 628 320 Q628 464 638 573 Q541 583 452 592 Q452 633 462 667 ZM341 691 Q381 688 413 680 Q393 507 341 292 Q298 294 266 308 Q288 503 341 691 ZM552 302 Q558 261 563 214 Q734 212 819 208 Q822 191 822 175 L822 141 Q784 134 569 132 Q576 42 585 -89 Q564 -100 535 -100 Q487 -100 455 -94 Q448 -71 448 -39 Q478 -39 499 -37 Q491 53 485 132 Q463 132 435 132 Q304 132 243 141 Q238 158 238 177 Q238 195 241 212 Q323 214 437 214 Q463 214 481 214 Q479 254 478 297 Q515 302 552 302 ZM292 82 Q337 70 362 41 Q332 -17 275 -80 Q234 -71 213 -43 Q239 17 292 82 ZM747 85 Q810 51 880 0 Q869 -29 844 -64 Q769 -33 704 20 Q725 57 747 85 Z" /><glyph glyph-name="uni6740" unicode="&#x6740;" d="M531 400 Q537 358 542 311 Q735 309 834 305 Q837 289 837 273 L837 239 Q792 232 548 230 Q557 120 566 -47 Q546 -57 517 -57 Q472 -57 439 -52 Q432 -29 432 2 Q459 2 476 4 Q467 125 461 230 L370 230 Q239 230 177 239 Q172 256 172 275 Q172 293 175 309 Q257 311 372 311 L458 311 Q456 352 455 395 Q494 400 531 400 ZM289 163 Q333 151 358 122 Q321 54 254 -19 Q214 -10 192 17 Q226 87 289 163 ZM721 161 Q787 127 858 75 Q847 46 822 13 Q746 44 680 98 Q702 133 721 161 ZM688 727 Q717 709 737 682 Q666 625 571 565 Q673 515 785 457 Q771 428 746 398 Q600 452 477 510 Q381 455 254 391 Q221 408 207 440 Q299 503 384 556 Q309 594 233 639 Q249 675 270 705 Q377 658 477 611 Q579 671 688 727 Z" /><glyph glyph-name="uni6765" unicode="&#x6765;" d="M132 341 Q294 341 445 339 L445 383 Q445 483 446 552 Q307 554 196 559 Q192 570 192 597 Q192 613 198 634 Q330 634 448 631 Q450 707 454 750 Q472 755 492 755 Q511 755 529 750 Q531 686 533 630 Q657 627 788 621 L788 587 Q788 564 783 550 Q643 550 535 551 Q537 446 539 338 Q685 336 838 332 L838 298 Q838 275 833 261 Q669 261 540 262 Q542 121 542 -33 Q526 -39 504 -39 Q486 -39 465 -36 Q450 85 446 262 Q269 263 131 266 Q125 277 125 304 Q125 321 132 341 ZM379 227 Q405 201 418 170 Q319 91 190 17 Q161 41 148 70 Q247 151 379 227 ZM689 519 Q716 512 744 500 Q722 402 661 343 Q640 343 608 358 Q627 441 689 519 ZM304 533 Q327 489 343 449 Q361 410 374 374 Q346 354 312 347 Q267 426 241 509 Q274 525 304 533 ZM624 215 Q724 165 821 107 Q808 80 784 51 Q674 96 589 150 Q605 185 624 215 Z" /><glyph glyph-name="uni67D4" unicode="&#x67d4;" d="M478 572 Q550 564 613 552 Q627 591 639 623 Q433 634 220 648 Q224 691 234 727 Q353 723 479 713 Q656 700 748 689 Q740 623 701 532 Q723 526 755 518 Q748 483 731 443 Q560 462 451 501 Q465 547 478 572 ZM595 437 Q692 437 808 426 L808 352 Q808 316 798 247 Q787 244 762 244 Q739 244 723 249 Q723 312 726 349 Q670 357 589 357 L589 357 Q597 273 601 185 Q563 178 524 178 Q510 271 506 357 Q391 356 272 353 Q264 368 264 389 Q264 409 269 426 Q393 437 595 437 ZM462 137 Q459 145 454 162 Q495 178 533 178 Q542 154 547 137 Q642 137 704 130 Q711 118 711 94 Q711 68 705 58 Q688 52 570 52 Q593 -32 606 -125 Q576 -138 534 -138 Q488 -138 443 -126 Q440 -112 440 -100 L440 -67 Q498 -75 517 -75 Q505 -10 488 52 Q282 53 257 58 Q252 75 252 95 Q252 115 259 134 Q357 136 462 137 ZM330 22 Q359 0 376 -34 Q336 -73 250 -117 Q220 -86 207 -56 Q260 -17 330 22 ZM428 327 Q450 296 461 265 Q385 204 297 183 Q274 213 262 243 Q342 298 428 327 ZM712 28 Q795 7 867 -34 Q857 -66 832 -99 Q765 -83 683 -43 Q692 -5 712 28 Z" /><glyph glyph-name="uni67E5" unicode="&#x67e5;" d="M798 641 Q803 624 803 607 Q803 582 800 568 Q674 563 558 560 Q567 458 568 353 Q553 348 530 348 Q510 348 494 351 Q481 425 475 485 Q328 387 176 303 Q150 329 138 362 Q283 468 434 557 Q335 555 215 554 Q210 588 210 623 Q335 628 464 633 Q462 665 461 703 Q483 708 501 708 L541 708 Q547 666 551 635 Q666 638 798 641 ZM702 506 Q785 467 870 419 Q864 400 854 388 Q847 375 835 359 Q745 387 665 445 Q678 480 702 506 ZM830 -19 Q835 -34 835 -52 Q835 -76 832 -88 Q527 -97 207 -100 Q202 -68 202 -32 Q481 -24 830 -19 ZM373 203 Q478 203 542 204 Q547 187 547 170 Q547 154 545 137 Q486 128 369 128 Q346 128 335 129 Q336 110 337 90 Q509 81 679 81 Q683 97 683 136 Q683 179 680 229 Q465 238 407 244 Q399 256 399 279 Q399 294 402 312 Q580 311 750 297 Q760 259 760 136 Q760 59 756 19 Q663 11 453 11 Q357 11 271 27 Q257 59 257 135 Q257 180 260 300 Q277 306 297 306 Q312 306 331 300 Q331 270 333 202 Q348 203 373 203 Z" /><glyph glyph-name="uni6821" unicode="&#x6821;" d="M246 585 Q268 585 281 579 Q289 509 293 443 L294 443 Q359 443 389 436 Q390 422 390 406 L390 376 Q377 366 297 366 Q299 320 301 270 Q354 245 409 216 Q400 184 380 152 Q331 167 303 182 Q305 110 305 25 Q290 20 267 20 Q242 20 229 23 Q223 110 219 180 Q186 157 128 124 Q99 152 85 183 Q145 232 214 279 Q212 325 210 367 Q151 370 113 374 Q109 391 109 408 Q109 426 112 441 Q160 442 209 443 Q207 510 207 578 Q216 583 246 585 ZM765 447 Q852 397 936 338 Q924 310 897 280 Q803 327 729 382 Q746 416 765 447 ZM537 455 Q571 442 599 422 Q558 338 498 247 Q460 260 432 285 Q486 382 537 455 ZM714 692 Q729 627 732 580 Q824 576 926 568 Q926 533 918 501 Q677 501 437 519 Q437 556 445 591 Q551 590 645 584 Q636 627 636 685 Q677 692 714 692 ZM803 237 Q833 220 854 192 Q809 130 747 63 Q806 17 868 -34 Q856 -67 821 -92 Q747 -43 686 3 Q638 -43 573 -100 Q539 -82 524 -50 Q574 7 619 57 Q561 103 505 159 Q525 192 550 215 Q617 165 677 118 Q736 180 803 237 Z" /><glyph glyph-name="uni6848" unicode="&#x6848;" d="M588 733 Q594 694 596 669 Q742 666 874 656 Q878 604 878 572 Q878 512 872 482 Q858 479 834 479 Q814 479 794 482 Q794 528 793 578 Q676 587 553 591 Q418 589 280 587 Q273 604 273 626 Q273 662 280 662 Q386 665 506 669 Q503 692 503 725 Q546 733 588 733 ZM443 562 Q478 555 513 534 Q506 510 500 494 Q595 490 715 484 Q715 450 707 413 Q586 413 476 418 Q466 385 455 352 Q519 341 584 330 Q594 363 608 401 Q648 397 690 386 Q678 348 666 317 Q692 314 725 309 Q725 270 706 244 Q670 246 644 249 Q637 227 628 200 Q585 204 552 222 Q558 246 562 259 Q456 273 350 300 Q370 372 387 422 Q351 425 305 428 L305 466 Q305 480 308 497 Q362 497 414 496 Q427 530 443 562 ZM534 218 Q540 193 543 169 Q687 168 759 164 Q762 147 762 131 L762 97 Q730 88 552 87 Q560 16 567 -88 Q550 -100 522 -100 Q475 -100 443 -94 Q435 -71 435 -39 Q464 -39 481 -37 Q474 29 469 87 L457 87 Q326 87 264 96 Q259 113 259 132 Q259 150 262 167 Q344 169 459 169 L464 169 Q463 188 462 213 Q499 218 534 218 ZM289 65 Q334 54 360 24 Q330 -26 275 -80 Q234 -71 212 -43 Q239 9 289 65 ZM731 70 Q795 41 863 -4 Q851 -33 826 -69 Q753 -41 689 7 Q712 43 731 70 ZM190 659 Q210 659 231 652 Q231 564 225 457 Q209 450 182 450 Q156 450 141 461 Q141 589 148 656 Q170 659 190 659 Z" /><glyph glyph-name="uni68A6" unicode="&#x68a6;" d="M113 680 Q185 680 247 678 Q246 711 246 748 Q254 754 284 756 Q306 756 320 751 Q323 711 326 677 Q386 675 455 672 L455 641 Q455 624 448 606 Q383 606 329 607 Q330 582 331 556 Q386 542 445 515 Q441 484 425 449 Q366 460 334 473 Q335 429 335 374 Q319 369 296 369 Q270 369 258 372 Q255 427 253 467 Q196 434 131 401 Q106 425 95 457 Q170 509 250 554 Q249 584 248 609 Q185 610 115 613 Q110 635 110 649 Q110 662 113 680 ZM845 666 Q848 651 848 635 L848 602 Q788 597 740 594 Q747 487 747 363 Q731 358 708 358 Q682 358 670 361 Q665 416 662 456 Q603 428 538 401 Q512 425 501 458 Q577 501 657 538 Q655 567 654 591 Q590 588 518 588 Q511 621 511 656 Q585 661 652 663 Q651 707 651 754 Q660 760 689 762 Q711 762 725 757 Q731 708 735 665 Q785 666 845 666 ZM787 540 Q840 530 892 506 Q888 476 873 440 Q805 452 762 477 Q775 517 787 540 ZM380 397 Q422 387 446 359 Q387 244 280 121 Q241 130 222 156 Q276 272 380 397 ZM457 310 Q599 277 736 221 Q659 63 570 -62 Q526 -50 503 -27 Q554 65 622 178 Q533 210 433 242 Q444 279 457 310 ZM403 171 Q462 164 531 128 Q524 99 508 72 Q437 77 384 113 Q390 145 403 171 Z" /><glyph glyph-name="uni697C" unicode="&#x697c;" d="M239 610 Q261 610 275 605 Q282 538 286 475 Q347 475 377 468 Q379 453 379 437 L379 405 Q365 395 290 395 Q293 357 294 318 Q342 298 392 273 Q383 242 364 211 Q321 222 297 233 Q298 174 298 104 Q283 99 260 99 Q234 99 222 102 Q216 178 212 241 Q179 218 118 188 Q89 216 76 246 Q136 290 208 332 Q206 365 205 396 Q128 397 83 404 Q78 421 78 439 Q78 457 81 473 Q138 474 203 475 Q201 537 201 602 Q209 608 239 610 ZM683 740 Q695 640 701 552 Q787 547 879 540 Q879 510 869 471 Q783 471 705 475 L705 470 Q784 442 877 395 Q867 369 845 340 Q768 362 708 391 Q710 361 710 323 Q695 318 674 318 Q652 318 637 321 Q630 373 627 412 Q618 404 601 391 Q575 371 545 347 Q511 319 475 297 Q445 317 426 347 Q510 423 586 482 Q516 485 428 495 Q428 533 435 566 Q531 562 614 557 Q607 643 606 734 Q628 740 645 740 L683 740 ZM435 709 Q501 681 560 633 Q546 602 520 580 Q453 612 400 656 Q416 686 435 709 ZM816 724 Q845 717 875 703 Q857 625 804 578 Q782 578 746 594 Q762 662 816 724 ZM462 248 Q531 244 590 239 Q616 273 643 307 Q680 296 708 275 Q690 248 678 232 Q783 224 895 211 Q895 184 886 147 Q755 147 627 160 Q603 126 581 97 Q630 82 679 64 Q704 96 730 130 Q772 126 801 107 Q775 67 754 37 Q780 28 814 15 Q805 -16 783 -46 Q741 -34 710 -23 L712 -22 Q704 -33 696 -42 Q689 -55 669 -72 Q632 -60 605 -37 Q623 -13 633 3 Q551 32 477 68 Q512 127 540 169 Q503 173 455 181 Q455 217 462 248 Z" /><glyph glyph-name="uni6B63" unicode="&#x6b63;" d="M639 318 Q752 318 813 316 L813 247 Q714 239 564 238 Q566 138 566 32 Q760 31 860 28 Q863 11 863 -5 L863 -40 Q804 -51 356 -51 Q221 -51 159 -42 Q154 -24 154 -5 Q154 13 157 30 Q204 31 252 32 Q236 168 229 312 Q262 318 303 323 Q324 173 332 32 Q342 32 358 32 Q428 32 483 32 Q477 274 477 487 Q486 493 517 495 Q542 495 556 490 Q560 402 562 314 Q592 317 639 318 ZM171 631 Q514 631 854 614 L854 579 Q854 555 849 541 Q424 541 170 554 Q164 564 164 593 Q164 611 171 631 Z" /><glyph glyph-name="uni6C14" unicode="&#x6c14;" d="M286 727 Q323 723 356 706 Q338 657 323 619 Q485 616 703 592 Q703 560 696 522 Q489 522 294 548 Q263 471 224 390 Q184 402 158 421 Q214 574 286 727 ZM512 280 Q657 280 797 276 Q833 126 868 -12 Q891 -9 918 0 Q931 -23 935 -58 Q892 -81 814 -84 Q756 79 732 206 Q512 206 285 205 Q281 224 281 239 Q281 257 284 273 Q369 280 512 280 ZM443 444 Q597 444 688 437 Q692 420 692 401 Q692 386 691 369 L439 369 Q389 369 365 374 Q356 387 356 405 Q356 424 362 440 Q382 444 443 444 Z" /><glyph glyph-name="uni6C38" unicode="&#x6c38;" d="M220 654 Q501 647 780 611 Q780 576 772 543 Q492 543 212 583 Q212 619 220 654 ZM278 397 Q447 392 628 368 Q635 334 635 149 Q631 -34 619 -54 Q609 -61 582 -61 Q557 -61 545 -49 Q545 167 541 295 Q489 295 413 306 Q308 313 275 321 Q275 365 278 397 ZM152 218 Q304 198 442 158 Q374 26 276 -92 Q236 -79 213 -57 Q300 66 318 106 Q271 120 129 148 Q133 184 152 218 ZM751 88 Q821 52 892 7 Q886 -10 875 -24 Q867 -39 854 -55 Q777 -30 710 23 Q724 60 751 88 ZM864 308 Q889 277 891 241 Q828 196 742 176 Q718 201 708 241 Q777 283 864 308 Z" /><glyph glyph-name="uni6CA1" unicode="&#x6ca1;" d="M173 637 Q254 629 348 585 Q340 551 321 520 Q224 526 151 570 Q158 606 173 637 ZM115 378 Q202 373 280 364 Q278 344 276 328 Q273 303 268 289 Q226 289 187 293 Q149 296 107 303 Q107 339 115 378 ZM284 169 Q308 137 318 105 Q256 59 186 43 Q162 74 151 105 Q217 146 284 169 ZM485 673 Q516 673 550 668 Q550 513 510 371 Q479 371 445 376 Q445 520 485 673 ZM496 181 Q567 156 625 132 Q649 176 667 206 Q570 231 443 258 Q443 295 455 327 Q617 320 779 268 Q779 232 700 103 Q758 80 820 52 Q811 17 795 -15 Q719 8 657 34 Q630 -8 593 -65 Q561 -52 533 -27 Q562 25 584 63 Q531 86 473 114 Q482 153 496 181 ZM581 673 Q688 670 796 656 Q788 544 780 439 Q809 430 855 421 Q855 393 849 365 Q842 359 788 359 Q744 361 700 374 Q700 498 710 591 Q640 597 572 602 Q572 640 581 673 Z" /><glyph glyph-name="uni6CD5" unicode="&#x6cd5;" d="M167 594 Q250 585 346 540 Q338 506 318 474 Q220 480 145 525 Q153 562 167 594 ZM108 328 Q196 323 276 314 Q274 294 272 277 Q270 252 264 237 Q221 237 181 242 Q142 245 99 252 Q99 289 108 328 ZM282 114 Q306 82 314 49 Q253 1 181 -13 Q157 17 145 49 Q212 92 282 114 ZM555 243 Q583 241 599 233 Q574 150 555 71 Q622 63 791 47 Q797 31 797 15 Q797 1 791 -20 Q597 -20 448 12 Q472 136 520 240 Q531 243 555 243 ZM869 133 Q902 92 914 11 Q882 -5 848 -10 Q813 42 807 115 Q834 129 869 133 ZM616 568 Q617 600 619 640 Q639 645 658 645 Q680 645 698 640 Q700 598 701 568 Q790 568 849 561 Q854 549 854 525 Q854 501 849 491 Q832 484 703 484 Q704 460 704 434 Q704 396 701 369 Q831 368 900 363 Q901 348 901 332 L901 299 Q863 290 586 290 Q458 290 397 299 Q392 315 392 334 Q392 351 395 367 Q475 369 588 369 Q605 369 615 369 Q612 396 612 428 Q612 458 613 484 Q476 485 458 491 Q454 507 454 527 Q454 546 460 565 Q538 567 616 568 Z" /><glyph glyph-name="uni6CFB" unicode="&#x6cfb;" d="M166 623 Q240 615 325 567 Q316 532 298 502 Q210 508 144 557 Q151 593 166 623 ZM121 366 Q203 361 277 351 Q275 332 273 315 Q270 291 265 276 Q225 276 188 281 Q152 284 113 291 Q113 327 121 366 ZM283 177 Q307 145 316 113 Q254 58 180 38 Q156 69 144 100 Q212 150 283 177 ZM410 698 Q428 698 447 692 Q447 586 438 456 Q423 451 400 451 Q376 451 363 461 Q363 614 372 695 Q392 698 410 698 ZM496 688 Q710 688 916 676 Q919 569 919 473 Q905 467 885 467 Q873 467 847 469 Q844 516 840 606 Q676 606 499 617 Q494 635 494 654 Q494 668 496 688 ZM682 454 Q772 454 831 447 Q836 436 836 414 Q836 391 831 382 Q814 376 682 376 Q594 376 559 378 Q554 339 549 301 Q685 293 830 274 Q828 123 790 -23 Q772 -28 733 -28 Q705 -28 654 -20 L654 27 Q699 33 730 33 Q737 133 744 212 Q623 216 470 241 Q470 391 502 536 Q541 536 574 527 Q571 486 567 452 Q619 454 682 454 ZM698 166 Q703 148 703 132 L703 97 Q546 77 383 68 Q377 103 377 138 Q458 149 536 155 Q615 163 698 166 Z" /><glyph glyph-name="uni6D6A" unicode="&#x6d6a;" d="M165 594 Q248 585 344 540 Q336 506 316 474 Q218 480 141 525 Q151 562 165 594 ZM106 328 Q194 323 274 314 Q272 294 270 277 Q268 252 262 237 Q219 237 179 242 Q140 245 97 252 Q97 289 106 328 ZM280 114 Q304 82 312 49 Q251 1 179 -13 Q155 17 142 49 Q210 92 280 114 ZM701 689 Q717 624 720 578 Q792 572 877 563 Q889 513 889 426 Q889 277 885 229 Q854 207 762 207 Q650 207 582 217 Q577 235 577 250 Q577 273 584 283 Q699 286 805 287 Q805 389 793 490 Q639 497 441 519 Q441 562 448 593 Q535 593 636 585 Q627 626 627 682 Q665 689 701 689 ZM683 182 Q722 152 754 128 Q793 159 839 190 Q868 168 892 140 Q872 123 845 104 Q830 95 814 84 Q810 81 811 82 Q852 50 895 12 Q876 -20 846 -40 Q730 43 633 131 Q656 160 683 182 ZM540 407 L659 407 Q664 390 664 371 Q664 356 662 339 Q621 330 536 330 Q511 330 499 331 Q495 178 495 50 Q539 48 602 43 Q606 27 606 14 Q606 -2 602 -23 Q564 -28 502 -28 Q464 -28 421 -24 Q411 19 411 191 Q411 324 423 454 Q444 457 463 457 Q484 455 501 450 Q500 424 500 406 Q514 407 540 407 Z" /><glyph glyph-name="uni6D77" unicode="&#x6d77;" d="M565 711 Q603 694 636 668 Q610 623 589 592 Q729 586 888 572 Q888 539 881 501 Q694 501 540 519 Q493 454 438 389 Q428 389 401 405 Q377 420 372 430 Q447 553 565 711 ZM457 350 Q471 350 501 344 Q527 335 533 328 Q520 268 508 220 Q668 214 826 199 Q833 260 840 317 Q697 323 546 336 Q546 368 552 405 Q738 402 920 389 Q920 290 908 192 Q922 191 942 188 Q942 156 935 126 L900 126 Q889 45 867 -47 Q833 -47 803 -36 Q810 50 818 127 Q652 131 488 145 Q472 82 457 27 Q582 2 742 -17 Q740 -54 731 -84 Q454 -62 362 -21 Q370 31 403 152 Q379 154 346 159 Q346 192 353 225 Q391 224 421 223 Q436 278 457 350 ZM104 355 Q172 355 257 341 Q257 300 245 267 Q147 267 93 283 Q93 318 104 355 ZM188 618 Q263 611 348 567 Q341 531 321 500 Q232 506 166 550 Q173 588 188 618 ZM288 100 Q312 67 322 35 Q260 -12 187 -29 Q163 2 151 34 Q217 77 288 100 ZM689 328 Q723 292 749 248 Q723 224 687 208 Q650 246 626 289 Q652 310 689 328 ZM647 133 Q680 92 705 44 Q678 20 640 3 Q606 44 583 91 Q610 112 647 133 Z" /><glyph glyph-name="uni6DF1" unicode="&#x6df1;" d="M92 383 Q162 383 247 368 Q247 327 233 295 Q136 295 82 311 Q82 347 92 383 ZM228 149 Q257 118 257 83 Q221 58 123 35 Q103 62 96 95 Q157 132 228 149 ZM153 621 Q229 614 318 574 Q310 539 292 509 Q200 514 131 554 Q138 591 153 621 ZM421 694 Q439 694 460 687 Q460 598 447 487 Q431 482 407 482 Q381 482 368 492 Q368 621 380 691 Q400 694 421 694 ZM512 497 Q552 488 579 468 Q557 406 510 343 Q470 353 439 375 Q465 438 512 497 ZM732 492 Q741 458 743 430 Q786 430 833 432 Q842 404 842 367 Q764 354 674 354 Q658 386 658 487 Q696 492 732 492 ZM501 669 Q710 667 935 652 Q935 573 927 513 Q908 508 889 508 Q865 508 850 518 L850 582 Q677 586 501 601 Q496 617 496 637 Q496 652 501 669 ZM412 247 Q502 247 582 246 Q581 278 581 314 Q590 320 620 322 Q642 322 656 317 Q660 277 662 245 Q744 244 834 242 L834 207 Q834 187 826 166 Q741 166 668 167 Q674 54 674 -74 Q657 -80 635 -80 Q607 -80 595 -76 Q590 1 587 61 Q518 21 441 -18 Q416 8 405 41 Q490 100 584 152 Q583 162 583 168 Q503 169 414 171 Q409 195 409 212 Q409 228 412 247 ZM718 98 Q790 86 861 56 Q858 25 842 -9 Q751 4 692 34 Q706 75 718 98 Z" /><glyph glyph-name="uni6EE1" unicode="&#x6ee1;" d="M723 274 Q782 220 819 171 Q818 232 815 300 Q772 301 730 303 Q729 291 726 273 Q725 270 725 275 L723 274 ZM711 183 Q702 134 687 74 Q653 74 621 81 Q621 109 622 126 Q620 124 603 113 Q555 150 523 191 Q512 144 495 88 L453 94 Q438 98 425 105 Q440 210 469 315 Q451 316 423 317 Q423 349 429 379 Q462 379 486 378 Q495 410 505 439 Q400 439 345 447 Q340 464 340 482 Q340 499 343 515 Q421 517 531 517 Q797 517 907 511 Q910 495 910 480 L910 447 Q880 441 748 440 Q745 413 740 371 Q810 367 892 362 Q900 244 900 147 Q900 43 894 -18 Q883 -33 765 -33 Q755 -6 755 16 Q790 22 822 24 Q821 77 820 124 Q813 118 793 104 Q743 140 711 183 ZM657 374 Q663 407 670 439 L578 439 Q572 406 566 377 Q611 376 657 374 ZM626 178 Q631 230 644 306 Q598 308 552 311 Q548 292 543 273 Q593 225 626 178 ZM385 699 Q436 699 481 698 Q484 733 490 766 Q507 767 524 767 Q541 767 558 761 Q558 726 557 696 Q618 694 685 690 Q689 731 697 766 Q714 767 731 767 Q748 767 765 761 Q765 721 762 686 Q811 683 870 679 Q870 648 863 613 Q804 613 757 614 Q754 581 748 539 Q734 534 713 534 Q690 534 679 543 Q679 586 680 616 Q616 618 553 623 Q550 580 545 527 Q531 523 510 523 Q487 523 475 532 Q475 588 477 628 Q433 631 382 636 L382 670 Q382 683 385 699 ZM370 307 Q387 307 403 302 Q409 239 409 197 Q409 75 403 5 Q392 -3 370 -3 Q348 -3 337 5 Q327 85 327 197 Q327 251 338 302 Q355 307 370 307 ZM151 639 Q232 631 326 587 Q317 553 299 522 Q202 528 128 572 Q136 608 151 639 ZM92 380 Q179 375 259 366 Q255 346 253 330 Q251 305 244 291 Q203 291 164 295 Q126 298 84 305 Q84 341 92 380 ZM262 171 Q286 139 296 107 Q234 60 164 45 Q140 76 129 107 Q193 148 262 171 Z" /><glyph glyph-name="uni6F3E" unicode="&#x6f3e;" d="M505 698 Q523 698 543 692 Q543 658 541 628 Q631 625 718 620 Q734 661 757 703 Q792 695 827 679 Q815 642 802 615 Q851 611 910 606 Q910 570 903 536 Q780 536 671 542 Q673 525 673 510 Q766 509 815 506 Q816 490 816 475 L816 445 Q795 434 676 433 Q677 419 677 406 Q801 405 865 402 Q866 387 866 371 L866 340 Q832 330 591 330 Q469 330 412 338 Q408 354 408 371 Q408 389 411 404 Q486 406 593 406 L591 406 Q589 421 588 433 Q496 434 449 442 Q444 459 444 475 Q444 492 447 508 Q508 510 584 510 Q582 528 582 545 Q472 551 356 561 Q356 600 365 631 Q419 631 461 630 Q462 667 464 695 Q485 698 505 698 ZM431 89 Q524 78 603 57 Q592 16 578 -17 Q562 -65 547 -82 Q508 -76 483 -63 Q494 -26 503 3 Q454 11 410 22 Q418 61 431 89 ZM473 200 Q621 193 745 181 Q745 38 728 -103 Q688 -103 649 -90 Q659 8 660 108 Q574 113 470 136 Q468 156 468 168 Q468 183 473 200 ZM792 26 Q846 15 906 0 Q902 -32 885 -66 Q822 -59 769 -40 Q777 -2 792 26 ZM608 323 Q684 294 762 254 Q755 235 746 222 Q738 208 725 192 Q644 214 571 262 Q584 297 608 323 ZM875 168 Q899 139 901 105 Q857 77 798 62 Q774 86 766 125 Q814 152 875 168 ZM164 608 Q248 600 346 555 Q338 520 318 488 Q217 494 139 539 Q149 576 164 608 ZM102 342 Q194 338 274 327 Q272 308 270 291 Q268 266 262 251 Q218 251 178 256 Q138 259 94 265 Q94 302 102 342 ZM281 129 Q305 96 313 63 Q250 15 177 0 Q153 32 140 63 Q209 106 281 129 Z" /><glyph glyph-name="uni7075" unicode="&#x7075;" d="M247 746 Q373 746 491 744 Q605 741 695 733 Q709 693 709 564 Q709 426 704 400 Q628 384 254 384 Q245 396 245 418 Q245 439 249 454 Q342 458 630 463 Q630 485 628 522 Q596 521 528 521 Q300 521 276 527 Q272 542 272 560 Q272 578 278 595 Q393 599 528 599 Q587 599 625 596 Q623 626 621 661 Q499 662 244 674 Q242 695 242 710 Q242 729 247 746 ZM238 323 Q261 280 277 242 Q295 204 308 169 Q276 145 236 137 Q190 214 163 294 Q202 313 238 323 ZM481 364 Q525 360 556 339 Q530 276 463 108 Q586 69 709 21 Q700 -14 684 -45 Q549 -6 436 40 Q418 -4 394 -63 Q354 -57 323 -39 Q368 132 481 364 ZM733 282 Q776 271 801 244 Q776 188 730 128 Q690 137 670 163 Q691 220 733 282 Z" /><glyph glyph-name="uni707C" unicode="&#x707c;" d="M612 675 Q648 662 678 641 Q651 588 625 540 Q769 523 936 497 Q936 277 873 -60 Q861 -66 833 -66 Q782 -66 716 -52 Q716 -33 718 5 Q767 1 803 0 Q842 213 850 432 Q714 450 584 468 Q553 411 512 349 Q473 363 444 389 Q532 553 612 675 ZM571 289 Q652 254 733 208 Q726 188 716 175 Q707 159 694 142 Q607 169 530 223 Q545 262 571 289 ZM275 540 Q310 535 344 522 Q316 359 284 221 Q333 207 394 184 Q390 155 373 117 Q309 124 265 143 Q255 103 242 57 L196 64 Q179 68 164 76 Q181 198 213 326 Q152 346 102 380 Q115 418 131 445 Q188 423 234 400 Q250 465 275 540 ZM420 407 Q447 386 463 353 Q432 320 363 281 Q335 308 323 337 Q365 371 420 407 Z" /><glyph glyph-name="uni70AB" unicode="&#x70ab;" d="M257 630 Q293 625 323 612 Q296 390 260 199 Q311 185 375 165 Q371 136 354 99 Q292 106 246 124 Q236 74 224 18 L180 25 Q164 29 150 37 Q166 190 197 354 Q121 379 64 421 Q77 459 93 486 Q159 458 212 431 Q232 524 257 630 ZM399 434 Q428 412 441 380 Q411 342 336 296 Q309 324 296 353 Q340 393 399 434 ZM639 726 Q702 668 751 601 Q726 577 690 561 Q623 619 578 686 Q603 707 639 726 ZM426 555 Q676 555 924 532 L924 498 Q924 475 917 461 Q609 461 425 480 Q419 490 419 517 Q419 535 426 555 ZM600 433 Q635 423 662 394 Q617 314 576 233 Q614 212 654 194 Q689 244 736 312 Q766 295 799 267 Q733 165 645 28 Q667 27 781 25 Q779 -6 773 -44 Q626 -41 590 -35 Q539 -30 523 -18 Q532 6 593 103 Q603 119 609 129 Q531 160 468 208 Q519 324 600 433 ZM845 139 Q890 87 926 24 Q898 0 861 -18 Q813 37 780 98 Q807 120 845 139 Z" /><glyph glyph-name="uni70B9" unicode="&#x70b9;" d="M432 697 Q471 697 513 691 Q513 635 510 591 Q587 593 680 593 Q781 593 846 584 Q851 572 851 549 Q851 523 846 513 Q827 507 680 507 Q553 507 505 509 Q501 468 492 422 Q455 422 413 428 Q413 559 432 697 ZM548 397 Q673 390 729 376 Q743 332 743 259 Q743 186 735 141 Q710 116 591 116 Q280 126 190 154 Q180 190 180 263 Q180 312 191 381 Q212 386 236 386 Q258 386 280 381 Q280 273 276 214 Q420 199 583 197 Q622 197 654 202 Q652 257 650 307 Q523 321 352 321 Q347 341 347 358 Q347 376 352 392 Q439 397 548 397 ZM237 65 Q273 57 308 41 Q295 -47 255 -102 Q226 -102 184 -81 Q196 -4 237 65 ZM481 19 Q501 19 520 13 Q520 -37 514 -97 Q499 -104 473 -104 Q448 -104 434 -92 Q434 -22 441 17 Q462 19 481 19 ZM780 46 Q807 13 817 -49 Q788 -66 759 -69 Q729 -29 724 29 Q749 42 780 46 ZM648 26 Q672 -7 681 -73 Q649 -90 615 -95 Q588 -52 584 8 Q610 21 648 26 Z" /><glyph glyph-name="uni70BC" unicode="&#x70bc;" d="M240 631 Q274 626 305 614 Q279 413 246 240 Q294 227 352 208 Q348 181 333 145 Q274 151 232 167 Q223 120 211 68 L168 75 Q152 78 139 86 Q155 232 185 386 Q113 409 57 449 Q70 486 86 515 Q150 487 200 461 Q217 539 240 631 ZM375 465 Q402 444 417 412 Q386 375 317 332 Q290 359 277 387 Q319 425 375 465 ZM447 626 Q524 626 593 623 Q613 671 638 726 Q670 716 702 697 Q687 654 675 620 Q787 614 909 600 L909 569 Q909 548 904 535 Q757 535 647 540 Q632 500 620 466 Q698 464 731 461 Q735 377 737 307 Q793 302 856 296 Q856 264 849 234 Q784 235 739 236 Q743 116 743 3 Q662 -5 613 -5 Q606 23 606 53 Q640 60 666 62 Q666 151 661 239 Q512 248 456 271 Q476 328 501 396 Q468 397 427 399 Q422 417 422 435 Q422 452 427 468 Q487 468 529 467 Q534 481 541 498 Q552 524 560 545 Q501 550 446 557 Q440 567 440 592 Q440 608 447 626 ZM657 314 Q654 354 649 393 Q621 393 594 394 Q580 355 567 322 Q612 318 657 314 ZM510 201 Q551 190 576 164 Q546 108 495 49 Q456 58 437 83 Q461 140 510 201 ZM812 196 Q871 170 937 128 Q925 100 900 67 Q831 91 771 134 Q792 169 812 196 Z" /><glyph glyph-name="uni70ED" unicode="&#x70ed;" d="M512 630 Q565 626 609 621 Q628 671 648 725 Q688 721 717 706 Q705 655 693 612 Q769 604 859 591 Q843 453 826 325 Q846 321 878 314 Q878 285 868 254 Q799 258 738 283 Q751 411 768 527 Q718 532 671 538 Q661 504 648 468 Q638 439 628 413 Q658 404 697 389 Q689 358 672 321 Q630 330 600 340 Q592 320 583 291 Q572 261 552 224 Q517 231 484 246 Q504 311 522 367 Q497 376 466 390 Q478 426 493 458 Q524 449 547 441 Q566 498 585 551 Q546 557 501 566 Q505 606 512 630 ZM244 137 Q280 128 314 113 Q301 30 261 -21 Q234 -21 193 -1 Q204 70 244 137 ZM436 102 Q454 102 473 94 Q473 46 467 -13 Q452 -19 428 -19 Q404 -19 391 -8 Q391 61 398 99 Q417 102 436 102 ZM786 127 Q820 84 832 1 Q801 -16 768 -20 Q730 33 724 109 Q751 122 786 127 ZM628 106 Q651 69 659 -3 Q628 -21 595 -25 Q569 22 565 89 Q591 102 628 106 ZM261 584 Q258 623 256 668 Q291 675 331 677 Q336 625 340 583 Q391 582 433 577 Q437 564 437 543 Q437 519 433 510 Q419 505 347 504 Q351 459 354 416 Q380 418 413 418 Q418 402 418 388 Q418 371 413 356 Q390 349 358 346 Q362 297 364 245 Q335 235 289 235 Q284 290 279 336 Q250 333 202 330 Q186 355 186 400 Q235 408 273 411 Q268 458 265 504 Q173 504 159 511 Q156 526 156 545 Q156 563 162 580 Q212 584 261 584 Z" /><glyph glyph-name="uni7126" unicode="&#x7126;" d="M189 500 Q158 493 115 489 Q104 521 101 554 Q220 601 365 622 Q380 589 380 558 Q321 532 270 519 Q283 394 290 268 Q252 261 212 261 Q195 385 189 500 ZM583 247 L631 247 Q626 270 623 294 Q564 291 502 291 Q494 325 494 363 Q557 367 610 371 Q606 402 603 430 Q514 434 416 442 L416 481 Q416 494 417 513 Q506 513 597 509 Q596 521 596 540 Q617 545 634 545 L672 545 Q677 521 679 505 Q736 501 807 496 Q807 463 800 425 Q741 425 693 427 Q696 402 699 375 Q764 379 841 381 Q846 346 846 307 Q770 300 706 297 Q708 271 710 246 Q767 245 815 244 Q819 226 819 209 Q819 192 818 175 Q740 170 579 170 Q527 170 501 175 Q494 188 494 208 Q494 225 499 242 Q519 247 583 247 ZM461 641 Q549 641 639 638 Q632 666 628 703 Q663 710 702 710 Q713 669 718 636 Q785 633 869 628 Q869 596 863 559 Q658 559 458 572 L458 610 Q458 623 461 641 ZM267 119 Q304 110 340 95 Q326 3 284 -53 Q255 -53 213 -34 Q225 46 267 119 ZM463 71 Q481 71 502 64 Q502 15 495 -45 Q479 -51 455 -51 Q429 -51 416 -40 Q416 29 421 68 Q442 71 463 71 ZM825 79 Q852 46 862 -16 Q831 -33 800 -36 Q770 4 766 62 Q791 74 825 79 ZM657 80 Q683 44 692 -21 Q660 -39 627 -43 Q599 0 595 60 Q622 73 657 80 Z" /><glyph glyph-name="uni7136" unicode="&#x7136;" d="M674 255 Q663 214 649 165 Q610 167 581 179 Q596 296 622 402 Q578 406 527 414 Q527 446 530 479 Q590 478 641 475 Q654 526 673 582 Q710 580 739 573 Q732 520 723 471 Q795 466 875 458 Q875 429 868 392 Q780 392 707 396 Q700 360 692 324 Q765 300 855 262 Q850 232 833 199 Q743 221 674 255 ZM281 686 Q324 675 349 645 Q283 517 161 380 Q121 389 99 417 Q162 547 281 686 ZM355 604 Q440 583 536 556 Q505 448 466 355 Q443 305 423 258 Q403 205 378 159 Q339 163 308 188 Q382 382 435 502 Q380 514 327 530 Q333 571 355 604 ZM248 466 Q309 466 383 448 Q383 413 372 385 Q287 385 240 405 Q240 435 248 466 ZM796 620 Q867 597 935 565 Q926 534 904 503 Q823 521 766 554 Q778 593 796 620 ZM198 353 Q262 353 339 334 Q339 301 329 274 Q239 274 190 297 Q190 323 198 353 ZM267 95 Q301 87 334 71 Q320 -23 279 -81 Q253 -81 214 -62 Q225 19 267 95 ZM483 60 Q503 60 522 54 Q522 -1 515 -68 Q500 -74 474 -74 Q449 -74 435 -63 Q435 15 443 58 Q464 60 483 60 ZM845 75 Q875 39 887 -31 Q855 -48 821 -53 Q788 -7 781 57 Q809 70 845 75 ZM670 63 Q697 25 707 -46 Q676 -65 642 -69 Q611 -22 605 46 Q633 58 670 63 Z" /><glyph glyph-name="uni7269" unicode="&#x7269;" d="M148 586 Q188 582 231 571 Q215 512 200 462 Q229 460 258 457 Q261 501 264 550 Q286 553 305 553 Q327 553 348 548 L348 450 Q382 446 422 440 Q422 407 414 366 Q375 366 347 369 Q346 310 345 256 Q377 259 418 262 Q432 225 432 188 Q384 177 344 171 Q342 95 335 18 Q317 15 294 15 Q272 15 254 20 Q252 92 252 158 Q192 149 119 145 Q106 181 104 219 Q178 235 252 244 Q253 311 255 374 Q215 378 178 384 Q164 334 147 275 Q103 279 71 298 Q101 443 148 586 ZM578 426 Q557 366 528 284 Q486 291 456 308 Q491 462 579 667 Q624 663 655 643 Q640 599 606 506 Q754 483 920 449 Q920 268 868 -7 Q856 -13 825 -13 Q791 -13 741 -2 Q741 16 744 55 Q775 51 796 50 Q824 213 831 382 Q701 404 578 426 ZM505 265 Q547 257 583 238 Q556 151 519 46 Q474 49 441 70 Q465 175 505 265 ZM659 254 Q698 245 733 227 Q707 147 672 49 Q628 52 597 73 Q620 169 659 254 Z" /><glyph glyph-name="uni72B6" unicode="&#x72b6;" d="M467 469 Q548 468 620 463 Q646 537 678 620 Q720 617 750 599 Q733 549 703 458 Q791 453 889 442 Q889 409 881 377 Q775 377 679 382 Q666 341 652 295 Q749 256 845 189 Q832 158 807 138 Q705 180 630 228 Q609 164 582 78 Q543 85 515 101 Q543 235 594 387 Q531 392 459 399 Q459 435 467 469 ZM807 583 Q869 561 927 527 Q918 505 892 465 Q827 489 772 521 Q785 559 807 583 ZM379 673 Q398 673 415 672 Q436 372 436 61 Q421 53 399 53 Q381 53 364 56 Q339 358 339 669 Q358 672 379 673 ZM291 331 Q317 307 333 273 Q294 238 254 209 Q232 192 216 178 Q195 161 170 147 Q142 175 128 205 Q146 224 167 244 Q186 260 206 275 Q224 289 245 304 Q265 316 291 331 ZM129 568 Q226 556 313 540 Q313 507 302 475 Q216 478 123 495 L129 568 Z" /><glyph glyph-name="uni731B" unicode="&#x731b;" d="M450 447 Q525 449 632 449 L674 449 Q668 471 660 498 Q669 538 677 571 Q576 586 468 600 L468 666 Q584 666 778 634 Q778 606 736 488 Q746 467 753 448 Q824 447 867 445 Q870 430 870 414 L870 384 Q851 376 772 374 Q782 321 782 258 Q754 244 719 244 Q644 244 613 255 Q613 281 617 302 Q660 306 702 306 Q698 339 691 373 L630 373 Q508 373 452 380 Q447 397 447 414 Q447 432 450 447 ZM513 178 Q537 178 549 172 Q555 80 556 -11 Q673 -5 804 1 L804 109 Q788 109 776 110 Q775 71 771 20 Q757 15 737 15 Q716 15 705 24 Q705 82 707 115 Q690 116 675 117 Q673 79 667 24 Q653 20 633 20 Q611 20 600 31 Q600 90 604 125 Q593 126 574 128 Q568 141 568 161 Q568 176 574 191 Q722 189 883 175 Q883 75 877 3 Q898 4 928 5 Q933 -10 933 -30 Q933 -53 930 -67 Q696 -83 452 -87 Q447 -53 447 -18 Q470 -17 484 -16 Q477 74 476 168 Q490 176 513 178 ZM189 594 Q234 552 264 504 Q314 527 375 549 Q397 521 406 489 Q351 458 303 433 Q320 396 334 353 Q359 280 370 194 Q382 97 382 -5 Q352 -16 219 -27 Q209 9 209 42 Q257 46 299 50 Q299 128 286 194 Q224 150 134 126 Q113 146 106 180 Q181 234 269 267 Q250 335 221 394 Q161 365 89 339 Q71 366 62 397 Q124 436 184 466 Q159 509 122 556 Q158 579 189 594 Z" /><glyph glyph-name="uni751F" unicode="&#x751f;" d="M265 594 Q308 580 343 561 Q256 365 161 183 Q117 197 91 221 Q170 410 265 594 ZM364 458 Q466 458 556 457 Q562 564 572 649 Q592 652 612 652 Q632 652 651 646 Q651 550 649 456 Q762 455 882 452 L882 417 Q882 392 876 377 Q746 377 647 378 Q645 306 641 233 Q711 230 796 224 Q796 189 788 151 Q708 151 637 156 Q634 86 629 16 Q710 13 811 7 Q811 -27 804 -66 Q601 -66 403 -48 L403 -11 Q403 3 406 20 Q477 20 547 18 Q547 94 548 160 Q483 164 410 171 L410 209 Q410 223 413 240 Q481 240 549 237 Q550 313 553 378 Q450 378 363 379 Q356 390 356 419 Q356 437 364 458 Z" /><glyph glyph-name="uni7528" unicode="&#x7528;" d="M219 585 Q264 582 299 577 Q287 273 260 -27 Q218 -22 180 -17 Q196 294 219 585 ZM557 613 Q698 613 806 609 Q853 292 853 -37 Q783 -51 710 -51 Q698 -30 696 9 Q734 15 768 18 Q759 277 728 532 Q671 529 554 529 Q548 529 549 529 Q551 466 552 401 Q607 397 671 389 Q671 357 662 317 Q601 317 553 320 Q554 284 554 250 Q603 245 659 238 Q659 206 652 166 Q597 166 555 168 Q556 81 556 -17 Q539 -24 512 -24 Q482 -24 469 -21 Q467 84 466 173 Q402 179 338 189 Q338 226 341 262 Q408 260 465 256 Q464 292 464 326 Q408 331 348 341 Q348 378 350 412 Q412 410 463 407 Q463 469 463 526 Q437 525 399 524 Q391 560 391 602 Q461 610 557 613 Z" /><glyph glyph-name="uni754C" unicode="&#x754c;" d="M304 445 Q300 399 296 351 Q339 335 466 326 Q462 375 460 434 Q381 438 304 445 ZM541 323 Q624 320 730 320 Q749 461 751 599 Q591 610 390 633 Q390 670 399 702 Q614 692 836 670 Q836 466 805 257 Q764 247 645 247 Q330 256 213 291 Q213 475 244 652 Q283 652 318 645 Q314 575 308 514 Q386 512 461 508 Q462 549 471 591 Q488 596 505 596 Q522 596 539 591 Q544 536 545 502 Q619 496 700 489 Q700 458 693 428 Q613 428 545 431 Q544 366 541 323 ZM358 256 Q387 228 399 195 Q300 127 169 63 Q139 89 126 119 Q225 189 358 256 ZM689 144 Q700 24 706 -89 Q669 -95 632 -95 Q615 20 609 137 Q646 144 689 144 ZM382 130 Q401 130 422 123 Q422 27 416 -88 Q399 -94 375 -94 Q348 -94 336 -83 Q336 53 341 127 Q362 130 382 130 ZM739 235 Q817 197 896 150 Q890 132 880 120 Q872 105 860 89 Q775 117 701 174 Q714 209 739 235 Z" /><glyph glyph-name="uni755C" unicode="&#x755c;" d="M496 753 Q550 697 590 638 Q738 633 892 622 L892 588 Q892 563 887 549 Q633 549 441 555 Q396 508 352 465 Q390 439 428 412 Q462 454 515 518 Q545 499 578 471 Q521 402 445 312 Q484 307 659 298 Q657 266 650 227 Q456 231 408 241 Q339 249 322 266 Q330 284 378 349 Q298 397 234 466 Q283 516 327 558 Q237 562 151 568 Q145 579 145 607 Q145 625 152 647 Q325 647 484 642 Q459 673 434 715 Q461 735 496 753 ZM717 416 Q779 353 828 276 Q802 253 764 235 Q697 301 652 376 Q679 397 717 416 ZM320 10 Q321 -20 321 -47 Q376 -54 464 -54 Q461 -29 460 0 Q388 4 320 10 ZM545 -54 Q669 -54 724 -50 Q724 22 718 106 Q630 110 544 117 Q547 89 548 66 Q593 62 644 57 Q644 25 638 -4 Q587 -4 548 -3 Q547 -34 545 -54 ZM464 122 Q424 126 375 129 Q375 167 377 200 Q584 194 797 177 Q811 133 811 20 Q811 -47 806 -106 Q788 -129 423 -129 Q314 -129 249 -117 Q232 14 232 189 L310 189 Q315 126 318 80 Q390 78 460 72 Q461 99 464 122 Z" /><glyph glyph-name="uni7684" unicode="&#x7684;" d="M226 477 Q252 476 268 475 Q295 535 342 595 Q383 585 409 565 Q390 514 361 469 Q421 464 482 455 Q482 155 463 11 Q431 0 311 0 Q206 0 129 22 Q114 198 110 437 Q148 442 187 442 Q192 359 196 282 Q209 283 233 283 Q283 283 314 281 Q319 263 319 246 Q319 230 317 214 Q288 208 229 208 Q210 208 200 209 Q203 147 205 86 Q307 76 392 76 Q392 194 401 387 Q307 392 224 409 Q224 444 226 477 ZM673 575 Q704 564 733 541 Q705 478 677 419 Q787 411 909 399 Q909 209 898 42 Q869 35 836 35 Q802 35 772 40 Q770 70 770 96 Q808 98 830 98 Q832 207 836 335 Q734 342 643 350 Q615 296 583 236 Q544 247 514 276 Q587 431 673 575 ZM577 187 Q637 158 702 114 Q691 87 668 55 Q598 82 538 128 Q558 162 577 187 Z" /><glyph glyph-name="uni76D8" unicode="&#x76d8;" d="M663 762 Q671 732 671 699 Q476 662 279 653 Q265 677 265 718 Q455 746 663 762 ZM358 587 Q365 506 369 435 Q526 442 701 448 Q699 495 695 556 Q543 555 386 553 Q378 584 378 617 Q559 631 768 631 Q774 526 776 450 Q807 451 845 452 Q850 438 850 419 Q850 396 847 382 Q806 380 777 378 Q777 263 761 242 Q739 237 711 237 Q675 237 648 249 Q641 272 641 299 Q678 300 698 302 Q702 309 702 374 Q538 366 373 362 Q376 309 378 253 Q348 241 302 241 Q297 305 293 360 Q253 359 205 359 Q200 392 200 427 Q249 429 289 432 Q285 501 282 578 Q318 585 358 587 ZM495 543 Q545 527 591 498 Q576 465 549 442 Q499 462 459 488 Q476 519 495 543 ZM489 352 Q539 333 582 301 Q567 268 541 246 Q492 267 453 296 Q470 327 489 352 ZM302 202 Q326 202 338 196 Q346 113 347 31 Q518 29 686 22 L686 127 Q652 128 618 129 Q617 94 613 46 Q599 42 577 42 Q554 42 542 51 Q542 104 544 133 Q517 135 492 137 Q490 100 482 50 Q468 46 447 46 Q425 46 414 54 Q414 111 418 143 Q399 145 373 147 Q369 162 369 182 Q369 197 373 215 Q562 213 766 197 Q766 94 760 19 Q797 17 841 15 L841 -19 Q841 -41 837 -56 Q445 -56 212 -42 Q206 -32 206 -6 Q206 12 213 32 L274 32 Q268 110 267 192 Q280 200 302 202 Z" /><glyph glyph-name="uni76F4" unicode="&#x76f4;" d="M516 705 Q565 702 598 682 Q593 649 590 627 Q710 622 838 614 L838 580 Q838 562 830 543 Q697 543 573 547 Q563 494 555 463 Q653 456 766 446 Q759 404 759 184 Q756 61 751 18 Q793 20 844 21 Q849 2 849 -16 L849 -52 Q521 -73 187 -83 Q180 -44 180 -6 Q347 4 511 10 Q592 13 669 16 Q669 239 677 377 Q614 377 522 388 Q398 394 359 401 Q359 441 362 471 Q420 470 469 467 Q474 511 480 549 Q347 554 206 563 Q201 587 201 602 Q201 616 203 636 Q356 636 498 630 Q506 667 516 705 ZM334 281 Q336 254 337 227 Q349 228 370 228 L518 228 Q522 211 522 195 Q522 181 521 165 Q470 157 367 157 Q348 157 340 158 Q341 134 342 112 Q367 114 404 115 L523 115 L523 53 Q451 44 344 43 Q345 30 345 12 Q307 5 267 5 Q251 196 247 389 Q285 396 329 396 Q330 369 331 353 Q433 345 537 331 Q537 304 528 267 Q428 267 334 281 Z" /><glyph glyph-name="uni76F8" unicode="&#x76f8;" d="M246 564 Q268 564 283 559 Q290 490 294 426 Q356 426 387 419 Q389 403 389 387 L389 354 Q375 344 298 344 Q301 305 302 264 Q351 244 402 219 Q393 187 374 156 Q330 167 305 178 Q306 118 306 46 Q291 41 267 41 Q241 41 228 44 Q222 122 218 186 Q184 163 122 132 Q92 161 79 191 Q140 236 214 279 Q212 313 211 345 Q132 346 86 353 Q81 370 81 389 Q81 407 84 424 Q142 425 209 426 Q207 489 207 556 Q215 562 246 564 ZM569 586 Q741 584 885 576 Q890 345 890 226 Q890 122 881 14 Q805 4 599 4 Q516 4 455 16 Q450 111 449 367 Q449 453 457 547 Q474 552 496 552 Q516 552 534 547 Q534 462 533 383 Q548 384 572 384 L678 384 Q683 366 683 349 Q683 334 681 316 Q643 307 568 307 Q544 307 533 308 Q533 273 532 238 Q548 239 574 239 L679 239 Q684 222 684 205 Q684 189 682 173 Q645 164 570 164 Q545 164 531 165 Q531 123 530 82 L800 82 Q802 276 804 511 Q676 513 564 520 Q564 555 569 586 Z" /><glyph glyph-name="uni770B" unicode="&#x770b;" d="M754 714 Q763 681 763 644 Q520 597 276 586 Q259 612 259 658 Q497 694 754 714 ZM269 539 Q348 539 426 538 Q445 563 465 593 Q504 576 531 554 Q524 539 521 536 Q660 532 833 524 Q833 489 826 451 Q643 451 473 460 Q446 418 423 381 Q607 391 802 397 Q809 379 809 363 Q811 354 811 326 Q585 311 370 302 Q326 233 289 182 Q269 151 252 128 Q236 105 217 84 Q169 98 152 131 Q185 185 259 298 Q221 296 172 295 Q162 315 162 335 L162 368 Q243 372 312 377 Q345 422 374 464 Q326 466 266 470 L266 508 Q266 522 269 539 ZM514 267 Q654 264 807 249 Q814 170 814 78 Q814 -62 809 -106 Q746 -113 565 -113 Q441 -113 359 -89 Q354 -59 354 78 Q354 123 364 227 Q401 227 445 221 Q445 190 444 168 L582 168 Q587 151 587 135 Q587 121 585 105 Q548 97 472 97 Q453 97 442 98 Q442 84 441 71 Q452 72 471 72 Q544 72 589 71 Q594 55 594 39 Q594 24 591 9 Q551 1 467 1 Q449 1 439 2 Q439 -15 438 -31 Q599 -41 726 -41 Q726 72 724 181 Q615 182 510 201 L510 234 Q510 252 514 267 Z" /><glyph glyph-name="uni773C" unicode="&#x773c;" d="M608 465 Q665 465 699 458 Q704 441 704 424 Q704 407 701 390 Q669 387 604 387 Q569 387 555 388 Q556 335 556 284 Q682 289 806 297 Q811 417 819 561 Q775 569 553 588 Q548 606 548 625 Q548 641 555 659 Q749 657 902 625 Q898 413 884 232 Q781 213 629 213 Q585 213 556 216 Q557 110 557 19 Q602 19 661 17 Q663 -3 663 -16 Q663 -34 660 -49 Q647 -57 610 -57 Q515 -57 478 -42 Q469 72 469 145 Q469 301 476 500 Q498 506 514 506 Q532 506 553 500 Q553 477 554 463 Q571 465 608 465 ZM856 193 Q891 171 901 139 Q861 92 821 57 Q856 22 895 -17 Q872 -47 836 -67 Q734 17 658 113 Q676 148 713 162 Q742 135 763 114 Q799 156 856 193 ZM184 344 Q184 307 185 274 Q197 275 219 275 Q250 275 272 271 Q276 255 276 239 Q276 225 274 209 Q254 204 215 204 Q196 204 185 205 Q185 156 186 117 Q220 113 269 113 Q309 113 319 114 Q319 184 314 486 Q259 491 200 503 Q200 535 207 568 Q301 566 389 554 Q400 443 400 242 Q400 113 394 52 Q361 39 281 39 Q179 39 113 51 Q105 126 100 232 Q100 358 111 512 L184 512 Q184 456 184 415 Q231 410 284 402 Q284 375 274 338 Q225 338 184 344 Z" /><glyph glyph-name="uni7740" unicode="&#x7740;" d="M672 734 Q708 725 742 708 Q730 647 691 609 Q665 609 623 630 Q633 683 672 734 ZM160 616 Q492 605 830 588 L830 559 Q830 539 826 523 Q681 525 546 530 L546 483 Q694 481 774 479 Q775 466 775 452 L775 425 Q739 418 545 416 L545 372 Q702 377 875 377 Q878 362 878 348 L878 317 Q614 300 368 295 Q343 245 312 195 Q295 167 283 143 Q272 128 264 115 Q255 98 234 76 Q194 89 164 112 Q221 215 273 294 Q214 293 146 293 Q139 323 139 355 Q300 365 458 370 Q457 394 456 416 L382 416 Q275 416 225 422 Q221 437 221 452 Q221 467 224 481 Q291 483 383 483 L455 483 Q454 509 454 533 Q309 540 156 550 Q151 563 151 583 Q151 599 160 616 ZM338 750 Q367 710 379 638 Q344 618 308 614 Q276 661 270 730 Q299 743 338 750 ZM484 257 Q635 255 761 246 Q765 135 765 79 Q765 -19 757 -119 Q684 -124 490 -124 Q412 -124 353 -112 Q338 -71 335 34 Q335 115 342 203 Q359 209 380 209 Q399 209 417 203 Q417 174 418 152 Q429 153 451 153 Q500 153 532 152 Q536 136 536 122 Q536 107 533 93 Q506 86 447 86 Q427 86 419 87 Q420 68 421 52 Q431 52 447 52 Q502 52 538 51 Q542 36 542 20 Q542 7 540 -8 Q508 -15 444 -15 Q430 -15 423 -15 Q424 -32 425 -50 Q567 -56 681 -56 Q682 52 684 180 Q575 182 479 190 Q479 224 484 257 Z" /><glyph glyph-name="uni7801" unicode="&#x7801;" d="M537 659 Q666 652 843 634 Q843 498 835 390 Q822 387 800 387 Q774 387 766 392 Q766 484 768 569 Q642 580 527 596 Q529 631 537 659 ZM556 545 Q572 545 594 542 Q599 442 599 352 Q720 352 895 354 Q895 60 883 1 Q863 -4 829 -4 Q759 -4 720 0 Q717 16 717 29 Q717 43 720 59 L810 59 Q810 169 811 282 Q670 282 531 277 Q523 353 518 540 Q534 543 556 545 ZM739 211 Q750 181 753 140 Q610 113 466 100 Q456 136 454 171 Q601 196 739 211 ZM115 607 Q287 601 456 572 Q456 539 449 507 Q366 507 293 514 Q263 457 227 398 Q197 345 174 309 Q163 290 153 275 Q144 261 132 246 Q87 260 71 290 Q93 331 151 429 Q182 478 210 522 Q163 528 107 538 Q107 573 115 607 ZM422 298 Q428 191 428 85 Q316 75 208 75 Q192 189 188 291 Q302 298 422 298 ZM266 226 L274 146 L354 152 L350 229 L266 226 Z" /><glyph glyph-name="uni7834" unicode="&#x7834;" d="M554 510 Q621 509 679 507 Q676 560 675 619 Q714 626 759 626 Q762 559 764 502 Q846 498 939 491 Q939 402 931 333 Q912 328 894 328 Q871 328 856 338 L856 420 Q810 421 767 424 Q769 375 770 320 Q731 313 690 313 Q685 376 682 428 Q621 433 554 439 Q549 455 549 476 Q549 491 554 510 ZM621 303 Q753 287 864 261 Q845 173 822 101 L822 102 Q879 77 934 45 Q926 18 905 -9 Q850 4 801 23 Q787 -23 772 -45 Q729 -39 705 -25 Q714 19 722 57 Q679 78 628 104 Q636 136 652 166 Q703 151 740 137 Q750 172 758 206 Q671 218 599 234 Q607 274 621 303 ZM499 439 Q541 437 574 432 Q561 222 531 14 Q493 19 457 24 Q473 238 499 439 ZM109 560 Q274 553 438 516 Q438 484 431 454 Q353 454 283 462 Q256 406 224 349 Q199 297 178 261 Q169 241 160 227 Q151 213 141 199 Q92 213 74 246 Q93 285 145 383 Q171 430 196 474 Q153 481 101 493 Q101 527 109 560 ZM413 249 Q419 138 419 28 Q314 18 214 18 Q197 136 193 240 Q300 249 413 249 ZM274 177 L283 87 L341 93 L337 181 L274 177 Z" /><glyph glyph-name="uni786E" unicode="&#x786e;" d="M497 366 Q519 366 532 362 Q539 294 544 227 Q554 228 575 228 L638 228 Q636 257 636 294 Q674 301 710 301 Q716 259 720 227 Q768 226 811 225 Q815 210 815 194 Q815 181 814 165 Q774 163 725 162 Q729 123 730 88 Q783 92 845 95 Q850 66 850 35 Q690 11 552 9 Q554 -46 554 -110 Q538 -116 515 -116 Q489 -116 477 -112 Q459 142 459 359 Q467 364 497 366 ZM653 83 Q646 121 642 161 L572 161 Q555 161 547 162 Q550 118 551 73 Q601 79 653 83 ZM603 403 Q687 403 765 399 Q786 468 807 529 Q695 545 611 560 Q568 488 507 408 Q471 417 453 441 Q506 570 610 708 Q649 700 672 675 Q660 650 651 634 Q789 616 917 587 Q899 519 877 463 Q863 418 852 394 Q895 391 949 387 Q957 271 957 177 Q957 8 951 -89 Q938 -111 788 -111 Q773 -73 773 -39 Q826 -32 881 -29 Q879 148 875 320 Q739 326 596 338 Q596 371 603 403 ZM96 572 Q267 565 435 528 Q435 496 428 466 Q353 466 287 473 Q257 411 221 349 Q194 297 173 261 Q163 239 153 225 Q145 211 134 197 Q85 211 67 243 Q87 284 141 384 Q170 435 199 484 Q149 491 89 506 Q89 539 96 572 ZM411 251 Q417 140 417 30 Q308 20 205 20 Q188 138 183 242 Q294 251 411 251 ZM265 179 L273 89 L339 95 L335 183 L265 179 Z" /><glyph glyph-name="uni788E" unicode="&#x788e;" d="M731 715 Q743 660 748 616 Q868 614 931 609 Q934 593 934 577 L934 546 Q899 538 655 538 Q530 538 472 548 Q467 564 467 581 Q467 599 470 615 Q549 616 657 616 L663 616 Q655 658 653 708 Q694 713 731 715 ZM912 132 Q917 115 917 101 Q917 86 912 71 Q855 62 748 56 Q749 -10 749 -84 Q732 -92 707 -92 Q685 -92 666 -89 Q661 -16 659 52 Q574 48 459 44 Q442 68 442 113 Q558 122 655 126 Q654 174 654 230 Q678 232 701 234 Q725 234 744 231 Q746 176 747 129 Q827 132 912 132 ZM858 522 Q893 505 924 481 Q892 419 857 366 Q908 341 967 309 Q960 292 952 280 Q945 267 933 253 Q867 271 815 303 Q798 280 777 252 Q767 252 742 267 Q720 280 716 290 Q769 391 858 522 ZM569 518 Q610 508 634 482 Q610 431 580 386 Q627 360 676 320 Q661 290 637 268 Q581 296 542 326 Q513 283 473 233 Q435 242 417 267 Q468 389 569 518 ZM84 570 Q229 565 372 537 Q372 504 364 471 Q308 471 262 475 Q232 415 198 352 Q170 300 148 263 Q138 244 129 229 Q120 215 108 200 Q63 214 45 245 Q66 285 121 385 Q151 436 179 483 Q132 488 76 500 Q76 535 84 570 ZM388 251 Q394 138 394 25 Q286 15 180 15 Q165 135 161 242 Q271 251 388 251 ZM241 175 L249 90 L319 96 L314 178 L241 175 Z" /><glyph glyph-name="uni78BE" unicode="&#x78be;" d="M534 598 Q576 594 606 573 Q572 473 534 378 Q515 330 503 292 Q492 266 483 244 Q475 218 454 181 Q414 193 385 217 Q461 424 534 598 ZM555 355 L611 355 Q610 378 610 407 Q648 414 686 414 Q689 378 690 354 Q734 353 779 351 Q782 383 787 411 Q806 414 826 414 Q846 414 865 406 Q865 375 864 349 Q889 348 925 347 Q925 316 918 281 Q885 281 862 282 Q860 257 858 232 Q895 233 942 234 Q947 220 947 202 Q947 179 944 166 Q729 154 504 152 Q499 185 499 219 Q563 222 621 224 Q617 255 615 288 Q588 289 552 291 L552 325 Q552 339 555 355 ZM775 230 Q775 260 776 284 Q734 284 694 286 Q696 255 697 227 Q736 228 775 230 ZM749 126 Q785 93 811 68 Q842 102 886 141 Q923 122 944 96 Q923 66 896 40 Q883 25 868 13 Q866 11 867 13 Q895 -11 924 -38 Q910 -64 872 -94 Q777 -22 688 72 Q720 105 749 126 ZM569 135 Q606 135 637 130 Q637 48 626 -40 Q664 -46 719 -55 Q719 -84 714 -117 Q616 -117 550 -102 Q550 20 569 135 ZM84 570 Q229 565 372 537 Q372 504 364 471 Q308 471 262 475 Q232 415 198 352 Q170 300 148 263 Q138 244 129 229 Q120 215 108 200 Q63 214 45 245 Q66 285 121 385 Q151 436 179 483 Q132 488 76 500 Q76 535 84 570 ZM388 251 Q394 138 394 25 Q286 15 180 15 Q165 135 161 242 Q271 251 388 251 ZM241 175 L249 90 L319 96 L314 178 L241 175 ZM546 713 Q684 713 905 696 Q916 646 916 559 Q916 482 905 458 Q878 436 791 436 Q689 436 627 442 Q623 461 623 475 Q623 496 630 507 Q733 511 826 513 Q826 569 820 627 Q699 631 540 643 Q540 685 546 713 Z" /><glyph glyph-name="uni795E" unicode="&#x795e;" d="M575 540 Q611 540 635 539 Q634 593 634 650 Q655 653 678 655 Q699 655 719 652 Q720 590 720 536 Q821 532 926 524 Q935 466 935 266 Q935 190 931 150 Q859 146 723 145 Q724 46 724 -59 Q708 -67 683 -67 Q664 -67 645 -64 Q642 46 640 145 Q553 145 470 161 Q457 193 457 268 Q457 323 469 470 Q485 477 506 477 Q521 477 540 471 Q540 417 535 222 Q588 218 638 215 Q637 257 637 298 Q591 300 560 305 Q555 320 555 336 Q555 351 558 364 Q597 365 636 366 Q636 417 635 467 Q602 469 581 471 Q574 483 574 508 Q574 522 575 540 ZM721 463 Q722 413 722 366 L722 366 Q805 366 840 356 Q843 343 843 330 L843 301 Q825 297 720 297 L722 297 Q723 254 723 212 Q790 210 854 210 Q857 226 857 266 Q857 353 855 457 Q775 460 721 463 ZM99 382 Q179 384 292 384 Q382 384 422 380 Q425 363 425 348 L425 315 Q408 304 302 304 Q304 261 306 219 Q358 194 413 164 Q403 134 383 102 Q336 116 308 131 Q311 60 311 -16 Q295 -23 272 -23 Q251 -23 235 -18 Q228 64 225 134 Q192 111 132 80 Q104 108 89 139 Q151 186 222 230 Q221 269 220 305 Q146 306 101 311 Q96 330 96 348 Q96 365 99 382 ZM136 569 Q216 571 329 571 Q375 571 397 565 Q399 551 399 534 L399 504 Q390 491 327 491 Q199 491 138 501 Q133 518 133 535 Q133 554 136 569 Z" /><glyph glyph-name="uni79BB" unicode="&#x79bb;" d="M248 625 Q357 625 471 621 Q459 658 459 709 Q497 715 530 715 Q549 659 553 619 Q654 615 775 609 Q775 578 769 544 Q505 544 245 562 L245 597 Q245 609 248 625 ZM220 506 Q257 506 293 501 Q293 392 291 335 Q496 324 718 319 Q718 286 715 255 Q569 255 504 257 Q494 231 486 208 Q727 202 822 193 Q843 40 843 -109 Q810 -116 721 -116 Q687 -116 662 -111 Q655 -100 655 -85 L655 -62 Q711 -58 761 -58 Q759 37 746 131 Q583 136 466 141 Q452 94 442 57 Q440 55 529 55 Q554 55 577 56 Q572 74 569 100 Q593 111 626 115 Q668 67 683 -27 Q655 -42 626 -46 Q607 -24 599 -4 Q561 -12 496 -12 Q377 -10 342 -6 Q361 76 383 144 Q349 145 314 147 Q308 156 308 177 Q308 192 313 206 Q352 207 404 208 Q414 235 423 260 Q289 264 210 276 L210 339 Q210 421 220 506 ZM363 523 Q439 505 503 483 Q546 512 596 541 Q628 524 646 503 Q615 472 587 451 Q633 432 687 405 Q679 380 658 353 Q584 370 509 397 Q498 391 486 384 Q459 363 423 343 Q395 360 376 386 Q406 410 428 428 Q390 443 340 466 Q347 495 363 523 ZM271 191 Q294 38 306 -109 Q269 -116 232 -116 Q201 34 193 185 Q230 191 271 191 ZM766 479 Q789 479 801 474 Q830 383 830 287 Q817 275 796 275 Q778 275 764 280 Q735 375 731 469 Q744 477 766 479 Z" /><glyph glyph-name="uni79D1" unicode="&#x79d1;" d="M436 622 Q445 588 445 550 Q273 519 99 512 Q83 539 83 586 Q252 609 436 622 ZM87 355 Q159 355 232 351 Q233 410 237 478 Q256 483 275 483 Q296 483 314 478 Q318 403 319 347 Q375 343 445 337 Q445 302 438 262 Q374 262 320 264 L320 204 Q376 198 436 186 Q432 168 430 152 Q428 129 423 116 Q381 116 345 123 Q329 125 319 127 Q318 53 315 -16 Q303 -22 276 -22 Q256 -22 244 -16 Q237 59 234 129 Q185 93 122 59 Q91 81 75 108 Q142 174 232 221 Q231 245 231 270 L231 268 Q160 273 84 282 L84 321 Q84 337 87 355 ZM949 279 Q957 248 957 213 Q911 202 873 193 Q874 132 874 -40 Q860 -47 835 -47 Q806 -47 793 -42 Q780 44 778 175 Q648 152 507 144 Q493 170 493 212 Q636 240 778 259 Q778 380 782 595 Q808 600 828 600 Q849 600 870 595 Q872 359 872 272 Q906 275 949 279 ZM523 591 Q607 582 704 537 Q697 508 681 480 Q581 486 504 531 Q510 563 523 591 ZM482 420 Q572 413 653 401 Q650 385 648 370 Q646 350 642 337 Q598 337 558 342 Q519 346 475 354 Q475 386 482 420 Z" /><glyph glyph-name="uni79FB" unicode="&#x79fb;" d="M468 619 Q477 588 477 553 Q304 523 129 515 Q114 540 114 583 Q284 606 468 619 ZM117 352 Q190 352 263 348 Q264 410 268 478 Q288 483 306 483 Q327 483 345 478 Q348 402 349 344 Q406 340 476 334 Q476 302 470 266 Q404 266 350 269 L350 201 Q398 196 450 188 Q448 170 446 154 Q444 131 439 118 Q400 118 366 123 Q354 124 349 125 Q348 52 346 -16 Q334 -22 308 -22 Q286 -22 276 -16 Q268 61 265 132 Q210 89 138 49 Q108 70 90 97 Q164 172 263 226 Q262 251 262 276 L262 273 Q192 277 114 288 L114 321 Q114 335 117 352 ZM678 691 Q713 672 730 650 Q718 630 707 614 Q810 576 912 527 Q871 399 796 260 Q756 267 723 287 Q765 389 808 482 Q729 521 664 553 Q617 491 549 412 Q508 430 487 454 Q563 581 678 691 ZM610 343 Q654 331 679 303 Q624 188 523 65 Q483 76 463 102 Q512 218 610 343 ZM675 253 Q798 221 917 166 Q829 0 730 -132 Q683 -118 660 -94 Q717 5 795 126 Q728 158 651 189 Q662 223 675 253 ZM614 466 Q681 458 757 424 Q749 393 732 364 Q654 370 595 404 Q601 437 614 466 ZM596 117 Q658 111 729 74 Q722 45 705 17 Q632 22 577 58 Q584 90 596 117 Z" /><glyph glyph-name="uni7A0B" unicode="&#x7a0b;" d="M530 173 Q593 173 652 171 Q649 209 647 243 Q594 237 522 232 Q511 265 507 305 Q687 322 868 337 Q878 307 886 269 Q819 260 730 251 Q734 208 737 167 Q791 164 858 159 Q858 128 851 92 Q791 92 742 94 Q745 56 747 19 Q817 18 867 13 Q871 2 871 -19 Q871 -39 867 -47 Q852 -54 727 -54 Q542 -54 521 -48 Q517 -34 517 -17 Q517 0 523 16 Q595 18 668 19 Q663 59 659 97 Q597 101 527 107 L527 143 Q527 155 530 173 ZM610 679 Q777 673 911 660 Q911 469 891 376 Q847 362 673 362 Q574 362 504 383 Q493 493 490 643 Q526 648 563 648 Q571 546 575 442 Q710 437 821 437 Q821 495 830 594 Q712 599 608 615 Q608 649 610 679 ZM426 621 Q435 588 435 552 Q277 521 118 514 Q103 539 103 584 Q257 608 426 621 ZM99 353 Q168 353 237 349 Q238 409 241 478 Q260 483 279 483 Q298 483 315 478 Q319 403 320 345 Q377 341 446 335 Q446 302 440 264 Q374 264 321 267 L321 206 Q373 199 427 188 Q425 170 423 154 Q420 131 415 118 Q376 118 342 125 Q328 127 320 128 Q319 54 317 -16 Q305 -22 280 -22 Q260 -22 248 -16 Q241 61 238 134 Q188 96 123 61 Q92 83 75 109 Q144 178 236 227 L236 271 Q169 276 96 286 L96 321 Q96 336 99 353 Z" /><glyph glyph-name="uni7AEF" unicode="&#x7aef;" d="M260 531 Q281 531 301 524 Q301 469 293 411 Q352 406 424 396 Q424 361 417 321 Q249 321 86 349 L86 388 Q86 402 90 421 Q150 421 206 416 Q208 485 219 529 Q240 531 260 531 ZM179 297 Q210 246 221 149 Q187 130 152 127 Q118 188 112 277 Q140 290 179 297 ZM309 288 Q355 285 385 267 Q359 152 341 96 Q372 99 414 102 Q422 69 424 33 Q271 7 96 -3 Q88 25 84 66 Q170 78 253 87 Q275 199 309 288 ZM683 668 Q699 668 716 663 Q722 601 722 559 Q722 530 720 515 Q772 512 831 510 Q831 474 827 437 Q667 437 621 443 Q500 447 433 463 L433 533 Q433 572 443 615 Q480 615 516 610 Q516 555 514 527 Q579 522 641 518 Q639 535 639 559 Q639 612 650 663 Q668 668 683 668 ZM909 638 Q925 548 929 464 Q896 457 854 457 Q838 541 835 630 Q875 636 909 638 ZM495 255 Q512 255 528 250 Q529 240 529 239 Q550 239 571 239 Q592 275 613 306 Q543 302 461 302 Q454 336 454 370 Q668 394 908 394 Q911 378 911 361 L911 329 Q806 316 711 310 Q685 272 662 238 Q785 237 929 232 Q938 109 938 8 Q938 -47 932 -81 Q921 -96 806 -96 Q795 -67 795 -39 Q827 -34 856 -32 Q854 69 849 167 Q691 169 534 173 Q535 156 535 139 Q535 6 528 -69 Q517 -79 495 -79 Q471 -79 460 -69 Q450 17 450 139 Q450 196 461 250 Q478 255 495 255 ZM765 146 Q780 146 798 140 Q798 63 775 -30 Q763 -35 742 -35 Q720 -35 709 -26 Q709 85 731 144 Q749 146 765 146 ZM638 151 Q653 151 671 146 Q671 68 649 -26 Q637 -31 616 -31 Q594 -31 583 -22 Q583 91 604 150 Q622 151 638 151 Z" /><glyph glyph-name="uni7B49" unicode="&#x7b49;" d="M519 467 Q540 467 558 462 Q560 423 561 394 Q670 395 780 395 Q785 381 785 365 Q785 350 780 334 Q706 331 562 328 Q563 300 563 275 Q685 274 743 270 Q746 255 746 239 L746 208 Q716 199 506 199 Q384 199 327 207 Q323 223 323 240 Q323 258 326 273 Q392 275 475 275 Q475 301 476 326 Q375 324 237 322 Q220 348 220 393 Q358 394 478 394 Q479 425 481 462 Q501 467 519 467 ZM572 136 Q570 150 568 172 Q601 179 640 182 Q646 155 649 136 Q728 136 783 130 Q787 117 787 96 Q787 74 783 64 Q768 58 662 58 Q677 -33 677 -99 Q635 -108 599 -108 Q544 -108 524 -95 Q519 -87 519 -72 Q519 -55 522 -40 Q560 -42 590 -42 Q586 9 581 58 Q293 58 261 64 Q256 80 256 98 Q256 116 262 133 Q409 136 572 136 ZM334 43 Q364 6 376 -62 Q344 -80 310 -84 Q277 -39 270 24 Q298 38 334 43 ZM282 733 Q322 722 355 698 Q340 671 330 654 Q404 647 486 632 Q486 605 478 568 Q382 568 291 589 Q254 532 216 481 Q175 493 151 519 Q183 578 282 733 ZM627 733 Q670 729 700 708 Q691 690 679 663 Q775 653 875 634 Q875 607 866 570 Q756 570 648 599 Q630 559 600 498 Q561 505 531 521 Q558 612 627 733 ZM686 554 Q743 543 802 525 Q800 493 785 466 Q745 466 671 491 Q674 526 686 554 ZM312 551 Q359 538 413 522 Q407 493 392 464 Q337 471 294 490 Q299 523 312 551 Z" /><glyph glyph-name="uni7EB8" unicode="&#x7eb8;" d="M819 674 Q830 643 833 602 Q635 556 436 531 Q425 568 423 604 Q628 646 819 674 ZM512 459 Q531 459 547 454 Q547 267 545 97 Q567 97 610 93 L610 64 Q608 50 608 33 Q584 28 537 28 Q487 28 463 38 Q463 241 475 456 Q494 459 512 459 ZM863 394 Q887 361 891 330 Q848 310 812 297 Q843 218 874 143 Q893 147 924 149 Q944 127 946 99 Q899 72 833 56 Q779 168 737 270 Q687 252 625 235 Q599 271 599 301 Q658 325 707 342 Q681 407 656 475 Q691 497 729 507 Q758 433 783 368 Q821 382 863 394 ZM210 682 Q249 673 278 659 Q237 551 192 445 Q231 443 281 440 Q309 490 346 547 Q377 535 411 516 Q333 370 268 259 Q324 255 391 247 Q391 215 384 184 Q202 185 153 207 Q185 274 244 378 L239 373 Q170 375 95 386 Q145 537 210 682 ZM389 137 Q403 105 403 73 Q277 40 139 30 Q128 61 126 94 Q245 124 389 137 Z" /><glyph glyph-name="uni7EC4" unicode="&#x7ec4;" d="M624 466 Q672 466 701 464 L701 399 Q642 391 560 390 Q560 364 559 340 Q585 342 624 343 Q677 343 709 341 L709 276 Q646 268 557 267 Q555 204 552 134 Q540 130 514 130 Q492 130 475 137 Q479 370 490 575 Q511 578 530 578 Q554 576 564 570 Q563 513 562 463 Q587 465 624 466 ZM566 675 Q718 671 866 652 Q866 396 829 111 Q857 112 895 113 Q900 97 900 79 Q900 55 897 41 Q666 32 424 30 Q419 64 419 100 Q578 106 756 110 Q766 346 781 575 Q673 583 559 600 Q559 635 566 675 ZM223 674 Q261 665 291 652 Q250 554 205 461 Q238 459 282 455 Q317 509 359 571 Q391 559 423 539 Q344 408 281 309 Q336 304 404 296 Q404 264 397 233 Q215 234 165 257 Q194 314 240 388 Q176 391 108 401 Q158 541 223 674 ZM403 176 Q416 142 416 110 Q290 80 152 71 Q141 103 139 137 Q258 164 403 176 Z" /><glyph glyph-name="uni7EC6" unicode="&#x7ec6;" d="M222 674 Q261 665 292 651 Q252 544 209 440 Q246 438 293 434 Q320 483 357 540 Q390 528 425 507 Q349 364 285 254 Q339 249 404 240 Q404 207 397 174 Q215 176 165 199 Q197 267 252 364 Q181 367 108 378 Q157 529 222 674 ZM402 130 Q416 97 416 64 Q290 31 152 21 Q141 53 139 87 Q258 117 402 130 ZM617 588 Q749 584 893 567 Q901 430 901 262 Q901 124 895 79 Q831 73 642 73 Q540 73 472 86 Q468 117 468 249 Q468 340 484 551 Q520 551 562 544 Q561 455 557 369 Q591 368 628 365 Q631 413 639 466 Q674 466 712 460 Q712 405 710 359 Q736 356 772 353 Q772 322 766 287 Q730 287 706 288 Q702 243 696 193 Q660 193 621 199 Q621 250 624 293 Q587 296 555 300 Q552 226 548 148 L815 148 Q815 327 813 498 Q712 500 612 519 L612 553 Q612 571 617 588 Z" /><glyph glyph-name="uni7ECD" unicode="&#x7ecd;" d="M240 674 Q278 665 307 652 Q259 549 205 450 Q255 448 316 444 Q350 495 392 554 Q423 542 457 523 Q371 387 301 284 Q363 278 437 268 Q437 236 430 204 Q238 206 186 232 Q218 294 272 377 Q193 380 107 391 Q165 535 240 674 ZM437 152 Q450 119 450 87 Q310 55 155 46 Q144 77 142 111 Q275 140 437 152 ZM589 579 Q547 580 497 580 Q491 601 491 615 Q491 628 497 648 Q567 655 721 655 Q793 655 888 649 Q894 569 894 475 L894 336 Q864 332 804 332 Q767 332 736 335 Q732 352 732 364 L732 388 Q777 392 811 392 Q811 473 805 578 Q737 579 672 579 Q653 514 625 445 Q608 406 590 365 Q581 348 573 325 Q565 304 548 279 Q512 286 478 301 Q533 454 589 579 ZM857 253 Q868 194 868 133 Q868 42 863 30 Q756 13 559 13 Q534 105 529 236 Q681 253 857 253 ZM626 82 L787 89 L784 185 L619 178 L626 82 Z" /><glyph glyph-name="uni7ED3" unicode="&#x7ed3;" d="M735 615 Q833 615 896 608 Q901 596 901 572 Q901 547 896 538 Q878 531 735 531 L696 531 Q698 469 699 409 Q771 408 823 402 Q828 390 828 368 Q828 345 823 335 Q806 329 670 329 Q505 329 487 335 Q483 351 483 370 Q483 389 489 406 Q553 408 618 409 Q612 470 609 531 Q463 533 442 538 Q437 554 437 574 Q437 593 443 612 Q524 614 606 614 Q604 662 604 715 Q625 718 648 720 Q669 720 688 717 Q691 662 694 615 L735 615 ZM609 254 Q756 254 845 240 Q856 178 856 121 Q856 28 853 -1 Q800 -18 673 -18 Q554 -18 508 -6 Q499 32 495 112 Q491 176 491 223 Q508 228 532 230 Q555 230 569 227 Q576 142 576 54 Q620 53 673 53 Q730 53 773 57 Q770 115 766 173 Q723 176 682 179 Q648 179 608 189 Q605 211 605 222 Q605 237 609 254 ZM219 673 Q259 663 291 649 Q251 548 207 452 Q241 450 284 445 Q314 492 349 545 Q382 533 416 512 Q339 377 276 275 Q337 270 410 261 Q410 228 403 196 Q208 198 156 222 Q187 287 241 376 Q174 380 104 391 Q154 535 219 673 ZM415 133 Q428 100 428 68 Q292 34 141 25 Q130 56 128 90 Q258 120 415 133 Z" /><glyph glyph-name="uni7EF4" unicode="&#x7ef4;" d="M223 674 Q261 665 291 652 Q250 543 205 438 Q244 436 293 432 Q318 476 351 527 Q383 515 416 495 Q342 357 280 251 Q336 247 404 239 Q404 207 397 176 Q215 177 165 199 Q196 265 252 363 Q256 368 254 365 Q183 367 108 378 Q158 529 223 674 ZM402 129 Q416 97 416 66 Q290 32 152 23 Q141 53 139 86 Q258 116 402 129 ZM442 525 Q427 518 399 507 Q380 532 374 562 Q471 648 586 693 Q612 663 612 632 Q581 596 518 562 Q536 330 544 74 Q511 64 472 64 Q453 298 442 525 ZM569 575 Q636 575 702 570 Q694 617 690 670 Q723 676 762 676 Q773 615 778 563 Q832 557 898 547 Q898 516 891 480 Q726 480 566 509 L566 544 Q566 558 569 575 ZM743 478 Q749 440 753 410 Q817 409 866 403 Q871 391 871 369 Q871 346 866 336 Q851 331 760 330 Q765 286 767 245 Q839 245 873 238 Q876 224 876 208 L876 177 Q860 167 771 167 Q773 130 774 94 Q826 99 886 103 Q893 73 895 38 Q743 15 566 6 Q559 33 555 71 Q631 81 701 88 Q695 129 690 167 Q614 169 570 176 Q565 193 565 210 Q565 228 568 243 Q622 244 683 245 Q679 289 676 330 Q578 331 564 336 Q560 352 560 371 Q560 390 566 407 Q620 409 672 410 Q671 439 670 473 Q691 478 707 478 L743 478 Z" /><glyph glyph-name="uni7F51" unicode="&#x7f51;" d="M628 627 Q780 627 876 625 Q897 438 897 235 Q897 104 893 -20 Q850 -27 778 -27 Q732 -27 707 -22 Q701 4 701 33 Q759 38 818 40 Q818 292 803 552 Q586 548 332 533 Q325 556 325 573 Q325 590 330 605 Q434 621 628 627 ZM186 553 Q209 553 223 548 Q246 302 246 10 Q229 6 207 6 Q180 6 168 8 Q148 298 148 544 Q157 551 186 553 ZM448 378 Q480 359 502 337 Q470 291 434 253 Q467 224 503 190 Q490 160 457 135 Q413 168 380 196 Q372 188 360 177 Q336 148 302 121 Q274 139 253 166 Q287 210 322 249 Q290 279 258 315 Q279 348 302 369 Q344 335 375 307 Q407 341 448 378 ZM720 396 Q754 378 773 355 Q740 299 704 252 Q732 223 763 190 Q752 160 718 134 Q680 165 654 191 Q646 182 635 169 Q611 136 580 102 Q549 122 530 147 Q564 201 599 249 Q568 281 539 319 Q558 351 583 373 Q619 340 647 311 Q679 351 720 396 Z" /><glyph glyph-name="uni8033" unicode="&#x8033;" d="M262 532 Q285 532 303 529 Q308 482 312 443 Q410 457 525 465 Q530 433 530 397 Q415 375 317 372 Q321 333 323 295 Q411 306 517 311 Q522 279 522 245 Q415 226 326 224 Q328 179 329 137 Q412 144 500 150 Q592 158 680 164 Q673 350 673 523 Q682 529 714 531 Q737 531 753 526 Q764 353 768 167 Q814 170 868 172 Q872 152 872 136 L872 97 Q816 92 769 87 Q770 18 770 -58 Q754 -64 729 -64 Q701 -64 689 -60 Q685 15 683 80 Q418 55 141 42 Q134 81 134 117 Q195 125 243 130 Q217 322 217 528 Q240 530 262 532 ZM131 672 Q499 672 859 651 Q859 613 852 576 Q480 576 123 596 Q123 638 131 672 Z" /><glyph glyph-name="uni805A" unicode="&#x805a;" d="M159 716 Q367 712 574 693 Q574 662 567 634 Q359 634 152 653 Q152 686 159 716 ZM383 491 Q388 461 388 427 Q315 420 259 419 Q261 402 262 388 Q350 391 444 392 Q442 409 442 432 Q442 521 448 619 Q466 623 483 623 Q503 623 519 619 Q524 519 524 438 Q524 360 516 297 Q505 293 480 293 Q462 293 451 297 Q449 316 448 328 Q306 316 159 316 Q153 349 153 383 Q174 384 184 385 Q171 486 166 596 Q203 603 245 603 Q247 582 248 572 Q309 573 383 574 Q388 544 388 510 Q311 509 253 509 Q254 495 255 484 Q313 489 383 491 ZM566 582 Q714 571 839 553 Q818 481 798 427 Q851 409 907 383 Q899 356 878 328 Q821 339 770 355 Q757 323 742 307 Q703 312 678 325 Q688 356 695 380 Q647 395 589 420 Q597 451 613 480 Q673 467 721 452 Q728 476 736 497 Q630 504 544 515 Q553 555 566 582 ZM241 169 Q276 159 313 143 Q303 116 294 95 Q353 80 414 54 Q404 25 383 -5 Q323 5 260 25 Q248 0 228 -30 Q187 -21 160 2 Q197 91 241 169 ZM591 298 Q617 269 617 235 Q588 221 545 210 Q572 60 582 -91 Q561 -96 544 -98 Q531 -102 505 -102 Q475 50 465 192 Q431 185 379 177 Q360 202 352 232 Q463 276 591 298 ZM723 190 Q757 182 792 166 Q779 132 765 106 Q818 91 873 66 Q864 38 843 6 Q783 17 724 39 Q710 17 690 -8 Q651 0 625 22 Q669 113 723 190 Z" /><glyph glyph-name="uni8086" unicode="&#x8086;" d="M170 156 Q91 157 77 161 Q73 176 73 194 Q73 212 79 229 Q119 230 153 231 Q145 406 143 560 Q129 561 107 565 L107 603 Q107 616 110 635 Q258 635 456 610 Q456 577 448 540 Q329 540 222 550 Q224 517 225 483 L254 483 Q316 483 356 482 Q360 466 360 449 Q360 434 358 418 Q323 410 250 410 L227 410 Q228 383 229 358 L258 358 Q330 358 375 357 Q380 341 380 324 Q380 309 378 293 Q336 286 254 286 L230 286 Q231 259 231 232 L296 232 Q386 232 444 225 Q448 214 448 192 Q448 170 444 161 Q427 154 296 154 L251 154 Q241 100 229 45 Q275 41 330 41 Q330 75 331 102 Q366 105 402 107 Q407 48 407 -23 Q390 -29 351 -32 Q206 -32 133 -6 Q155 97 170 156 ZM499 604 Q561 604 629 599 Q630 636 633 679 Q652 682 672 682 Q691 682 713 677 Q713 630 713 592 Q785 584 877 570 Q888 526 888 453 Q914 454 949 454 Q953 436 953 420 L953 383 Q914 382 887 381 Q885 304 874 273 Q849 254 771 254 Q734 254 708 254 Q708 218 708 185 Q771 189 843 191 Q848 158 848 122 Q772 115 710 110 Q710 88 711 67 Q779 72 860 75 Q865 44 865 9 Q782 -1 711 -7 Q711 -41 712 -81 Q695 -83 673 -83 Q652 -83 636 -78 Q634 -42 632 -13 Q565 -18 492 -18 Q484 14 484 49 Q560 56 629 62 Q628 86 627 106 Q558 102 483 102 Q476 135 476 170 Q554 176 625 181 Q623 219 623 255 Q557 256 503 259 Q499 275 499 288 Q499 307 506 316 Q568 318 622 319 Q622 335 622 353 Q622 366 622 374 Q543 371 455 370 Q449 406 449 443 Q541 446 623 447 Q624 487 625 525 Q565 531 493 543 Q493 578 499 604 ZM712 516 Q712 482 711 449 Q755 450 799 451 Q799 482 798 510 Q756 512 712 516 ZM708 376 Q708 369 708 360 Q708 338 708 320 Q756 321 800 322 L800 378 Q754 376 708 376 Z" /><glyph glyph-name="uni8131" unicode="&#x8131;" d="M106 511 Q147 509 180 504 Q179 453 177 412 Q214 410 263 403 Q263 369 252 342 Q202 342 174 345 Q172 319 171 294 Q210 292 263 283 Q263 249 252 222 Q198 222 168 226 Q165 177 162 119 Q123 124 87 129 Q94 326 106 511 ZM198 560 Q286 560 386 547 Q386 273 373 95 Q270 95 249 111 Q249 134 251 157 Q284 157 300 155 Q302 328 304 483 Q252 486 196 496 Q194 512 194 527 Q194 546 198 560 ZM554 500 Q709 499 857 483 Q866 454 866 361 Q866 285 862 246 Q790 237 629 237 Q532 237 444 253 Q431 285 431 360 Q431 399 436 502 Q452 507 471 507 Q487 507 505 502 Q505 461 509 317 Q649 308 787 308 Q791 323 791 361 Q791 386 788 413 Q607 422 559 428 Q551 440 551 466 Q551 481 554 500 ZM523 217 Q560 213 600 201 Q545 73 486 -60 Q446 -56 414 -38 Q458 90 523 217 ZM704 194 Q717 194 740 188 Q730 95 730 24 L835 24 L835 88 Q856 91 866 91 Q882 91 898 88 Q903 61 903 38 Q903 -8 898 -29 Q854 -40 758 -40 Q679 -40 652 -28 Q652 80 664 191 Q678 194 704 194 ZM767 708 Q799 700 831 686 Q813 600 761 548 Q737 548 699 565 Q715 639 767 708 ZM534 702 Q595 633 620 578 Q603 563 566 548 Q516 596 477 672 Q501 691 534 702 Z" /><glyph glyph-name="uni81EA" unicode="&#x81ea;" d="M375 591 Q422 591 454 590 Q465 653 483 722 Q526 716 570 704 Q555 642 541 588 Q769 584 825 574 Q839 350 839 234 Q839 -32 820 -91 Q768 -105 525 -105 Q315 -105 200 -91 Q185 27 185 200 Q185 387 198 570 Q239 570 277 568 Q277 471 278 383 Q416 373 554 356 Q554 328 545 291 Q411 291 279 309 Q280 255 280 201 Q400 190 521 172 Q521 143 512 106 Q394 106 281 127 Q284 49 286 -30 Q350 -33 521 -33 Q680 -32 743 -30 Q747 182 747 230 Q747 387 738 497 Q557 499 373 513 Q373 553 375 591 Z" /><glyph glyph-name="uni822A" unicode="&#x822a;" d="M391 662 Q405 630 405 598 Q269 557 120 546 Q109 576 107 610 Q236 647 391 662 ZM174 437 Q194 437 210 432 Q216 332 216 251 Q216 240 216 236 Q240 236 269 236 Q343 236 391 235 Q387 317 382 399 Q320 410 252 420 Q249 435 249 455 Q249 467 253 486 Q365 486 455 468 Q468 344 475 233 Q490 233 509 232 Q512 217 512 202 L512 170 Q500 166 478 164 Q484 60 484 -45 Q442 -53 371 -53 Q362 -23 362 -2 Q389 2 405 5 Q401 84 395 161 Q347 160 267 160 Q237 160 215 161 Q214 50 207 -45 Q196 -50 172 -50 Q153 -50 141 -45 Q135 56 134 163 Q110 165 88 167 Q83 184 83 202 Q83 219 86 234 Q113 235 133 235 Q133 239 133 246 Q133 334 139 432 Q158 437 174 437 ZM257 359 Q304 354 358 327 Q350 295 333 265 Q278 269 236 296 Q243 329 257 359 ZM270 125 Q313 121 361 92 Q354 59 336 31 Q287 34 249 62 Q256 96 270 125 ZM537 509 Q613 509 686 507 Q676 539 673 589 Q701 603 740 608 Q765 568 775 505 Q846 502 933 498 Q933 466 926 429 Q729 429 536 442 L536 479 Q536 492 537 509 ZM605 349 Q640 347 669 340 Q668 328 667 323 Q763 319 868 309 Q860 175 852 47 Q878 39 917 30 Q917 4 911 -21 Q905 -27 854 -27 Q816 -24 776 -12 Q776 135 786 247 Q718 251 661 255 Q646 129 617 -27 Q581 -24 552 -12 Q568 171 605 349 Z" /><glyph glyph-name="uni8235" unicode="&#x8235;" d="M376 665 Q391 632 391 598 Q255 555 107 542 Q93 574 91 610 Q220 649 376 665 ZM159 436 Q177 436 194 431 Q200 331 200 250 L200 224 Q283 221 374 216 Q370 303 365 389 Q300 400 228 411 Q226 427 226 448 Q226 461 232 481 Q342 481 432 462 Q445 327 452 212 Q474 210 507 208 Q507 174 500 136 Q472 136 456 137 Q460 43 460 -51 Q418 -60 346 -60 Q338 -30 338 -11 Q368 -6 385 -3 Q382 67 378 138 Q288 140 200 146 Q199 45 196 -43 Q185 -48 162 -48 Q142 -48 131 -43 Q122 51 119 151 Q96 153 66 157 L66 193 Q66 208 69 226 L118 226 L118 245 Q118 333 123 431 Q141 436 159 436 ZM244 359 Q291 354 345 323 Q337 291 319 261 Q264 265 222 297 Q229 329 244 359 ZM245 123 Q288 118 336 90 Q329 57 311 29 Q261 32 223 60 Q231 94 245 123 ZM869 269 Q881 237 885 195 Q768 175 660 164 Q664 94 668 25 Q722 22 792 17 L792 -18 Q792 -38 787 -53 Q665 -53 594 -43 Q574 135 574 337 Q611 342 653 342 Q655 288 657 242 Q762 258 869 269 ZM510 548 Q528 548 549 539 Q549 450 539 338 Q523 333 499 333 Q473 333 461 344 Q461 475 470 544 Q489 548 510 548 ZM568 556 Q617 556 657 555 Q653 597 653 648 Q676 650 698 652 Q721 652 739 649 Q738 598 738 552 Q824 549 916 541 Q927 447 927 362 Q912 357 894 357 Q882 357 857 359 Q850 399 843 473 Q713 473 571 487 Q566 505 566 523 Q566 536 568 556 Z" /><glyph glyph-name="uni8361" unicode="&#x8361;" d="M175 699 Q252 699 318 698 Q315 726 313 759 Q349 766 390 766 Q396 726 400 697 Q507 695 613 691 Q617 724 625 760 Q646 762 665 762 Q688 760 699 755 Q697 717 694 687 Q755 685 824 681 L824 648 Q824 626 819 612 L685 612 Q681 582 674 547 Q662 541 636 541 Q614 541 597 548 Q599 584 602 613 Q497 614 409 617 Q413 582 417 542 Q380 535 343 535 Q333 580 328 619 Q247 622 174 626 Q168 636 168 662 Q168 679 175 699 ZM112 304 Q194 298 268 287 Q266 268 264 254 Q262 231 257 218 Q217 218 180 223 Q145 226 105 235 Q105 268 112 304 ZM200 510 Q270 489 350 457 Q343 425 325 387 Q244 406 173 440 Q185 477 200 510 ZM302 137 Q331 105 331 70 Q298 44 199 16 Q179 43 173 76 Q232 117 302 137 ZM416 503 Q547 490 687 468 Q664 386 629 305 Q747 287 893 265 Q834 93 757 -67 Q709 -60 681 -39 Q728 85 781 204 Q650 221 525 244 Q555 328 583 403 Q496 412 405 428 Q405 471 416 503 ZM473 176 Q507 167 543 152 Q514 73 463 -8 Q424 0 398 22 Q432 105 473 176 ZM606 167 Q640 158 675 143 Q647 64 596 -16 Q557 -8 531 14 Q565 96 606 167 Z" /><glyph glyph-name="uni83B7" unicode="&#x83b7;" d="M186 676 Q261 676 324 675 Q320 712 317 757 Q354 764 396 764 Q404 713 409 673 Q522 670 632 664 Q637 708 647 755 Q668 757 686 757 Q709 755 721 750 Q719 702 714 660 Q778 655 850 650 L850 620 Q850 600 846 586 Q768 586 705 587 Q701 554 694 515 Q683 511 656 511 Q635 511 618 518 Q620 557 624 588 Q512 590 420 594 Q425 552 429 505 Q392 498 354 498 Q342 551 335 598 Q257 603 184 609 Q180 618 180 642 Q180 657 186 676 ZM243 467 Q287 434 317 395 Q360 412 413 429 Q435 403 444 371 Q399 348 358 329 Q372 305 383 276 Q409 219 418 150 Q430 73 430 -8 Q404 -18 287 -28 Q278 5 278 35 Q317 40 350 43 Q350 94 340 137 Q281 106 197 88 Q175 110 168 145 Q240 185 321 209 Q305 254 281 295 Q211 265 130 238 Q112 266 103 296 Q170 333 236 362 Q211 394 176 430 Q211 453 243 467 ZM470 287 Q532 287 585 285 Q617 373 653 467 Q695 460 722 439 Q697 356 671 282 Q743 279 825 272 L825 238 Q825 215 820 201 Q720 201 646 204 Q603 79 552 -49 Q513 -46 479 -20 Q518 98 557 207 Q513 209 469 213 Q463 223 463 250 Q463 268 470 287 ZM696 96 Q760 65 818 14 Q803 -18 778 -39 Q713 -4 661 43 Q677 72 696 96 ZM748 455 Q803 425 863 379 Q853 354 831 324 Q767 351 712 398 Q731 430 748 455 Z" /><glyph glyph-name="uni83CC" unicode="&#x83cc;" d="M169 658 Q253 658 328 657 Q324 690 322 730 Q359 737 402 737 Q409 691 414 655 Q532 653 650 648 Q659 681 671 720 Q711 718 743 709 Q739 675 734 645 Q803 642 883 637 L883 603 Q883 580 876 567 L718 567 Q711 536 700 498 Q658 500 626 514 Q630 545 634 568 Q519 570 422 573 Q425 542 428 508 Q389 501 350 501 Q342 542 337 575 Q248 579 168 585 Q162 595 162 621 Q162 639 169 658 ZM353 463 Q630 463 870 453 Q889 422 889 178 Q889 -71 863 -85 Q784 -106 474 -106 Q229 -97 164 -58 Q164 183 192 390 Q229 390 264 385 Q262 183 250 -7 Q285 -20 474 -29 Q755 -29 793 -18 Q803 35 803 176 Q803 223 797 379 Q580 379 353 391 L353 463 ZM488 262 Q433 257 369 253 Q360 281 357 312 Q509 343 694 356 Q706 326 706 297 Q633 281 565 272 Q569 243 571 218 Q687 217 744 212 Q747 197 747 184 L747 155 Q721 149 577 148 Q584 77 587 0 Q566 -4 549 -6 Q536 -9 508 -9 Q500 74 495 148 L488 148 Q378 148 328 157 Q324 171 324 186 Q324 202 325 216 Q394 218 489 218 L491 218 Q489 241 488 262 ZM443 145 Q466 115 474 86 Q421 41 356 25 Q335 54 324 83 Q382 123 443 145 ZM636 148 Q703 121 764 76 Q750 47 727 28 Q659 58 604 99 Q620 127 636 148 Z" /><glyph glyph-name="uni8425" unicode="&#x8425;" d="M357 765 Q363 727 366 700 Q496 698 624 693 Q630 730 640 771 Q662 773 681 773 Q706 771 717 765 Q715 723 711 689 Q791 685 879 680 L879 646 Q879 623 874 609 Q777 609 699 610 Q694 581 687 548 Q675 542 647 542 Q624 542 607 550 Q609 584 612 611 Q482 612 374 616 Q378 584 381 546 Q341 538 301 538 Q292 582 287 619 Q204 622 129 627 Q123 637 123 664 Q123 682 130 702 Q210 702 278 701 Q275 727 273 757 Q313 765 357 765 ZM160 519 Q179 519 198 511 Q198 419 180 304 Q165 299 141 299 Q116 299 104 310 Q104 444 122 516 Q141 519 160 519 ZM269 512 Q573 512 867 490 Q875 399 875 318 Q860 311 840 311 Q827 311 802 315 Q794 351 788 420 Q537 420 272 441 Q267 459 267 479 Q267 492 269 512 ZM358 133 Q613 133 749 105 Q756 67 756 19 Q756 -30 747 -53 Q680 -69 473 -69 Q286 -69 238 -44 Q232 3 232 39 Q232 71 233 117 Q253 122 270 122 Q291 122 305 119 Q316 43 316 12 Q367 5 471 5 Q626 5 676 7 Q678 27 678 46 Q642 51 358 66 Q355 84 355 102 Q355 115 358 133 ZM387 378 Q547 378 741 362 Q753 343 753 279 Q753 210 742 187 Q677 179 443 179 Q328 179 275 195 Q264 234 264 274 Q264 317 277 366 Q293 371 310 371 Q329 371 346 366 L346 261 Q489 254 667 254 Q669 275 669 294 Q521 302 382 315 L382 349 Q382 362 387 378 Z" /></font>
</defs>
</svg>
